<?xml version="1.0" encoding="utf-8"?>
<!-- Generator: Adobe Illustrator 28.0.0, SVG Export Plug-In . SVG Version: 6.00 Build 0)  -->
<svg version="1.1" id="Layer_1" xmlns="http://www.w3.org/2000/svg" xmlns:xlink="http://www.w3.org/1999/xlink" x="0px" y="0px"
	 viewBox="0 0 758.8 1779.8" preserveAspectRatio="none" style="enable-background:new 0 0 758.8 1779.8;" xml:space="preserve">
<style type="text/css">
	.st0{opacity:0.1091;fill:#C92317;}
	.st1{fill:#8A1812;stroke:#942014;stroke-width:2.7812;stroke-miterlimit:10;}
	.st2{fill:none;stroke:#020203;stroke-width:16.6875;stroke-miterlimit:10;}
	.st3{fill:none;stroke:#020203;stroke-width:27.8125;stroke-miterlimit:10;}
	.st4{fill:none;stroke:#020203;stroke-width:36.1562;stroke-miterlimit:10;}
	.st5{fill:#8A1812;stroke:#942014;stroke-width:3.0457;stroke-miterlimit:10;}
	.st6{fill:#8A1812;}
	.st7{fill:#942014;}
	.st8{fill:none;stroke:#020203;stroke-width:19.4687;stroke-miterlimit:10;}
	.st9{fill:none;stroke:#020203;stroke-width:33.375;stroke-miterlimit:10;}
	.st10{fill:#8A1812;stroke:#942014;stroke-width:2.7107;stroke-miterlimit:10;}
	.st11{fill:#8A1812;stroke:#942014;stroke-width:2.6977;stroke-miterlimit:10;}
</style>
<g>
	<g>
		<g>
			<g>
				<path class="st0" d="M360.7,585.5c2.8,39.1,5.4,78.3,7.3,117.5c1.3,26.4,2.6,52.8,5,79.1c1.7,19,3.7,38,6.1,56.9
					c0.6,4.8,1.2,9.6,1.9,14.3c-0.1,1-0.3,1.9-0.4,2.9c-0.6,4.1-0.9,8.2-1.2,12.3c-1.9,22-3.4,44-5,66c-2.8,38.7-5,77.4-8.7,116.1
					c-2.3,23.4-4.4,47-10.8,69.7c-2.9,10.3-4.8,20.7-5.9,31.3c-1.2,12.1-0.8,24,0.4,36c0.2,1.8,2.6-1.1,2.8-1.2
					c1.2-1.3,2.4-2.6,3.5-3.9c0.7-0.7,1.2-1.4,1.5-2.3c-0.2-4.5-0.4-9-0.5-13.5c-0.2-6,0.1-11.9,0.8-17.9
					c1.2-11.1,3.4-22.1,5.9-32.9c1-4.4,2.3-8.6,3.2-13.1c1.1-5.1,2-10.3,2.7-15.5c0.9-6.1,1.3-12.2,2-18.3
					c0.8-7.1,1.6-14.3,2.3-21.4c0.6-5.7,1.1-11.4,1.5-17.1c0.2-3.3,0.5-6.7,0.7-10c0.4-1.6,0.5-3.3,0.6-5c0.3-3.7,0.7-7.3,0.9-11
					c0.4-5.8,0.6-11.7,1-17.5c0.8-9.5,1.3-19,2.1-28.5c0.3-4.1,0.7-8.1,1-12.2c0.5-6.4,0.6-12.8,1.1-19.1c0.6-7.2,1.1-14.3,1.4-21.5
					c0.2-4.2,0.8-8.4,1.1-12.6c0.8-9.9,1.4-19.8,1.9-29.7c0.3-4.5,0.4-9.1,0.5-13.6c0.1-1.7,0.1-3.4,0.2-5.1
					c-0.4-3.5-0.8-7-1.2-10.5c-2.1-18.3-4-36.6-5.6-54.9c-0.8-8.9-2-17.7-2.2-26.7c-0.1-6-0.7-12-1-17.9c-0.3-5.9-0.7-11.8-1.2-17.7
					c-0.5-6.3-0.7-12.6-0.9-18.9c-0.7-16.1-1.6-32.3-2.5-48.4c-1.4-24-3.3-48-4.5-72c-0.1-1.8-2.7,1.3-2.7,1.3
					c-1.2,1.3-2.3,2.7-3.3,4C361.4,583.8,361,584.6,360.7,585.5z"/>
				<path class="st0" d="M361.4,582.6c2.9,39.1,5.4,78.2,7.3,117.4c1.3,26.4,2.6,52.8,5,79.1c1.7,19,3.7,38,6.1,56.9
					c0.7,4,1.1,8,1.2,12c0.5,2.9,0.4,5.9-0.2,8.8c-0.5,4.5-0.9,9.1-1.2,13.6c-1.8,21.4-3.4,42.8-4.8,64.2
					c-1.2,18.9-2.6,37.8-3.9,56.6c-1.5,20.2-2.9,40.3-4.9,60.4c-1.3,13.1-2.5,26.3-4.6,39.3c-1.4,8.9-3.4,17.6-5.8,26.3
					c-2.9,10.3-4.8,20.7-5.9,31.3c-1.2,12.1-0.8,24,0.4,36c0.1,1.5,2-0.6,2.1-0.7c0.8-0.9,1.5-1.8,2.1-2.8c0.5-0.5,0.7-1.1,0.8-1.7
					c-0.3-4.6-0.5-9.2-0.6-13.8c-0.2-6.1,0.1-12.2,0.7-18.3c1.1-11.1,3.4-22.1,5.9-32.9c1-4.3,2.3-8.6,3.2-12.9
					c1.1-5.1,2-10.2,2.7-15.3c0.8-6,1.4-12.1,2.1-18.1c0.8-7.1,1.6-14.3,2.3-21.4c2.2-22.5,3.8-45.1,5.4-67.7
					c0.6-8.4,1.1-16.8,1.8-25.2c0.8-10.2,1.2-20.4,2-30.6c0.2-2.2,0.3-4.5,0.5-6.7c0.4-5.3,0.7-10.6,0.9-15.9
					c0.5-3.5,0.8-6.9,1-10.4c0.7-9.9,1.5-19.9,2.1-29.8c0.3-4.2,0.5-8.4,0.7-12.6c0.3-5.8-0.9-11.6-1.6-17.3
					c-2.2-18.9-4-37.8-5.8-56.7c-0.4-3.8-0.8-7.7-1.2-11.5c-0.4-4.3-0.6-8.6-0.7-12.9c-0.3-5.9-0.8-11.9-1.1-17.8
					c-0.3-4.9-0.6-9.8-1-14.7c-0.5-6.3-0.6-12.6-0.9-18.9c-0.7-16.1-1.6-32.3-2.5-48.4c-1.4-24-3.3-48-4.7-72
					c-0.1-1.5-2,0.7-2.1,0.7c-0.7,0.9-1.4,1.8-2,2.8C361.6,581.4,361.4,581.9,361.4,582.6z"/>
				<path class="st0" d="M362.8,584.7c2.7,39.1,5.4,78.2,7.2,117.4c1.2,26.4,2.6,52.8,5,79.1c1.7,19,3.7,38,6,56.9
					c0.6,4.8,1.2,9.5,1.9,14.3c-0.1,1-0.3,1.9-0.4,2.9c-0.5,4.1-0.8,8.2-1.2,12.4c-1.9,22-3.4,44-5,66c-2.8,38.7-4.9,77.4-8.7,116.1
					c-1.3,13.6-2.7,27.1-4.6,40.6c-1.4,9.9-3.5,19.5-6.2,29.1c-2.9,10.3-4.8,20.7-5.9,31.4c-1.2,12-0.8,24,0.4,36
					c0.2,1.7,2.4-0.7,2.6-0.9c1.1-1.1,2.2-2.2,3.3-3.4c0.7-0.6,1.1-1.3,1.4-2.1c-0.3-4.5-0.5-9-0.7-13.5c-0.3-6,0-12,0.7-18
					c1.2-11.1,3.3-22.1,5.9-32.9c1-4.4,2.4-8.6,3.3-13c1.1-5.1,2-10.3,2.7-15.5c0.9-6.1,1.3-12.2,2-18.3c0.9-7.1,1.6-14.3,2.3-21.4
					c0.6-5.7,1.1-11.4,1.6-17.1c0.2-3.3,0.5-6.7,0.7-10c0.4-1.6,0.4-3.3,0.6-4.9c0.3-3.7,0.7-7.3,0.9-11c0.4-5.8,0.6-11.7,1-17.6
					c0.8-9.5,1.3-19,2-28.5c0.3-4.1,0.6-8.1,1-12.2c0.5-6.4,0.6-12.8,1.1-19.1c0.6-7.2,1.1-14.3,1.4-21.5c0.2-4.2,0.8-8.3,1.1-12.6
					c0.8-9.9,1.4-19.8,2-29.7c0.3-4.5,0.5-9.1,0.7-13.6c0.1-1.7,0.1-3.4,0.2-5.1c-0.4-3.5-0.9-7-1.3-10.5
					c-2.2-18.3-4.1-36.5-5.7-54.8c-0.8-8.9-2-17.7-2.2-26.7c-0.2-6-0.7-12-1-17.9c-0.3-5.9-0.7-11.8-1.2-17.7
					c-0.5-6.3-0.7-12.6-0.9-18.9c-0.7-16.1-1.6-32.2-2.5-48.4c-1.4-24-3.3-47.9-4.5-71.9c-0.1-1.7-2.5,0.9-2.6,1
					c-1.1,1.1-2.2,2.3-3.2,3.5C363.5,583.2,363.1,583.9,362.8,584.7z"/>
				<path class="st0" d="M363.6,588.6c3,39.1,5.5,78.2,7.3,117.4c1.2,26.4,2.6,52.8,5,79.1c1.7,19,3.7,38,6.1,56.9
					c0.7,5.4,1.9,11.8,1.4,17.2c-0.3,4.1-1,8.2-1.4,12.3c-2.1,21.9-3.5,44-5.1,65.9c-2.8,38.7-5,77.4-8.7,116.1
					c-1.3,13.6-2.7,27.1-4.6,40.6c-1.4,9.8-3.6,19.3-6.2,28.9c-2.9,10.4-4.9,20.8-6,31.6c-1.1,12.1-0.6,24.1,0.7,36.1
					c0.2,1.8,3.7-0.7,3.6-1.8c-1.2-10.7-1.8-21.3-1.1-32c0.7-11.2,2.9-22.2,5.8-33c1.1-4.3,2.5-8.5,3.5-12.9
					c1.2-5.1,2.1-10.2,3-15.3c2.1-13.1,3.3-26.4,4.7-39.6c4-40,6.2-80.2,9.1-120.4c0.5-7.2,1.1-14.4,1.5-21.5
					c0.2-4.2,0.7-8.4,1-12.5c0.8-9.8,1.5-19.7,2.4-29.5c0.4-4.9,0.9-9.8,1.5-14.8c0.2-1.2,0.3-2.5,0.4-3.7c-0.5-3.5-0.9-7-1.4-10.5
					c-2.3-18.3-4.4-36.6-6-54.9c-0.8-8.9-1.8-17.8-2.3-26.7c-0.3-6-0.8-12-1.1-17.9c-0.7-12.2-1.4-24.4-1.9-36.6
					c-1.8-40.1-4.5-80.2-7.3-120.3C367.3,584.9,363.6,587.5,363.6,588.6z"/>
				<path class="st0" d="M364.2,585.9c3,39.1,5.5,78.1,7.3,117.3c1.2,26.4,2.6,52.8,5,79.1c1.7,19,3.7,38,6.1,56.9
					c0.7,4.1,1.1,8.2,1.2,12.3c0.4,2.8,0.4,5.7-0.2,8.5c-0.5,4.5-0.9,9.1-1.3,13.6c-1.9,21.4-3.4,42.7-4.8,64.1
					c-1.2,18.9-2.6,37.8-3.9,56.7c-1.5,20.2-3,40.3-5,60.4c-1.3,13.1-2.5,26.3-4.6,39.3c-1.4,8.9-3.4,17.6-5.8,26.2
					c-2.9,10.3-4.9,20.7-5.9,31.4c-1.2,12.1-0.7,24,0.6,36.1c0.2,1.8,4.3-1.6,4.2-2.8c-1-10.7-1.6-21.3-0.8-32
					c0.8-11.1,3.1-22.1,5.8-32.9c1.1-4.3,2.4-8.5,3.4-12.9c1.1-5.1,2.1-10.2,2.9-15.3c1-6,1.5-12.1,2.3-18.2
					c0.9-7.1,1.6-14.3,2.3-21.4c1.1-10.7,2.1-21.4,2.9-32.1c0.8-9.5,1.3-19,2-28.5c0.7-9.5,1.3-19,2-28.5c0.3-4.1,0.6-8.1,0.9-12.2
					c0.5-6.4,0.7-12.7,1.2-19.1c0.5-7.2,1.2-14.3,1.5-21.5c0.2-4.2,0.7-8.3,1-12.5c0.8-9.8,1.5-19.7,2.3-29.5
					c0.4-4.5,0.8-8.9,1.2-13.4c0.1-1.7,0.3-3.4,0.5-5c-0.5-3.5-0.9-7-1.3-10.5c-2.3-18.3-4.3-36.6-5.9-54.9
					c-0.8-8.9-1.9-17.8-2.3-26.7c-0.2-6-0.8-12-1.1-17.9c-0.7-12.2-1.5-24.4-2-36.6c-1.8-40.1-4.6-80.2-7.2-120.2
					c-0.1-1.2-1.4-0.3-1.8,0C366.1,583.5,364.1,584.9,364.2,585.9z"/>
				<path class="st0" d="M357.7,583c3,39.1,5.5,78.2,7.4,117.3c1.3,26.4,2.6,52.8,4.9,79.1c1.7,19,3.7,38,6.1,57
					c0.6,4.8,1.2,9.6,1.9,14.3c-0.1,0.9-0.3,1.9-0.4,2.8c-0.5,4-0.9,8.1-1.3,12.1c-2,21.9-3.4,43.9-5,65.8c-2.7,38.7-5,77.4-8.7,116
					c-2.2,23.4-4.4,46.8-10.7,69.5c-2.9,10.3-4.9,20.7-5.9,31.4c-1.2,12.2-0.8,24.2,0.4,36.4c0.1,0.6,0.7,1,1.2,0.7
					c0.6-0.3,1.5-1.9,1.5-2.5c-0.9-10.9-1.2-21.8-0.3-32.8c0.9-11.2,3.1-22.2,5.9-33c1.1-4.3,2.3-8.5,3.2-12.8
					c1.1-5,2-10.1,2.8-15.2c2-13,3.2-26.2,4.5-39.3c3.9-40,6.2-80.1,9-120.2c0.8-11.4,1.6-22.7,2.4-34.1c0.7-9.7,1.4-19.5,2.2-29.2
					c0.3-4.3,0.7-8.6,1.1-12.9c0.1-1.6,0.3-3.1,0.4-4.7c-0.5-3.5-0.9-7-1.4-10.6c-2.3-18.4-4.3-36.8-6-55.2
					c-1.3-14.9-2.5-29.8-3.4-44.8c-0.7-12.1-1.3-24.3-1.9-36.4c-1.9-40.2-4.5-80.3-7.5-120.4c0-0.6-0.7-0.9-1.2-0.7
					C358.4,580.9,357.6,582.5,357.7,583z"/>
				<path class="st0" d="M358.7,585.1c2.7,39.1,5.4,78.3,7.3,117.5c1.3,26.4,2.6,52.8,5,79.1c1.7,19,3.7,38,6.1,56.9
					c0.7,5.3,2.1,12,1.5,17.2c-0.5,4.1-0.9,8.2-1.2,12.3c-1.9,22-3.4,44-5,66c-2.8,38.7-5,77.4-8.7,116c-2.3,23.4-4.4,47-10.8,69.7
					c-2.9,10.3-4.8,20.7-5.9,31.3c-1.2,12.1-0.8,24,0.5,36.1c0.2,1.7,2.3-1.1,2.3-1.1c0.9-1.2,1.7-2.3,2.5-3.6
					c0.5-0.6,0.8-1.3,1-2.1c-0.2-4.6-0.3-9.1-0.5-13.7c-0.2-6.1,0.2-12.1,0.8-18.1c1.2-11.1,3.4-22.1,5.9-32.9c1-4.4,2.3-8.6,3.2-13
					c1-5.1,2-10.3,2.7-15.4c0.8-6,1.3-12.1,2-18.2c0.8-7.1,1.6-14.3,2.3-21.4c1.2-11.7,2.1-23.4,3-35.1c0.4-4.4,0.7-8.8,0.9-13.2
					c0.3-6.5,0.9-13,1.3-19.5c0.6-8.4,1.1-16.8,1.8-25.2c0.3-4.4,0.7-8.8,1-13.2c0.3-5.8,0.5-11.6,1-17.4c0.2-2.2,0.3-4.5,0.5-6.7
					c0.4-5.3,0.7-10.6,0.8-15.9c0.6-3.5,0.8-6.9,1.1-10.4c0.7-10,1.5-19.9,1.9-29.9c0.2-4.2,0.3-8.5,0.5-12.7
					c0.2-5.8-0.9-11.6-1.6-17.3c-2.2-18.9-3.8-37.8-5.7-56.7c-0.4-3.8-0.8-7.7-1.2-11.5c-0.4-4.3-0.6-8.6-0.6-12.8
					c-0.3-5.9-0.8-11.9-1.1-17.8c-0.3-4.9-0.6-9.8-1-14.8c-0.5-6.3-0.7-12.6-0.9-18.9c-0.7-16.1-1.6-32.2-2.5-48.4
					c-1.4-24-3.3-48-4.5-72c-0.1-1.7-2.3,1.2-2.3,1.1c-0.8,1.1-1.6,2.3-2.4,3.5C359.1,583.6,358.8,584.3,358.7,585.1z"/>
				<path class="st0" d="M360.8,588.8c2.7,39.1,5.4,78.3,7.2,117.5c1.3,26.4,2.6,52.8,5,79.1c1.7,19,3.7,38,6.1,56.9
					c0.6,4.8,1.2,9.6,1.9,14.3c-0.1,1-0.3,1.9-0.4,2.9c-0.6,4.1-0.9,8.2-1.3,12.3c-2,22-3.4,44-5,66c-2.8,38.7-5,77.4-8.7,116
					c-1.3,13.5-2.7,27.1-4.6,40.6c-1.4,9.9-3.5,19.5-6.2,29.1c-2.9,10.3-4.9,20.7-5.9,31.4c-1.2,12.1-0.7,24.1,0.5,36.1
					c0.1,1.4,1.8,0,2.2-0.3c0.9-0.7,1.7-1.5,2.5-2.3c0.5-0.4,0.9-0.9,1-1.5c-0.4-4.5-0.7-9-0.9-13.5c-0.3-6-0.1-12,0.4-18
					c1-11.1,3.1-22.1,5.8-32.9c1.1-4.3,2.4-8.6,3.4-12.9c1.1-5.1,2.1-10.3,2.9-15.4c0.9-6.1,1.4-12.2,2.2-18.3
					c0.9-7.1,1.6-14.3,2.3-21.4c0.6-5.7,1.1-11.4,1.6-17.1c0.2-3.4,0.5-6.8,0.7-10.2c0.4-1.6,0.4-3.2,0.5-4.9c0.8-9.5,1.3-19,2-28.5
					c0.7-9.5,1.3-19,2-28.5c0.3-4.1,0.6-8.1,0.9-12.2c0.5-6.4,0.6-12.8,1.1-19.2c0.5-7.2,1.1-14.4,1.4-21.5
					c0.2-4.2,0.8-8.3,1.1-12.5c0.8-9.9,1.5-19.8,2.2-29.6c0.3-4.5,0.6-9.1,0.9-13.6c0.1-1.7,0.2-3.4,0.4-5.1
					c-0.4-3.5-0.9-7-1.3-10.5c-2.2-18.3-4.2-36.5-5.8-54.8c-0.8-8.9-2-17.8-2.3-26.7c-0.2-6-0.7-11.9-1.1-17.9
					c-0.3-5.9-0.7-11.8-1.2-17.7c-0.5-6.3-0.6-12.6-0.9-18.9c-0.7-16.1-1.6-32.2-2.5-48.4c-1.4-24-3.2-47.9-4.5-71.9
					c-0.1-1.4-1.9,0.1-2.2,0.3c-0.9,0.7-1.8,1.5-2.6,2.4C361.3,587.7,361,588.2,360.8,588.8z"/>
				<path class="st0" d="M362.6,583.3c3.3,40.1,5.7,80.4,7.5,120.6c1.3,27.1,2.8,54.1,5.3,81.2c1.8,19.7,4,39.4,6.6,59
					c0.3,2.3,0.6,4.6,0.9,6.8c-0.3,2.1-0.6,4.3-0.8,6.4c-0.5,4.5-0.9,9-1.3,13.6c-1.9,21.3-3.4,42.7-4.8,64.1
					c-2.6,39-5.1,78.1-8.9,117c-1.3,13.1-2.6,26.2-4.6,39.3c-1.5,9.5-3.8,18.7-6.3,28c-3.3,11.9-5.3,24.1-5.9,36.4
					c-0.5,9.9,0,19.7,1.1,29.5c0.2,2,2.8,0,2.7-1.1c-1.1-10.8-1.5-21.7-0.7-32.5c0.8-11.2,3-22.2,5.8-33c1.1-4.3,2.4-8.5,3.3-12.8
					c1.1-5,2.1-10.1,2.9-15.2c2.1-13,3.3-26.3,4.6-39.4c4-40,6.2-80.2,9.1-120.3c1.5-21.2,3-42.3,4.8-63.4c0.4-4.4,0.8-8.7,1.3-13.1
					c0.2-1.6,0.3-3.2,0.5-4.8c-0.5-3.5-0.9-7-1.4-10.5c-2.4-18.3-4.4-36.7-6-55.1c-1.4-14.9-2.5-29.8-3.4-44.7
					c-0.7-12.2-1.3-24.3-1.9-36.5c-1.9-40.1-4.3-80.2-7.5-120.3C365.2,580.3,362.5,582.2,362.6,583.3z"/>
				<path class="st0" d="M359.2,587.5c2.8,39.1,5.4,78.3,7.3,117.5c1.3,26.4,2.6,52.8,5,79.1c1.7,19,3.7,38,6.1,56.9
					c0.6,4.8,1.2,9.6,1.9,14.3c-0.1,1-0.3,1.9-0.4,2.9c-0.6,4.1-0.9,8.2-1.2,12.3c-2,22-3.4,44-5,66c-2.8,38.7-5,77.4-8.7,116
					c-2.3,23.4-4.4,47-10.8,69.7c-2.9,10.3-4.9,20.7-5.9,31.3c-1.2,12.1-0.8,24,0.5,36.1c0.2,1.6,2.3-0.7,2.4-0.9c1-1,2-2.1,2.9-3.2
					c0.6-0.6,1-1.2,1.2-2c-0.3-4.5-0.4-9-0.6-13.5c-0.3-6,0.1-12,0.7-18c0.7-6.2,1.7-12.5,2.8-18.6c0.9-4.8,2-9.5,3.1-14.3
					c1-4.4,2.4-8.6,3.3-13c1.1-5.1,2-10.3,2.7-15.5c0.9-6.1,1.3-12.2,2-18.3c0.9-7.1,1.6-14.3,2.3-21.4c0.6-5.7,1.1-11.4,1.6-17.1
					c0.2-3.4,0.5-6.7,0.7-10.1c0.4-1.6,0.4-3.3,0.6-4.9c0.3-3.7,0.7-7.3,0.9-11c0.4-5.8,0.6-11.7,1-17.6c0.8-9.5,1.3-19,2.1-28.5
					c0.3-4.1,0.6-8.1,1-12.2c0.5-6.4,0.6-12.8,1.1-19.1c0.6-7.2,1.1-14.3,1.4-21.5c0.2-4.2,0.8-8.3,1.1-12.5
					c0.8-9.9,1.4-19.8,2-29.7c0.3-4.5,0.4-9,0.6-13.6c0.1-1.7,0.1-3.4,0.2-5c-0.4-3.5-0.8-7-1.3-10.5c-2.2-18.3-4-36.6-5.7-54.9
					c-0.8-8.9-2-17.8-2.2-26.7c-0.1-6-0.7-12-1-17.9c-0.3-5.9-0.7-11.8-1.2-17.7c-0.5-6.3-0.7-12.6-0.9-18.9
					c-0.7-16.1-1.6-32.2-2.5-48.4c-1.4-24-3.3-47.9-4.5-71.9c-0.1-1.7-2.3,0.8-2.4,0.9c-1,1.1-1.9,2.2-2.8,3.3
					C359.7,586.1,359.4,586.8,359.2,587.5z"/>
				<path class="st0" d="M361,582.3c3.2,39.1,5.5,78.3,7.4,117.5c1.3,26.4,2.6,52.7,4.9,79.1c1.7,19,3.7,38,6.2,57
					c0.6,4.8,1.3,9.6,1.9,14.4c-0.2,1-0.3,1.9-0.5,2.9c-0.7,4-1,8.1-1.4,12.2c-2.1,21.9-3.5,43.9-5,65.9c-2.7,38.7-5.1,77.4-8.8,116
					c-2.2,23.3-4.3,47-10.9,69.6c-3,10.3-5,20.6-5.9,31.3c-1.1,12.2-0.7,24.2,0.7,36.3c0.2,1.5,2.3,0.8,2.2-0.4
					c-2.4-22.1-1.2-44.2,4.8-65.6c2.6-9.3,4.7-18.6,6.3-28.2c2.1-13,3.4-26.1,4.7-39.2c3.9-40,6.4-80.1,9.2-120.1
					c1.5-21.2,2.9-42.4,4.7-63.6c0.4-4.3,0.7-8.7,1.3-12.9c0.2-1.6,0.5-3.1,0.7-4.7c-0.5-3.5-1-7.1-1.4-10.6
					c-2.4-18.4-4.4-36.8-6.1-55.3c-2.5-27-4-54-5.3-81.1c-1.9-40.3-4.3-80.7-7.6-120.9C363,580.3,360.9,581.1,361,582.3z"/>
				<path class="st0" d="M357,583.9c2.9,41.4,5.7,82.8,7.6,124.2c1.5,31.2,3.5,62.4,6.6,93.5c0.9,9.3,2,18.5,3.1,27.7
					c0.6,5.2,1.3,10.4,2,15.6c0.3,2.3,0.6,4.6,0.9,6.9c-0.3,2.1-0.6,4.2-0.8,6.4c-0.2,2.1-0.4,4.3-0.6,6.4c-0.5,5.8-1,11.5-1.5,17.3
					c-1.7,22.4-3.2,44.9-4.8,67.3c-3.1,43.8-5.6,87.8-11,131.4c-1.3,10.6-3,21.1-5.6,31.4c-1.2,4.8-2.7,9.6-3.9,14.5
					c-1.1,4.6-2,9.2-2.7,13.8c-0.9,6.7-1.6,13.3-1.8,20.1c-0.3,8.6,0.2,17.1,1.1,25.6c0.1,0.7,0.5,1.1,1.2,0.7c0.7-0.4,2-2.6,2-3.5
					c-0.2-3.1-0.4-6.1-0.5-9.2c0-5.6,0-11.2-0.1-16.9c0.2-5.4,0.8-10.7,1.8-16c0.5-4.9,1.3-9.8,2.4-14.7c2-8.9,4.6-17.6,6.3-26.5
					c2-10.5,3.2-21.1,4.3-31.6c0.8-7.4,1.6-14.8,2.3-22.2c0.4-4.3,0.8-8.6,1.2-12.9c0.3-3.3,0.5-6.7,0.8-10c0.3-1.6,0.3-3.3,0.5-4.9
					c0.3-3.7,0.6-7.4,0.9-11c0.8-11.9,1.5-23.9,2.4-35.8c1.3-18.3,2.5-36.6,3.8-54.9c0.4-4.9,0.5-9.9,1-14.8
					c0.5-4.1,0.6-8.3,0.9-12.4c0.7-9.9,1.4-19.8,2.2-29.6c0.1-1.4,0.2-2.8,0.3-4.2c0.1-2.2,0.3-4.4,0.5-6.5
					c-0.3-2.3-0.6-4.5-0.9-6.8c-0.7-5.2-1.3-10.4-1.9-15.5c-2.1-18.1-3.8-36.3-5.5-54.5c-2.2-24.4-3.3-49-4.4-73.5
					c-0.8-16.5-1.7-33-2.7-49.5c-1.4-22.6-3.1-45.1-4.5-67.7c0-0.7-0.6-1.1-1.2-0.7C358.1,581.1,357,583.1,357,583.9z"/>
			</g>
		</g>
	</g>
</g>
<g>
	<path class="st1" d="M201.3,9.8c7,88,18.3,219.8,35.5,380.1c33.7,315,63.6,492.4,57.3,493.5c-7,1.3-54.7-216.6-90-462.3
		c-24.5-171-36.9-312.8-43.6-408.4"/>
	<path class="st2" d="M150.8,11.3c3.6,61.9,10.5,152,24.5,260.9c6,46.5,11.5,82.8,16.4,113.4C219.6,562.9,258,770.3,279,882"/>
	<path class="st3" d="M202.6,11.3c23.1,164.4,43.4,335.7,60,513.4c9.8,105.1,17.9,208.2,24.5,309.1c0.2,28.5,0.3,70.8,0,122
		c-0.5,94.7-0.8,142.1-2.7,195.7c-9.4,255.1-45.5,369.5-53.2,390c-1.1,2.9-5.5,14.3-9.8,30.2c-7.5,27.2-9.1,46.2-12,66.3
		c-2.5,17.5-6.9,42.3-15,72.3c6.4-3.8,12.7-7.6,19.1-11.3"/>
	<path class="st4" d="M313.1,15.5c21.7,161.2,40.4,330.6,54.5,507.7c9.8,122.6,17,241.8,21.8,357.4c-0.2,29.5-0.7,78.4-2.7,139
		c-3.3,97.1-7.1,125.3-13.6,258.1c-7.6,155.2-3.7,128.6-8.2,181.5c-4.2,49.6-10.3,103.8-8.2,181.5c0.6,22.9,1.8,41.7,2.7,53.9"/>
	<path class="st1" d="M705.5,21.8c-1.6,377.2-0.5,754.4,3.2,1131.5c2,198.3,4.7,396.7,8.1,595c-14.1,0-28.8-0.3-44.1-1.1
		c-13.2-0.7-26-1.6-38.2-2.8c-12.6,0.4-25.2,0.7-37.8,1.1c15-265.8,21.8-551.1,16.4-853.7c-5.6-312-23.7-605.2-49.5-877.4"/>
	<path class="st5" d="M353.5,15.5C382.7,291.3,412,567,441.3,842.8c-0.3,31.7-0.9,63.7-1.8,96c-1.6,64.6-4.1,125.3-8,197.8
		c-5.4,102.2-17,291.5-33.9,535.3c-17.3,6.6-34.5,13.2-51.8,19.9c18.4-221.8,31.3-406.7,40.2-546.6c6.2-98,13.4-180.7,9.8-291
		c-3.2-95.3-8.5-193.3-16.3-293.8C369,424.4,348,239,314.5,12.7"/>
	<g>
		<path class="st6" d="M149.5,12.7c12.9,151.7,28,278.5,40.9,374.4c13.3,98.8,24.7,168.6,27.3,184.4c19,115.7,38.6,213.1,54.5,286.5
			c7.9,140.4,6.3,310.8-19.1,502c-19.1,143.7-48,271.1-79.1,380.1c-7.4-3.9-18.1-8-30-5.7c-16,3.1-23.1,15.6-32.7,22.7
			c-12.9,9.5-36.7,13.8-84.5-8.5c24.4-71.1,54.4-164.4,84.5-275.1c14.7-53.8,36.3-133.6,57.3-235.4c19.4-93.9,41-219.8,54.5-371.5
			c-42.6-139.8-83.5-291.3-120-453.8C71.7,272.9,46.7,139.2,26.7,12.7"/>
		<g>
			<path class="st7" d="M145.4,13.8c9.8,115.7,22.2,231.2,37.2,346.3c12.2,93.8,26.2,187.4,42.6,280.5
				c10,56.7,20.9,113.2,32.6,169.5c2.5,11.8,5,23.7,7.5,35.5c2.6,12.2,3.5,23.9,4.1,36.4c1.3,26.9,2.1,53.8,2.6,80.7
				c2.1,124.8-4.4,249.8-19.8,373.7c-15.2,123.1-39,245-71.3,364.8c-3.5,13.1-7.2,26.3-10.9,39.4c2.6-0.7,5.2-1.4,7.8-2.1
				c-23-11.7-43.9-6.3-61.7,11.1c-6.6,6.4-12.8,11.4-22.1,12.8c-11.2,1.7-22.9-0.8-33.6-3.9c-7.3-2.1-14.4-4.8-21.3-7.7
				c-4.4-1.9-7.6-2.4-6.9-7.4c0.5-3.2,2.3-6.8,3.4-10c4.2-12.5,8.4-25,12.6-37.6c9.4-28.7,18.6-57.5,27.5-86.4
				c36.3-118.2,68.6-237.9,94.1-358.9c25.1-119.3,43.4-240.1,55.2-361.5c0.8-8.5,3.2-18.5,1.3-26.8c-1.7-7.8-4.7-15.6-7-23.3
				c-4.9-16.2-9.7-32.4-14.4-48.7c-9.5-32.8-18.8-65.6-27.8-98.5c-18.8-68.8-36.5-137.9-52.9-207.3C90.7,344.5,62.3,203.1,38.7,60.9
				c-2.7-16.4-5.4-32.9-8-49.3c-0.3-1.9-8.4-0.1-8.1,2.2c19.6,123.9,42.7,247.1,69.6,369.6c27.2,123.8,58.1,246.8,92.8,368.8
				c8,28.3,16.3,56.6,24.7,84.8c2,6.8,4.1,13.6,6.1,20.4c1,3.2,2.7,6.8,3.1,10.1c0.5,4.3-0.9,9.4-1.3,13.7
				c-1.6,17.1-3.3,34.3-5.2,51.4c-6.3,57.7-14.1,115.2-23.4,172.4c-16.8,103.2-38.8,205.5-65.2,306.7
				c-26.8,102.5-56.6,204.3-90.2,304.8c-3.6,10.9-7.3,21.8-11.1,32.7c-0.2,0.6,0.3,0.8,0.7,1c22.4,10.3,49.3,20.8,74.4,14.6
				c6.9-1.7,13.2-4.7,18.7-9.2c5.6-4.6,10.2-10.4,16.2-14.7c11.7-8.3,25.5-5.5,37.5,0.5c1.7,0.9,7.1,0.1,7.8-2.1
				c33.3-116.9,58.7-236.1,75.8-356.4c17.8-125.3,26.7-251.8,26.6-378.4c0-27.4-0.5-54.8-1.3-82.2c-0.8-25.3,0.1-51.8-5.3-76.5
				c-11.4-52.8-21.9-105.8-31.8-158.9c-18-97-33.2-194.5-46.5-292.3c-15-110.4-27.5-221.2-37.6-332.2c-1.5-16.9-3-33.8-4.5-50.7
				C153.3,9.8,145.2,11.3,145.4,13.8L145.4,13.8z"/>
		</g>
	</g>
	<path class="st8" d="M564,15.5c7.9,130.1,18.2,314.3,27.3,536c5.7,139.8,11.3,277.3,13.6,422.6c3,186.8,1.4,449.2-19.1,771.4"/>
	<path class="st9" d="M368.4,14.1C380.8,149.3,393,284.4,405,419.7c10.9,122,21.6,243.9,32.2,365.9c12.7,146.7-4.1,256.4-13.6,371.5
		c-11.6,140.8-33.3,324.5-76.4,538.9c2.1,7.8,5.8,12.1,8.2,14.2c11,10,31,9.3,49.1-2.8"/>
	<path class="st10" d="M481.9,14.1c-0.9,121.9,1.9,252.6,10.4,391.1c8.3,136,21,263.8,36.3,382.6c-17.2,316.1-34.5,632.3-51.7,948.4
		c-6.5,4.2-39.8,24.5-80.5,12.3c-28.6-8.6-45.6-28.6-51.9-36.8c5-23.3,12.6-59.2,20.9-103c27.9-147,84.4-452.8,75.1-835
		c-2.4-99.4-11.1-199.4-28.5-399.6c-12.9-148.8-26.3-272.6-36.3-359.9"/>
	<path class="st9" d="M472.6,14.1c10,230,27.4,465.1,53.2,704.8c2.7,24.7,5.4,49.2,8.2,73.7c-4,52.3-10.2,133.9-17.7,234
		c-25.5,341.6-21.5,304.2-24.5,334.7c-23.9,236.4-56.3,358.1-24.5,371.5c9.5,4,26.6-0.9,60-39.7"/>
	<path class="st11" d="M564,15.5c8.9,124.9,18.1,279.3,24.5,456.6c3.5,96.9,10.9,326.5,8.2,624c-1.5,162.9-6,352.6-16.4,564.4
		c-1.8,28.4-3.6,56.7-5.5,85.1c-13.3-7-33.9-15.1-57.3-11.3c-24.4,3.9-34.2,17.9-43.6,14.2c-26.5-10.5-3.5-128.6-3.5-128.6
		c18.2-93.1,40.1-314.2,63.5-838.5c-17.3-256.2-34.5-512.4-51.8-768.6"/>
	<path class="st1" d="M299.5,12.7c27.9,244.2,45.7,450.6,57.3,609.8c19,260.7,18.5,351.9,13.6,436.8
		c-4.3,75.8-10.5,118.6-16.4,246.7c-2.1,46.7-8.3,191.7-10.9,258.1c-0.8,19.9-2.2,39.7-2.7,59.6c-0.5,16.9-0.6,29.8-2.7,48.2
		c-1.7,14.4-3.8,26.2-5.5,34c-4.1,3.7-10.5,8.6-19.1,11.3c-19.3,6.2-35.5-2.3-49.1-5.7c-16.1-3.9-39.9-3.3-73.6,17
		c2.5-10.9,6.2-26.6,10.9-45.4c11.2-44.5,20.9-76.8,22-80.4c89.6-304.7,76.2-736.4,76.2-736.4c-3.1-100.1-24.8-274.7-68.2-624
		c-12.2-98-22.8-178.7-30-232.6"/>
	<g>
		<path class="st6" d="M663.2,30.6c13.9,208.7,24,425,29.5,648.6c8.6,351,4.8,685.6-8,1002.1"/>
		<g>
			<g>
				<g>
					<path class="st0" d="M613.6,80.1c2,8.3,3,16.8,3,25.3c0.3,9.2,0.7,18.3,1.3,27.5c0.8,15.4,1.8,30.9,2.7,46.3
						c2,34.3,3.8,68.5,5.6,102.8c3.5,69.7,6.6,139.4,9.2,209.1c5.1,139.9,8.4,279.9,9.8,419.9c2.7,270.9-2,541.9-13.4,812.6
						c-0.4,3.2,1,4.5,4.1,3.7c5.8-2.7,10.6-6.7,14.6-11.8c8.3-8.5,16.3-17.3,23.9-26.4c4.7-4.5,8.1-9.7,10.3-15.7
						c10.4-271.8,14-543.9,10.2-815.8c-2-140.4-5.6-280.9-11.3-421.2c-2.8-69.9-6.1-139.8-9.9-209.6c-1.7-31.2-3.5-62.5-5.3-93.7
						c-1.1-18.4-2.4-36.9-2.8-55.3c-0.1-5.9-0.1-11.8-0.2-17.7c1.3-10.5,1-20.9-0.8-31.2c0.3-3.2-1.1-4.4-4.3-3.6
						c-5.6,2.9-10.3,6.9-14.1,12.1c-7.9,8.7-15.5,17.7-22.8,26.9C618.7,68.8,615.5,74.1,613.6,80.1z"/>
					<path class="st0" d="M620.4,57.2c-0.1,9.2,0.1,18.5,0.6,27.7c0.4,9.1,0.9,18.2,1.4,27.3c0.9,15.5,1.8,30.9,2.7,46.4
						c2,34.3,3.9,68.5,5.6,102.8c3.5,69.7,6.6,139.3,9.2,209c5.1,139.9,8.4,279.9,9.8,419.9c2.7,270.9-2,541.9-13.4,812.5
						c0.3,2.6,1.8,3.7,4.4,3.4c4.2-1.5,7.5-4.2,10-8.1c5.3-6.1,10.3-12.4,14.9-19c3.2-3.3,5-7.2,5.5-11.6
						c10.7-271.2,14.6-542.6,11.2-814c-1.8-140.2-5.3-280.3-10.8-420.4c-2.8-69.8-5.9-139.5-9.6-209.3c-1.7-31.2-3.4-62.4-5.2-93.6
						c-1.1-18.5-2.5-37.1-3.2-55.6c-0.2-6-0.4-12.1-0.6-18.1c-0.3-11.8,0.1-23.6,1.4-35.4c-0.4-2.6-1.9-3.7-4.5-3.3
						c-4.1,1.6-7.4,4.4-9.8,8.3c-5.1,6.2-9.9,12.6-14.3,19.3C622.4,48.8,620.7,52.8,620.4,57.2z"/>
					<path class="st0" d="M628.6,73.8c1.1,8.7,1.8,17.5,2,26.2c0.3,9.1,0.7,18.2,1.2,27.3c0.8,15.4,1.8,30.9,2.6,46.3
						c2,34.3,3.9,68.5,5.6,102.8c3.5,69.7,6.6,139.4,9.2,209.1c5.2,139.9,8.5,279.9,9.9,419.9c2.7,271-1.9,542-13.3,812.7
						c-0.4,3,0.9,4.3,4,3.9c5.4-2.1,10-5.4,13.8-9.9c7.9-7.4,15.4-15,22.7-23c4.5-3.9,7.7-8.5,9.7-14
						c10.7-271.8,14.5-543.8,10.9-815.8c-1.8-140.4-5.4-280.9-11-421.2c-2.8-69.9-6-139.8-9.7-209.6c-1.7-31.2-3.4-62.5-5.2-93.7
						c-1.1-18.4-2.4-36.9-2.9-55.3c-0.1-5.9-0.2-11.8-0.3-17.7c0.7-10.7,0.7-21.4,0-32.2c0.3-3-1-4.3-4.1-3.8
						c-5.4,2.2-9.9,5.6-13.6,10.2c-7.7,7.5-15.1,15.4-22.2,23.5C633.6,63.6,630.4,68.3,628.6,73.8z"/>
					<path class="st0" d="M637.7,96.8c-2,9.5-2.5,19.1-1.4,28.7c0.6,9.1,1.2,18.2,1.6,27.3c0.9,15.5,1.9,30.9,2.8,46.4
						c2,34.3,3.8,68.5,5.5,102.8c3.5,69.7,6.5,139.4,9,209.1c5.1,139.9,8.2,279.9,9.5,419.9c2.5,270.9-2.4,541.9-14.1,812.6
						c0.3,2.1,1.4,3.6,3.4,4.5c2.6,0.7,5,0.1,7.2-1.8c3.7-2.3,7.2-4.9,10.5-7.9c2.4-1.6,3.6-3.7,3.7-6.4
						c11.6-268.1,16.5-536.5,14.2-804.9c-1.2-137.1-4.2-274.2-8.9-411.3c-2.4-70-5.4-140-8.8-209.9c-1.5-31.3-3.2-62.6-4.9-93.9
						c-2-36.3-4.3-72.5-6.1-108.8c-0.2,1-0.4,2-0.5,3c1.9-7.8,3.8-15.6,5.7-23.4c-0.2-2.2-1.3-3.7-3.3-4.5c-3-0.5-5.7,0.3-8.1,2.4
						c-4.3,2.7-8.4,5.7-12.3,9.1C639.6,91.4,638.1,93.8,637.7,96.8z"/>
					<path class="st0" d="M642.7,77.3c-2.8,9.8-3.5,19.7-2.3,29.7c0.6,9,1.1,18,1.5,27.1c0.9,15.5,1.8,30.9,2.7,46.4
						c2,34.3,3.8,68.5,5.6,102.8c3.5,69.7,6.5,139.3,9.1,209c5.1,139.9,8.3,279.9,9.6,419.9c2.5,270.9-2.2,541.9-13.8,812.6
						c0.3,2.2,1.5,3.6,3.7,4.2c3.3,0.1,6.1-1.1,8.4-3.6c4.4-3.4,8.6-7.1,12.4-11.1c2.7-2,4.3-4.7,4.5-7.9
						c11.3-268.1,15.9-536.5,13.3-804.9c-1.3-137.1-4.4-274.2-9.3-411.2c-2.5-70-5.5-139.9-9-209.9c-1.6-31.3-3.2-62.6-5-93.9
						c-2-36.1-4.5-72.2-5.5-108.3c-0.2,1.1-0.5,2.3-0.7,3.4c2.1-8.3,4.1-16.6,6.2-24.8c-0.2-2.3-1.4-3.7-3.7-4.2
						c-3.5,0.1-6.5,1.5-9,4.1c-4.8,3.7-9.4,7.8-13.6,12.1C644.9,71,643.2,73.8,642.7,77.3z"/>
					<path class="st0" d="M597.4,56.2c-1.9,10.5-2.3,20.9-1.2,31.4c0.6,9.1,1.2,18.2,1.7,27.3c0.9,15.4,1.9,30.9,2.8,46.4
						c2,34.2,3.9,68.5,5.6,102.7c3.5,69.6,6.6,139.2,9.2,208.9c5.1,139.8,8.4,279.6,9.8,419.5c2.6,270.7-2,541.4-13.5,811.8
						c-0.2,4.2,4.6,6.7,8.1,4.9c2.5-2.3,4.6-5,6.3-8c1.9-2.9,3.3-6,4.1-9.3c11.1-270.6,15.5-541.4,12.5-812.2
						c-1.5-139.9-4.9-279.8-10.3-419.6c-2.7-69.6-5.8-139.3-9.4-208.9c-1.6-31.2-3.3-62.3-5.1-93.4c-1.1-18.6-2.2-37.1-3.4-55.7
						c-0.4-6.2-0.8-12.3-1.1-18.5c-2.1-13.9-1.2-27.7,2.7-41.4c0-2.1-0.9-3.7-2.8-4.8c-1.9-1-3.7-1-5.5,0.2
						c-2.6,2.6-4.7,5.5-6.3,8.8C599.7,49.4,598.3,52.7,597.4,56.2z"/>
					<path class="st0" d="M600.8,76.3c1.1,8.7,1.8,17.4,2,26.2c0.3,9.2,0.8,18.3,1.3,27.5c0.9,15.4,1.8,30.9,2.7,46.3
						c2,34.3,3.8,68.5,5.6,102.8c3.5,69.7,6.6,139.3,9.2,209.1c5.1,139.9,8.4,279.9,9.8,419.9c2.6,270.9-2,541.8-13.5,812.5
						c0.2,2.9,1.7,4,4.5,3.3c4.8-2.5,8.6-6,11.5-10.7c6.2-7.7,12.1-15.7,17.6-23.9c3.6-4.1,5.9-8.9,6.8-14.1
						c10.4-271.4,14-543,10.2-814.5c-1.9-140.2-5.6-280.5-11.3-420.6c-2.8-69.8-6.1-139.6-9.9-209.4c-1.7-31.2-3.5-62.4-5.3-93.6
						c-1.1-18.4-2.4-37-3-55.4c-0.1-6-0.2-12-0.4-18c0.8-10.7,0.7-21.5-0.2-32.2c-0.3-2.8-1.9-3.9-4.6-3.2c-4.6,2.4-8.2,6-10.8,10.6
						c-5.7,7.6-11.1,15.5-16.2,23.6C603.4,66.5,601.4,71.1,600.8,76.3z"/>
					<path class="st0" d="M615.4,100.8c0.9,8.9,1.5,17.8,1.7,26.7c0.3,9.2,0.8,18.3,1.4,27.4c0.9,15.4,1.8,30.9,2.7,46.3
						c2,34.3,3.8,68.5,5.6,102.8c3.5,69.7,6.6,139.3,9.1,209c5.1,139.9,8.4,279.8,9.7,419.8c2.6,270.9-2.1,541.8-13.7,812.5
						c-0.1,2.6,1.1,4,3.7,4.2c4.3-0.6,8-2.6,11-5.8c6.1-4.8,12-10,17.5-15.4c3.6-2.6,6-6,7.2-10.2c11.1-271.7,15.3-543.7,12.2-815.7
						c-1.6-140.4-5-280.8-10.4-421.2c-2.7-69.9-5.8-139.8-9.4-209.6c-1.6-31.2-3.4-62.5-5.2-93.7c-1.1-18.5-2.4-37-3.1-55.5
						c-0.2-5.9-0.3-11.9-0.5-17.8c0.6-10.6,0.5-21.1-0.3-31.7c0.1-2.6-1.2-3.9-3.7-4.1c-4.3,0.7-8,2.7-11,6
						c-6.1,4.9-11.9,10.2-17.5,15.7C619,93.2,616.6,96.6,615.4,100.8z"/>
					<path class="st0" d="M636.6,53.1c-6.3,11.6-8.5,23.7-6.7,36c0.8,8.9,1.3,17.8,1.7,26.7c0.9,15.5,1.9,30.9,2.8,46.4
						c2,34.2,3.8,68.5,5.6,102.8c3.5,69.6,6.5,139.3,9.1,208.9c5.1,139.8,8.3,279.7,9.6,419.6c2.5,270.8-2.2,541.6-13.8,812.1
						c-0.2,2,0.5,3.6,2,4.9c1.5,1.4,3.2,1.8,5.1,1.4c2.6-1.5,4.9-3.4,6.8-5.8c2.1-2.2,3.7-4.6,4.9-7.4
						c11.5-270.9,16.1-542,13.5-813.1c-1.4-140-4.6-280.1-9.8-420c-2.6-69.7-5.6-139.4-9.2-209.1c-1.6-31.2-3.3-62.4-5.1-93.5
						c-1.1-18.6-2.2-37.2-3.3-55.7c-0.4-6.1-0.7-12.1-1.1-18.2c-3.4-15.5-0.7-30.3,8-44.5c0.3-2-0.3-3.7-1.9-5.1
						c-1.5-1.4-3.3-1.8-5.3-1.2c-2.8,1.7-5.3,3.9-7.4,6.6C639.7,47.3,637.9,50.1,636.6,53.1z"/>
					<path class="st0" d="M603.9,93c1.5,8.6,2.3,17.3,2.4,26c0.3,9.2,0.8,18.4,1.3,27.5c0.9,15.4,1.8,30.9,2.7,46.3
						c2,34.3,3.8,68.5,5.6,102.8c3.5,69.7,6.6,139.3,9.1,209c5.1,139.9,8.4,279.8,9.7,419.8c2.6,270.9-2.1,541.8-13.6,812.4
						c-0.1,2.9,1.3,4.1,4.1,3.8c5-1.9,9.1-5,12.4-9.3c6.9-7,13.5-14.2,19.8-21.7c4-3.7,6.7-8.1,8.1-13.2
						c10.6-271.7,14.3-543.6,10.7-815.5c-1.9-140.4-5.5-280.8-11.1-421.1c-2.8-69.9-6-139.7-9.8-209.6c-1.7-31.2-3.5-62.5-5.3-93.7
						c-1.1-18.4-2.4-36.9-2.9-55.3c-0.1-5.9-0.2-11.9-0.3-17.8c1.2-10.4,0.9-20.7-0.8-30.9c0-2.8-1.4-4.1-4.2-3.6
						c-4.8,1.9-8.8,5-11.9,9.3c-6.5,6.9-12.8,14.1-18.7,21.6C607.6,83.5,605.1,87.9,603.9,93z"/>
					<path class="st0" d="M624.8,45.6c-4.5,10.6-7.8,21.4-9.7,32.6c-1.1,5.3,0.2,10.5,3.9,15.5c0.5,6,1,12,1.5,18
						c0.5,9.3,1.1,18.5,1.7,27.8c2.1,34.2,3.9,68.3,5.7,102.5c3.6,69.5,6.7,139,9.3,208.5c5.4,143,8.8,286,10.1,429.1
						c2.6,274-2.2,548-14,821.7c-0.1,3,4.3,6.6,7.2,6.2c2-0.8,3.6-2,4.9-3.7c1.5-1.5,2.5-3.3,3-5.4c11.5-267.4,16.4-535.1,14-802.8
						c-1.2-136.8-4.2-273.7-9-410.4c-2.5-69.9-5.4-139.7-8.8-209.5c-1.5-31.2-3.2-62.5-4.9-93.7c-1-18.6-2.2-37.1-3.3-55.7
						c-0.4-6.2-0.7-12.4-1.1-18.6c0.9-11-1.4-21.2-7-30.5c-0.1,0.7-0.2,1.4-0.4,2.1c3.9-12.1,7.9-24.3,11.8-36.4
						c0.3-0.9,0.6-1.9,0.9-2.8c-0.3-0.7-0.5-1.5-0.8-2.2c-0.7-0.7-1.3-1.3-2-2c-1.1-1-2.3-1.4-3.7-1.3c-1-0.3-1.8,0-2.4,0.8
						c-1,0.6-1.9,1.4-2.5,2.4c-1,1-1.7,2-2.3,3.2C625.7,42.4,625.1,43.9,624.8,45.6z"/>
					<path class="st0" d="M591.6,65c-0.8,9.8-0.8,19.6,0,29.4c0.5,9.2,1,18.3,1.6,27.5c0.9,15.5,1.9,30.9,2.8,46.4
						c2,34.2,3.9,68.5,5.6,102.8c3.5,69.6,6.6,139.3,9.2,208.9c5.2,139.8,8.4,279.7,9.8,419.6c2.7,270.7-2,541.5-13.4,812
						c-0.5,2.3,0.3,4.2,2.2,5.5c2.1,1.1,4.1,0.9,5.9-0.6c3.2-3.3,5.8-7,8.1-11c2.5-3.9,4.5-7.9,5.9-12.3
						c10.9-270.7,15.1-541.7,11.9-812.6c-1.6-140-5.1-279.9-10.5-419.8c-2.7-69.7-5.8-139.3-9.5-209c-1.6-31.2-3.4-62.3-5.2-93.5
						c-1.1-18.6-2.3-37.1-3.4-55.7c-0.3-6.1-0.7-12.3-1-18.4c-1.2-12.9-0.7-25.7,1.5-38.5c0.4-2.4-0.4-4.2-2.4-5.4
						c-2.1-1-4.1-0.7-5.9,0.9c-3,3.4-5.6,7.2-7.6,11.3C594.7,56.5,592.8,60.6,591.6,65z"/>
				</g>
			</g>
		</g>
	</g>
	<g>
		<g>
			<g>
				<g>
					<path class="st0" d="M510.8,39.4c1.7,14.9,2.6,29.8,3.7,44.7c1.4,18.4,2.7,36.7,4,55.1c3.5,50.4,6.3,100.8,8.8,151.3
						c3.8,77.2,5.5,154.5,8.4,231.7c2.2,60,4.8,119.9,7.8,179.9c0.8,15.9,1.8,31.7,2.6,47.6c0.7,14.7,1.3,29.5,1.7,44.2
						c0.2,7.6,0.4,15.3,0.5,22.9c0.1,11.2,0.4,22.5,0.5,33.7c0.3,26.1-0.2,52.1-1.3,78.2c-1.9,44.4-5.6,88.7-8.2,133.1
						c-4.2,71.2-6.7,142.6-8.7,213.9c-0.7,25.6-1,51.3-1.6,76.9c-0.9,36.9-1.8,73.8-2.8,110.8c-1.5,58.6-3.2,117.2-6.3,175.8
						c-0.8,14.6-1.4,29.3-2.3,43.9c-0.9,13.4-1.6,26.8-2.5,40.2c-0.4,6.5,9.9-4.3,9.5-3.9c4.3-4.3,8.4-8.7,12.4-13.2
						c2.4-2.2,4.2-4.8,5.4-7.9c0.4-3.1,0.5-6,0.5-9.2c0-4.1,0.2-8,0.4-12.1c0.3-4.8,0.3-10,1.3-14.7c0.3-1.3,0.2-2.8,0.3-4.1
						c0.2-2.2,0.3-4.3,0.5-6.5c0.2-2.9,0.4-5.8,0.4-8.7c0.2-5.7-0.2-11.5,0-17.3c0.3-8.5,1-17,1.4-25.5c0.4-9,0.9-18.1,1.4-27.1
						c1.6-26.8,2.4-53.6,3.2-80.5c1-32.8,1.7-65.6,2.6-98.5c0.9-34.9,1.8-69.8,2.3-104.7c0.2-11.9,0-23.9,0.4-35.9
						c0-1.3,0.1-2.5,0.1-3.8c0.5-5,0.8-10.1,0.8-15.1c0.4-11.3,0.8-22.6,1.2-33.9c1.5-38.7,3.5-77.4,5.3-116.1
						c2.4-50.5,5.8-100.9,8-151.4c0.9-21.1,1.6-42.2,1.8-63.4c0.1-12.1,0.2-24.2,0.1-36.3c-0.1-6.8-0.2-13.6-0.6-20.4
						c-0.2-3.8-0.5-7.5-0.7-11.3c-0.1-3.1,0-6.3,0.1-9.4c0.2-3.8,0.4-7.6,0.2-11.5c-0.1-3.8-0.3-7.7-0.5-11.5
						c-0.3-7.1-0.6-14.3-0.9-21.4c-0.6-15.3-1.2-30.6-2.9-45.8c-0.5-4.2-0.8-8.1-0.9-12.3c-0.1-4.2-0.3-8.4-0.4-12.6
						c-0.3-9.6-0.7-19.2-1-28.8c-1.1-30.1-2.1-60.2-3.5-90.3c-1.1-23.8-2.3-47.5-3.1-71.3c-0.8-23.1-1.3-46.3-2.1-69.4
						c-1.3-42-2.8-84-5.1-126c-1.3-24.2-2.9-48.4-4.2-72.6c-1.4-25.7-2.9-51.5-4.6-77.2c-1.6-24.4-3.2-48.7-5-73.1
						c-0.6-8.4-1.4-16.8-2-25.2c-0.3-3.9-0.5-7.7-0.8-11.6c0.1-6.5-0.1-12.9-0.7-19.4c-0.4-6.3-9.2,4.5-9.2,4.5
						c-3.9,4.5-7.7,9.1-11.3,13.9C513.2,33.6,511.7,36.3,510.8,39.4z"/>
					<path class="st0" d="M513.5,28.7c2.2,33.4,5.1,66.8,7.4,100.2c3.5,50.4,6.3,100.8,8.8,151.3c3.9,77.2,5.5,154.5,8.4,231.7
						c2.3,60,4.8,119.9,7.8,179.8c0.4,8.4,0.7,16.8,1.3,25.2c0.5,7.5,1,14.9,1.3,22.4c0.7,14.7,1.3,29.5,1.7,44.2
						c0.2,7.6,0.4,15.3,0.5,22.9c0,11.3,0.4,22.5,0.5,33.7c0.3,26-0.2,52.1-1.4,78.1c-1.9,44.4-5.6,88.7-8.2,133
						c-4.2,71.2-6.6,142.5-8.8,213.8c-0.4,11.4-0.4,22.9-0.6,34.3c-0.3,14.2-0.6,28.5-0.9,42.7c-0.8,36.9-1.8,73.8-2.8,110.8
						c-1.5,58.6-3.2,117.2-6.3,175.7c-0.8,14.6-1.3,29.3-2.3,43.9c-0.3,4.2-0.7,8.4-0.9,12.6c-0.6,9.2-0.9,18.4-1.6,27.6
						c0.2,1.3,0.9,1.9,2.2,1.8c2.1-0.8,3.9-2.1,5.2-4.1c2.7-3.1,5.3-6.3,7.7-9.6c1.6-1.7,2.6-3.6,2.9-5.9c0.4-3.1,0.5-6,0.5-9
						c0.1-4,0.2-8,0.4-12c0.3-4.9,0.4-10,1.2-14.9c0.2-1.3,0.2-2.8,0.3-4.1c0.2-2.2,0.3-4.3,0.5-6.5c0.2-2.9,0.4-5.7,0.5-8.6
						c0.2-5.7,0-11.4,0.2-17c0.3-8.5,1-16.9,1.4-25.4c0.4-9,0.8-18.1,1.3-27.1c1.5-26.8,2.2-53.7,3-80.6c1-32.8,1.7-65.6,2.6-98.4
						c0.9-34.9,1.8-69.7,2.4-104.6c0.2-11.9,0.2-23.9,0.5-35.8c0.2-6.4,0.6-12.7,0.8-19.1c0.4-11.3,0.8-22.7,1.2-34
						c1.4-38.8,3.3-77.7,5.1-116.5c2.4-50.2,6-100.4,8.4-150.6c1-21,1.7-41.9,2-62.9c0.2-12,0.2-24,0.2-36.1
						c0-6.7-0.1-13.4-0.4-20.2c-0.3-6.9-0.8-13.8-0.6-20.8c0.1-3.8,0.3-7.6,0.2-11.5c-0.1-3.8-0.3-7.6-0.4-11.4
						c-0.3-7.1-0.5-14.2-0.8-21.3c-0.6-15.2-1-30.4-2.6-45.5c-0.9-8.3-1.1-16.6-1.4-24.9c-0.4-9.7-0.8-19.3-1.2-29
						c-1.2-30.2-2.3-60.3-3.6-90.5c-1.1-23.7-2.1-47.5-3-71.2c-0.8-23.2-1.4-46.3-2.1-69.5c-1.3-41.9-2.7-83.8-4.8-125.6
						c-1.2-24.1-2.7-48.2-4-72.4c-1.4-25.7-2.9-51.4-4.6-77.1c-1.6-24.4-3.2-48.7-5.1-73c-0.6-8.4-1.3-16.8-2-25.2
						c-0.3-3.9-0.6-7.8-1-11.7c-0.4-6.8-0.6-13.6-0.5-20.5c-0.2-1.3-1-1.8-2.3-1.6c-2.1,0.8-3.7,2.2-4.8,4.2c-2.5,3.1-4.8,6.4-7,9.8
						C514.4,24.5,513.6,26.5,513.5,28.7z"/>
					<path class="st0" d="M518,36.6c1.4,14.9,2.3,29.9,3.5,44.8c1.4,18.4,2.7,36.7,4,55.1c3.5,50.4,6.3,100.8,8.8,151.3
						c3.9,77.2,5.5,154.5,8.4,231.7c2.2,60,4.8,119.9,7.8,179.8c0.4,8.4,0.7,16.8,1.3,25.2c0.5,7.5,1,14.9,1.4,22.4
						c0.7,14.7,1.3,29.5,1.7,44.2c0.2,7.6,0.4,15.3,0.5,22.9c0.1,11.2,0.4,22.5,0.5,33.7c0.3,26-0.2,52.1-1.3,78.2
						c-1.9,44.4-5.6,88.7-8.2,133.1c-4.2,71.2-6.6,142.5-8.8,213.8c-0.4,11.4-0.4,22.9-0.7,34.3c-0.3,14.2-0.6,28.5-0.9,42.7
						c-0.8,36.9-1.8,73.8-2.8,110.8c-1.5,58.6-3.2,117.2-6.4,175.7c-0.8,14.7-1.3,29.3-2.3,44c-0.3,4.2-0.7,8.4-0.9,12.6
						c-0.6,9.2-0.9,18.4-1.6,27.6c-0.4,6.1,9.1-2.9,9.1-2.9c4-3.7,7.9-7.5,11.7-11.5c2.3-1.9,4-4.3,5-7c0.4-3.1,0.5-6,0.5-9.1
						c0-4.1,0.2-8,0.4-12.1c0.3-4.8,0.3-9.9,1.3-14.7c0.3-1.3,0.2-2.8,0.3-4.1c0.2-2.1,0.3-4.3,0.5-6.4c0.2-2.9,0.4-5.8,0.5-8.7
						c0.2-5.8-0.1-11.6,0.1-17.3c0.3-8.5,1-17,1.4-25.4c0.4-9,0.9-18.1,1.4-27.1c1.6-26.8,2.4-53.6,3.2-80.4
						c1-32.8,1.7-65.6,2.6-98.5c0.9-34.9,1.8-69.8,2.3-104.7c0.2-12,0-24,0.4-35.9c0-1.3,0.1-2.5,0.1-3.8c0.5-5,0.8-10.1,0.8-15.1
						c0.4-11.3,0.8-22.6,1.2-33.9c1.5-38.7,3.4-77.4,5.2-116.1c2.4-50.5,5.8-100.9,8.2-151.3c1-21.1,1.8-42.2,2.1-63.3
						c0.2-12.1,0.3-24.2,0.2-36.2c-0.1-6.8-0.1-13.6-0.5-20.4c-0.2-3.8-0.5-7.6-0.7-11.4c-0.1-3.1,0-6.3,0.1-9.4
						c0.2-3.8,0.4-7.6,0.2-11.4c-0.1-3.8-0.3-7.7-0.4-11.5c-0.3-7.1-0.6-14.3-0.9-21.4c-0.6-15.3-1.1-30.6-2.8-45.8
						c-0.5-4.2-0.8-8.1-0.9-12.3c-0.2-4.2-0.3-8.4-0.5-12.6c-0.3-9.6-0.7-19.2-1.1-28.8c-1.1-30.1-2.1-60.2-3.5-90.2
						c-1.1-23.8-2.2-47.5-3.1-71.3c-0.8-23.1-1.3-46.3-2.1-69.4c-1.3-42-2.7-84-4.9-126c-1.3-24.2-2.8-48.4-4.1-72.6
						c-1.4-25.7-2.9-51.5-4.5-77.2c-1.5-24.4-3.2-48.7-5-73c-0.6-8.4-1.3-16.8-2-25.2c-0.3-3.9-0.6-7.7-0.8-11.6
						c0-6.5-0.2-13-0.6-19.5c-0.3-5.9-8.6,3.1-8.9,3.4c-3.8,3.9-7.5,7.9-11,12.1C520.5,31.4,518.9,33.8,518,36.6z"/>
					<path class="st0" d="M521.1,49.5c1.6,14.9,2.6,29.8,3.8,44.8c1.4,18.4,2.7,36.7,4,55.1c3.5,50.4,6.3,100.8,8.8,151.3
						c3.8,77.2,5.3,154.5,8.2,231.7c2.3,59.9,4.8,119.9,7.8,179.8c0.8,15.9,1.9,31.8,2.6,47.6c0.7,14.7,1.3,29.5,1.7,44.2
						c0.2,7.6,0.4,15.2,0.4,22.8c0,11.3,0.4,22.5,0.5,33.8c0.2,26-0.3,52.1-1.5,78.1c-2.1,44.4-5.9,88.7-8.5,133
						c-4.3,71.2-6.6,142.5-8.6,213.8c-0.3,11.5-0.4,22.9-0.6,34.4c-0.3,14.2-0.6,28.5-0.9,42.7c-0.9,36.9-1.8,73.8-2.8,110.8
						c-1.5,58.6-3.1,117.2-6.4,175.7c-0.8,14.7-1.5,29.3-2.4,43.9c-0.3,4.2-0.7,8.4-0.9,12.6c-0.5,9.2-0.8,18.4-1.6,27.5
						c0.2,1.1,0.7,1.8,1.7,2.3c1.3,0.4,2.5,0.1,3.6-0.9c1.9-1.1,3.7-2.5,5.3-4c1.2-0.8,1.8-1.9,1.9-3.2c0.8-6.9,0.8-13.9,1.2-20.9
						c0.3-5,0.5-10,1-15c0.3-3.5,0.5-7,0.8-10.6c0.2-2.8,0.4-5.6,0.6-8.4c0.4-5.8,0.3-11.5,0.6-17.3c0.9-17.5,1.9-35,2.8-52.6
						c1.4-26.8,2.1-53.6,2.9-80.5c2-67.7,3.7-135.4,5-203c0.2-12,0.4-24,0.5-36c0.1-6.3,0.4-12.7,0.6-19c0.3-11.3,0.6-22.6,1-33.9
						c1.2-38.8,2.8-77.6,4.6-116.4c1.3-26.5,2.8-53,4.5-79.5c1.6-23.8,3.4-47.6,4.9-71.4c1.3-21,2.4-42,2.9-63.1
						c0.3-12,0.5-24.1,0.5-36.1c0-6.7,0.1-13.4-0.1-20.1c-0.2-7.1-0.6-14.1-0.5-21.2c0.2-14.7-0.3-29.4-0.9-44
						c-0.6-15.2-1-30.4-2.3-45.6c-0.7-8.3-1.1-16.7-1.5-25.1c-0.5-9.6-0.9-19.2-1.4-28.9c-1.4-30.1-2.6-60.2-3.9-90.3
						c-2-46.9-3.7-93.8-5.1-140.7c-1.3-41.9-2.5-83.9-4.3-125.8c-2.2-49.9-5-99.8-8.1-149.7c-1.5-24.4-3.2-48.7-5-73
						c-1.4-19-3.3-37.9-3.9-56.9c-0.1-1.1-0.7-1.8-1.7-2.2c-1.5-0.3-2.8,0.1-3.9,1.2c-2.1,1.3-4,2.8-5.8,4.5
						C521.9,46.9,521.2,48.1,521.1,49.5z"/>
					<path class="st0" d="M523.1,40.3c1.5,14.8,2.5,29.7,3.7,44.6c1.4,18.4,2.7,36.7,4,55.1c3.5,50.4,6.3,100.8,8.8,151.3
						c3.8,77.2,5.4,154.5,8.3,231.7c2.3,59.9,4.8,119.9,7.8,179.8c0.4,8.4,0.7,16.8,1.3,25.2c0.5,7.5,1,15,1.4,22.5
						c0.7,14.7,1.3,29.5,1.7,44.2c0.2,7.6,0.4,15.2,0.4,22.8c0,11.3,0.4,22.6,0.5,33.8c0.2,26-0.3,52.1-1.5,78.1
						c-2,44.4-5.8,88.7-8.4,133c-4.2,71.2-6.5,142.5-8.7,213.7c-0.4,11.5-0.4,22.9-0.6,34.4c-0.3,14.2-0.6,28.5-0.9,42.7
						c-0.8,36.9-1.8,73.8-2.8,110.8c-1.5,58.6-3.2,117.1-6.4,175.6c-0.8,14.7-1.4,29.3-2.4,44c-0.3,4.2-0.7,8.4-0.9,12.5
						c-0.6,9.2-0.8,18.4-1.6,27.6c0.1,1.1,0.8,1.8,1.9,2.1c1.6,0.1,3.1-0.5,4.3-1.8c2.3-1.7,4.4-3.5,6.3-5.6c1.4-1,2.2-2.3,2.3-4
						c0.8-6.9,0.7-14,1.1-21c0.3-5,0.4-9.9,1.1-14.9c0.5-3.5,0.5-7,0.8-10.5c0.2-2.8,0.4-5.6,0.6-8.5c0.3-5.8,0.2-11.5,0.4-17.3
						c0.4-8.5,1-16.9,1.4-25.4c0.5-9,0.9-18.1,1.4-27.1c1.4-26.8,2.2-53.6,3-80.4c2-67.7,3.8-135.4,5-203.1c0.2-12,0.3-24,0.5-36
						c0.1-6.3,0.5-12.6,0.7-19c0.3-11.3,0.7-22.6,1.1-33.9c1.3-38.8,3-77.6,4.8-116.3c1.3-26.5,2.8-53,4.5-79.5
						c1.5-23.8,3.2-47.6,4.6-71.4c1.2-21,2.2-42,2.6-63c0.3-12,0.4-24.1,0.4-36.1c0-6.7,0.1-13.4-0.2-20.1c-0.3-7-0.8-14-0.6-21.1
						c0.1-3.7,0.3-7.5,0.2-11.2c-0.1-3.8-0.2-7.6-0.3-11.5c-0.2-7.1-0.5-14.2-0.7-21.3c-0.6-15.2-0.9-30.5-2.4-45.6
						c-0.8-8.3-1.1-16.7-1.5-25c-0.4-9.6-0.9-19.2-1.3-28.8c-1.3-30.1-2.5-60.2-3.8-90.3c-2.1-46.9-3.7-93.8-5.1-140.7
						c-1.3-41.9-2.6-83.9-4.5-125.8c-1.1-24.2-2.5-48.4-3.8-72.5c-1.4-25.7-2.9-51.4-4.5-77.1c-1.5-24.3-3.2-48.7-5-73
						c-0.6-8.4-1.3-16.8-2-25.2c-0.3-3.9-0.7-7.8-1-11.8c-0.5-6.6-0.7-13.3-0.6-20c-0.1-1.1-0.8-1.8-1.9-2.1c-1.7,0-3.2,0.7-4.4,2.1
						c-2.3,1.9-4.6,3.9-6.6,6.1C524.1,37.1,523.3,38.6,523.1,40.3z"/>
					<path class="st0" d="M501.7,28.7c0,3.9-0.1,7.8-0.1,11.7c0.3,3.6,0.6,7.2,0.9,10.8c0.7,8,1.3,16,1.9,24
						c1.4,18.4,2.7,36.7,4,55.1c3.5,50.4,6.4,100.8,8.8,151.2c3.8,77.1,5.5,154.3,8.3,231.5c2.2,60,4.8,120,7.8,179.9
						c0.8,15.9,1.8,31.7,2.6,47.6c0.7,14.7,1.3,29.4,1.7,44.2c0.2,7.6,0.4,15.2,0.4,22.8c0,11.2,0.5,22.5,0.6,33.7
						c0.2,26-0.2,51.9-1.3,77.9c-1.9,44.3-5.6,88.4-8.3,132.7c-4.3,71.3-6.7,142.6-8.7,214c-0.3,11.4-0.4,22.9-0.7,34.3
						c-0.3,14.2-0.6,28.5-1,42.7c-0.9,36.9-1.8,73.9-2.8,110.8c-1.5,58.6-3.1,117.2-6.3,175.7c-0.8,14.6-1.5,29.2-2.4,43.8
						c-0.3,4.2-0.6,8.4-0.9,12.7c-0.5,9.1-0.9,18.3-1.6,27.4c-0.2,2.2,2.3,3.4,4.1,2.5c1.3-1.2,2.4-2.6,3.3-4.1
						c1-1.5,1.7-3.1,2.2-4.8c0.7-6.9,0.8-13.8,1.2-20.7c0.3-5,0.6-10,1-15c0.3-3.5,0.5-7.1,0.7-10.6c0.2-2.8,0.4-5.7,0.5-8.5
						c0.3-5.6,0.4-11.2,0.6-16.8c0.8-17.5,1.8-35,2.6-52.5c1.2-26.9,2-53.7,2.8-80.6c2-67.6,3.6-135.3,5.1-203
						c0.3-11.9,0.5-23.9,0.7-35.8c0.1-6.4,0.4-12.8,0.6-19.2c0.3-11.4,0.7-22.7,1-34.1c1.3-38.9,2.9-77.9,4.9-116.8
						c2.5-50,6.3-100,9-150c1.1-20.8,1.9-41.6,2.3-62.4c0.2-12,0.3-23.9,0.2-35.9c0-6.6,0-13.3-0.2-19.9c-0.2-7-0.5-13.9-0.6-20.8
						c-0.1-14.7-0.5-29.3-1.1-44c-0.6-15.1-1.1-30.2-2.2-45.3c-1.4-18-1.9-36.1-2.8-54.1c-1.4-30.2-2.7-60.4-3.9-90.7
						c-2-46.9-3.6-93.8-5.1-140.7c-1.3-41.8-2.7-83.6-4.6-125.3c-2.3-49.8-5.1-99.5-8.3-149.2c-1.6-24.3-3.3-48.7-5.1-73
						c-0.6-8.4-1.3-16.8-2-25.2c-0.3-3.9-0.7-7.8-1-11.8c-1.3-7.7-1.2-15.4,0-23.1c0.2-2.2-2.6-3.2-4.2-2.3c-1.2,1.3-2.2,2.7-3,4.3
						C502.7,25.3,502.1,27,501.7,28.7z"/>
					<path class="st0" d="M504,37.7c1.3,15,2.3,30,3.5,44.9c1.4,18.4,2.7,36.7,4,55.1c3.5,50.4,6.3,100.8,8.8,151.3
						c3.8,77.2,5.5,154.5,8.4,231.7c2.2,60,4.8,119.9,7.8,179.9c0.8,15.9,1.9,31.7,2.6,47.6c0.7,14.7,1.3,29.5,1.7,44.2
						c0.2,7.6,0.4,15.3,0.5,22.9c0.1,11.2,0.4,22.5,0.5,33.7c0.3,26-0.2,52.1-1.4,78.1c-2,44.4-5.6,88.7-8.3,133
						c-4.2,71.2-6.7,142.6-8.7,213.9c-0.7,25.6-1,51.3-1.6,76.9c-0.9,36.9-1.8,73.8-2.8,110.8c-1.5,58.6-3.2,117.2-6.3,175.8
						c-0.8,14.6-1.4,29.3-2.3,43.9c-0.9,13.4-1.6,26.8-2.5,40.2c0.1,1.5,0.8,2,2.2,1.7c2.5-1.2,4.4-3,5.9-5.4
						c3.2-3.9,6.3-7.9,9.2-12.1c1.9-2.1,3.1-4.5,3.6-7.2c0.4-3.1,0.5-5.9,0.5-9c0-4.1,0.2-8,0.4-12c0.3-4.9,0.3-10,1.2-14.8
						c0.3-1.3,0.2-2.8,0.3-4.1c0.2-2.2,0.3-4.3,0.5-6.5c0.2-2.9,0.4-5.7,0.5-8.6c0.2-5.7-0.1-11.4,0.1-17.1c0.3-8.5,1-16.9,1.4-25.4
						c0.4-9,0.8-18.1,1.4-27.1c1.5-26.8,2.3-53.7,3.1-80.5c1-32.8,1.7-65.6,2.6-98.5c0.9-34.9,1.8-69.8,2.3-104.6
						c0.2-11.9,0.1-23.9,0.4-35.8c0-1.3,0.1-2.5,0.1-3.8c0.5-5.1,0.8-10.1,0.8-15.2c0.4-11.3,0.8-22.6,1.2-33.9
						c1.5-38.8,3.5-77.6,5.3-116.3c2.4-50.3,5.8-100.6,8-150.9c0.9-21,1.6-42,1.8-63c0.1-12,0.2-24.1,0.1-36.1
						c-0.1-6.7-0.1-13.5-0.5-20.2c-0.2-3.7-0.5-7.5-0.7-11.2c-0.1-3.2-0.1-6.3,0.1-9.5c0.1-3.8,0.3-7.6,0.2-11.5
						c-0.1-3.8-0.3-7.6-0.4-11.4c-0.3-7.1-0.6-14.2-0.9-21.3c-0.6-15.2-1.1-30.5-2.8-45.6c-0.5-4.2-0.8-8.1-0.9-12.3
						c-0.2-4.2-0.3-8.4-0.5-12.7c-0.4-9.6-0.7-19.3-1.1-28.9c-1.1-30.1-2.1-60.3-3.5-90.4c-1.1-23.7-2.2-47.5-3-71.2
						c-0.8-23.1-1.4-46.3-2.1-69.4c-1.3-41.9-2.8-83.8-5-125.7c-1.3-24.1-2.8-48.3-4.2-72.4c-1.4-25.7-3-51.4-4.6-77.1
						c-1.6-24.3-3.2-48.7-5.1-73c-0.6-8.4-1.3-16.8-2-25.2c-0.3-3.9-0.6-7.8-0.9-11.6c-0.1-6.6-0.3-13.1-0.6-19.7
						c-0.2-1.4-1-1.9-2.4-1.5c-2.3,1.3-4.1,3.1-5.3,5.5c-2.8,3.9-5.4,7.9-7.9,12.1C505.2,32.8,504.3,35.1,504,37.7z"/>
					<path class="st0" d="M511.4,50.3c7,83.7,12.1,167.5,16.3,251.4c3.8,77.2,5.4,154.5,8.3,231.7c2.2,60,4.8,119.9,7.8,179.9
						c0.8,15.9,1.9,31.7,2.6,47.6c0.7,14.7,1.3,29.5,1.7,44.2c0.2,7.6,0.4,15.3,0.5,22.9c0,11.2,0.4,22.5,0.5,33.7
						c0.3,26-0.2,52.1-1.4,78.1c-2,44.4-5.7,88.6-8.3,133c-4.2,71.2-6.6,142.6-8.7,213.9c-0.7,25.6-1,51.3-1.6,77
						c-0.9,36.9-1.8,73.8-2.8,110.8c-1.5,58.6-3.2,117.2-6.4,175.7c-0.8,14.6-1.4,29.3-2.4,43.9c-0.3,4.2-0.6,8.4-0.9,12.6
						c-0.6,9.2-0.9,18.4-1.6,27.6c-0.1,1.3,0.5,2,1.8,2.1c2.2-0.3,4-1.3,5.6-2.9c3.1-2.4,6.1-5,9-7.7c1.8-1.3,3.1-3,3.7-5.1
						c0.4-3.1,0.5-5.9,0.5-9c0.1-4.1,0.2-8.1,0.5-12.1c0.3-4.8,0.3-10,1.2-14.7c0.3-1.3,0.2-2.8,0.3-4.1c0.2-2.1,0.3-4.3,0.5-6.4
						c0.2-2.9,0.4-5.7,0.5-8.6c0.3-5.8,0-11.6,0.2-17.4c0.4-8.5,1-16.9,1.4-25.4c0.5-9,0.9-18.1,1.4-27.1
						c1.6-26.8,2.3-53.6,3.1-80.4c1-32.8,1.7-65.6,2.6-98.5c0.9-34.9,1.8-69.8,2.3-104.7c0.2-12,0.1-24,0.4-36
						c0.1-6.3,0.6-12.6,0.8-18.9c0.4-11.3,0.7-22.6,1.1-33.9c1.4-38.7,3.2-77.4,5-116.1c2.4-50.5,6-100.9,8.7-151.3
						c1.1-21.1,2-42.2,2.4-63.3c0.2-12.1,0.4-24.1,0.3-36.2c0-6.8,0-13.5-0.4-20.3c-0.2-3.8-0.5-7.7-0.7-11.5
						c-0.1-3.2-0.1-6.3,0.1-9.5c0.1-3.8,0.4-7.5,0.2-11.3c-0.1-3.8-0.2-7.7-0.4-11.5c-0.2-7.1-0.5-14.3-0.8-21.4
						c-0.6-15.3-1-30.6-2.6-45.8c-0.9-8.3-1.1-16.6-1.4-25c-0.4-9.6-0.8-19.2-1.1-28.8c-1.2-30.1-2.3-60.1-3.6-90.2
						c-1.1-23.8-2.2-47.6-3-71.3c-0.8-23.1-1.4-46.2-2.1-69.4c-1.3-42-2.6-84-4.7-125.9c-1.2-24.2-2.7-48.4-4-72.7
						c-1.4-25.7-2.9-51.4-4.5-77.2c-1.5-24.3-3.2-48.7-5-73c-0.6-8.4-1.3-16.8-2-25.2c-0.3-3.9-0.6-7.8-0.9-11.7
						c-0.1-6.5-0.4-12.9-0.7-19.4c0-1.3-0.6-2-1.9-2.1c-2.2,0.4-4,1.5-5.5,3.2c-3,2.6-6,5.3-8.7,8.2
						C513.1,46.4,511.9,48.2,511.4,50.3z"/>
					<path class="st0" d="M519.1,29.7c-0.1,3.7-0.3,7.5-0.4,11.2c0.3,3.6,0.7,7.2,1,10.7c0.7,8,1.3,16,1.9,24
						c1.4,18.3,2.7,36.7,4,55.1c3.5,50.4,6.3,100.8,8.8,151.2c3.8,77.2,5.3,154.4,8.2,231.6c2.3,60,4.8,119.9,7.8,179.8
						c0.8,15.9,1.9,31.8,2.6,47.7c0.7,14.7,1.3,29.4,1.7,44.2c0.2,7.6,0.4,15.1,0.4,22.7c0,11.3,0.5,22.6,0.6,33.8
						c0.1,26-0.3,52-1.5,77.9c-2,44.3-5.8,88.5-8.4,132.8c-4.3,71.2-6.6,142.5-8.7,213.9c-0.3,11.5-0.4,22.9-0.6,34.4
						c-0.3,14.2-0.6,28.5-0.9,42.7c-0.9,36.9-1.8,73.9-2.8,110.8c-1.5,58.6-3.1,117.1-6.4,175.6c-0.5,8.8-0.7,17.6-1.3,26.3
						c-0.4,5.9-0.8,11.7-1.1,17.6c-0.3,4.2-0.6,8.5-0.8,12.7c-0.6,9.1-0.9,18.3-1.7,27.4c-0.2,1.9,1.6,3.7,3.6,3.2
						c1.3-0.7,2.5-1.7,3.5-2.9c1.1-1.1,1.9-2.4,2.5-3.8c0.6-7,0.7-13.9,1.2-20.9c0.3-5,0.6-10,1-15c0.2-3.5,0.5-7.1,0.7-10.6
						c0.2-2.8,0.4-5.6,0.6-8.4c0.4-5.7,0.4-11.3,0.7-17c0.8-17.5,1.9-35,2.7-52.5c1.3-26.8,2-53.7,2.8-80.6
						c2-67.7,3.7-135.3,5.1-203c0.3-12,0.5-23.9,0.6-35.9c0.3-17.7,1-35.5,1.6-53.2c1.2-38.9,2.8-77.8,4.7-116.6
						c1.3-26.5,2.9-52.9,4.6-79.4c1.5-23.6,3.3-47.3,4.7-70.9c1.2-20.9,2.2-41.7,2.6-62.6c0.2-12,0.4-24,0.3-36
						c0-6.6,0.1-13.3-0.1-19.9c-0.2-7-0.5-14-0.5-21c0-14.7-0.5-29.3-1-44c-0.6-15.1-1-30.3-2.2-45.4c-1.4-18-2-36-2.8-54.1
						c-1.4-30.2-2.7-60.3-4-90.5c-2-46.9-3.6-93.8-5.1-140.7c-1.3-41.8-2.6-83.7-4.4-125.5c-2.2-49.8-5-99.6-8.1-149.4
						c-1.6-24.3-3.2-48.7-5.1-73c-0.6-8.4-1.3-16.8-1.9-25.2c-0.3-3.9-0.7-7.9-1-11.8c-1.5-7.4-1.4-14.8,0.3-22.2
						c0.2-2-1.7-3.7-3.7-3.1c-1.4,0.9-2.6,2-3.7,3.3C520.6,26.8,519.7,28.2,519.1,29.7z"/>
					<path class="st0" d="M505.7,46.1c1.4,15,2.4,30,3.6,44.9c1.4,18.4,2.7,36.7,4,55.1c3.5,50.4,6.3,100.8,8.8,151.3
						c3.8,77.2,5.5,154.5,8.3,231.7c2.2,60,4.8,119.9,7.8,179.9c0.8,15.9,1.8,31.7,2.6,47.5c0.7,14.7,1.3,29.5,1.7,44.2
						c0.2,7.6,0.4,15.3,0.5,22.9c0.1,11.2,0.4,22.5,0.5,33.7c0.3,26-0.2,52.1-1.4,78.1c-2,44.4-5.7,88.6-8.3,133
						c-4.2,71.3-6.7,142.6-8.7,213.9c-0.7,25.6-1,51.3-1.6,76.9c-0.9,36.9-1.8,73.8-2.8,110.8c-1.5,58.6-3.2,117.2-6.3,175.8
						c-0.8,14.6-1.4,29.3-2.3,43.9c-0.9,13.4-1.6,26.8-2.5,40.2c-0.1,1.5,0.6,2.1,2.1,1.9c2.5-0.9,4.7-2.5,6.4-4.6
						c3.6-3.5,7-7.1,10.2-10.9c2.1-1.8,3.5-4.1,4.2-6.6c0.4-3.1,0.5-5.9,0.5-9.1c0-4.1,0.2-8,0.4-12.1c0.3-4.8,0.3-10,1.3-14.7
						c0.3-1.3,0.2-2.8,0.3-4.1c0.2-2.1,0.3-4.3,0.5-6.4c0.2-2.9,0.4-5.7,0.5-8.6c0.2-5.8-0.2-11.6,0.1-17.3c0.3-8.5,1-17,1.4-25.4
						c0.4-9,0.9-18.1,1.4-27.1c1.6-26.8,2.4-53.6,3.2-80.4c1-32.8,1.7-65.6,2.6-98.5c0.9-34.9,1.8-69.8,2.3-104.7
						c0.2-12,0.1-24,0.4-35.9c0-1.3,0.1-2.5,0.1-3.8c0.5-5,0.8-10.1,0.8-15.1c0.4-11.3,0.8-22.6,1.2-33.9
						c1.5-38.7,3.4-77.4,5.2-116.2c2.4-50.5,5.8-100.9,8.2-151.3c1-21.1,1.7-42.2,2-63.3c0.2-12.1,0.3-24.1,0.2-36.2
						c-0.1-6.8-0.1-13.6-0.5-20.3c-0.3-3.8-0.5-7.6-0.8-11.4c-0.1-3.2,0-6.3,0.1-9.5c0.1-3.8,0.4-7.6,0.2-11.4
						c-0.1-3.8-0.3-7.7-0.4-11.5c-0.3-7.1-0.6-14.2-0.9-21.4c-0.6-15.3-1.1-30.6-2.8-45.8c-0.5-4.2-0.8-8.1-0.9-12.3
						c-0.2-4.2-0.3-8.4-0.5-12.6c-0.3-9.6-0.7-19.2-1-28.8c-1.1-30.1-2.1-60.2-3.5-90.3c-1.1-23.8-2.2-47.5-3.1-71.3
						c-0.8-23.1-1.3-46.3-2.1-69.4c-1.3-42-2.8-84-5-125.9c-1.3-24.2-2.8-48.4-4.2-72.6c-1.4-25.7-2.9-51.4-4.6-77.2
						c-1.5-24.3-3.2-48.7-5-73c-0.6-8.4-1.3-16.8-2-25.2c-0.3-3.9-0.6-7.7-0.8-11.6c0.1-6.4-0.2-12.9-0.7-19.3c0-1.4-0.8-2-2.2-1.8
						c-2.4,1-4.4,2.7-5.9,4.9c-3.3,3.6-6.3,7.4-9.3,11.3C507.5,41.3,506.3,43.5,505.7,46.1z"/>
					<path class="st0" d="M512.3,27.7c0,3.9-0.1,7.9-0.1,11.8c0.6,3.3,1.1,6.6,1.7,9.9c0.3,3.9,0.6,7.8,0.9,11.7
						c0.3,4.1,0.7,8.2,1,12.3c1.5,18.4,2.8,36.7,4,55.1c3.5,50.4,6.4,100.8,8.8,151.3c3.6,77.2,5.4,154.4,8.2,231.6
						c2.2,60,4.8,120,7.9,180c1.6,30.5,3.3,61,4.1,91.6c1.2,44.9,1.5,89.8-0.6,134.6c-2.1,44.3-5.9,88.5-8.5,132.7
						c-4.3,71.3-7,142.8-8.5,214.2c-1.3,62.5-2.9,125-4.5,187.5c-1.5,58.7-3.1,117.3-6.2,175.9c-1.5,28-3.2,56-5,84
						c-0.1,1.5,2.1,3.4,3.6,3.2c1.6-0.2,4-3,4.1-4.5c1.6-23.9,3-47.8,4.3-71.8c1-17.6,1.9-35.2,2.7-52.8c1.2-27,1.9-54.1,2.7-81.2
						c1.9-67.6,3.6-135.2,5.2-202.8c1.6-68.7,3.4-137.3,6.8-206c1.3-26.4,2.9-52.7,4.6-79c1.6-23.6,3.4-47.1,4.8-70.7
						c1.3-20.9,2.2-41.8,2.7-62.7c0.5-25.5,0.4-50.9-0.1-76.4c-0.5-29.9-1.6-59.8-3.2-89.6c-2.5-48.3-5-96.7-7-145
						c-1.9-46.9-3.6-93.7-5.1-140.6c-1.3-41.8-2.6-83.6-4.4-125.4c-2.1-49.8-4.8-99.5-8-149.2c-1.6-24.4-3.3-48.8-5.1-73.2
						c-0.6-8.4-1.3-16.8-2-25.1c-0.3-3.9-0.6-7.8-0.9-11.7c-2.4-7.2-2.8-14.6-1.3-22.1c0.1-1.6-2.6-3.1-3.9-2.8
						C514.4,22.9,512.3,26.1,512.3,27.7z"/>
					<path class="st0" d="M498.8,33.1c0.6,15.2,2,30.4,3.2,45.6c1.4,18.4,2.7,36.7,4,55.1c3.5,50.4,6.4,100.8,8.9,151.2
						c3.8,77.2,5.5,154.4,8.4,231.6c2.2,60,4.8,120,7.8,179.9c0.8,15.9,1.9,31.7,2.6,47.6c0.7,14.7,1.3,29.4,1.7,44.2
						c0.2,7.6,0.4,15.2,0.5,22.8c0,11.2,0.5,22.5,0.6,33.7c0.2,26-0.2,52-1.3,78c-1.9,44.3-5.6,88.5-8.2,132.8
						c-4.3,71.3-6.7,142.6-8.8,214c-0.3,11.4-0.4,22.9-0.7,34.3c-0.3,14.2-0.6,28.4-1,42.7c-0.9,36.9-1.8,73.8-2.8,110.8
						c-1.5,58.6-3.1,117.2-6.3,175.7c-0.8,14.6-1.4,29.2-2.4,43.9c-0.3,4.2-0.6,8.4-0.9,12.7c-0.5,9.1-0.9,18.3-1.6,27.4
						c-0.2,2.6,1.8,4,4.1,2.5c1.6-1.7,3.1-3.6,4.2-5.7c1.3-2,2.4-4.1,3.2-6.3c0.7-6.9,0.7-13.8,1.1-20.8c0.3-5,0.5-10,1-15
						c0.4-3.5,0.5-7.1,0.7-10.6c0.2-2.8,0.4-5.7,0.5-8.5c0.3-5.6,0.3-11.2,0.5-16.9c0.8-17.5,1.8-35,2.6-52.5
						c1.3-26.9,2.1-53.8,2.8-80.6c2-67.7,3.7-135.3,5.1-203c0.2-11.9,0.4-23.9,0.6-35.8c0.1-6.4,0.5-12.8,0.7-19.2
						c0.3-11.4,0.7-22.7,1.1-34.1c1.3-38.9,3.1-77.8,5-116.7c2.5-50.1,6.2-100.1,8.8-150.2c1.1-20.8,1.8-41.7,2.1-62.5
						c0.2-12,0.2-24,0.2-35.9c0-6.7,0-13.3-0.2-20c-0.2-6.9-0.6-13.8-0.6-20.8c0.1-14.7-0.5-29.4-1.1-44
						c-0.6-15.1-1.1-30.3-2.3-45.3c-0.7-8.3-1-16.6-1.4-25c-0.4-9.7-0.9-19.4-1.3-29.1c-1.3-30.2-2.5-60.4-3.8-90.6
						c-2-46.9-3.6-93.8-5.1-140.7c-1.3-41.8-2.7-83.6-4.7-125.4c-2.3-49.8-5.2-99.5-8.4-149.2c-1.6-24.3-3.3-48.7-5.1-73
						c-0.6-8.4-1.3-16.8-2-25.2c-0.3-3.9-0.7-7.8-1-11.7c-0.8-7.2-1-14.3-0.6-21.5c0-2.5-2.2-3.7-4.2-2.2c-1.4,1.7-2.6,3.5-3.6,5.5
						C500.2,28.9,499.3,31,498.8,33.1z"/>
				</g>
			</g>
		</g>
	</g>
	<g>
		<g>
			<g>
				<g>
					<path class="st0" d="M83.7,54.1c1.8,8.7,2.8,17.4,2.9,26.3c0.8,10.2,1.7,20.4,2.7,30.6c1.6,17,3.4,33.9,5.2,50.8
						c2.2,20.3,4.5,40.5,7.1,60.8c1.5,12.1,3.3,24.1,5,36.2c9.4,67.6,19.7,135.1,31.8,202.2c12.5,69.7,27.1,139.2,43,208.2
						c18.8,81.7,40,162.8,63.1,243.4c0.2-1.7,0.3-3.4,0.5-5c-8.2,35.7-12.7,72-17.1,108.3c-4.7,39.1-9.4,78.1-14.7,117.1
						c-5.6,40.8-12,81.4-18.6,122c-5.9,36.3-11.5,72.7-17.3,109c-7.5,46.8-15.3,93.7-26.8,139.7c-3.4,13.5-6.5,27.1-10.1,40.6
						c-5,18.7-10.3,37.4-15.9,55.9c-13.5,44.9-28.9,89.1-45.4,132.9c-1.1,2.4-0.3,3.7,2.3,3.8c5.1-0.8,9.7-2.7,13.9-5.7
						c8.3-4.7,16.5-9.6,24.5-14.9c4.7-2.4,8.5-5.6,11.5-9.7c16-44.8,31-90,43.9-135.8c4.1-14.4,8.1-28.9,11.8-43.5
						c2.3-8.8,4.5-17.7,6.5-26.6c1.9-8.5,3.5-17.1,5-25.7c1.6-7.8,3.4-15.6,5-23.4c2.3-11.1,4.5-22.2,6.6-33.3
						c4.4-23.3,8.6-46.7,12.2-70.2c4.9-32.1,9.3-64.2,14.2-96.2c6.4-41.6,12.8-83.1,17.9-124.9c4.8-39.2,8.8-78.5,12.6-117.8
						c1.6-16.6,3-33.3,4.3-49.9c1.5-19.5,3.2-39.2,3.4-58.8c0.3-9-0.2-17.9-1.5-26.8c0-7.4-1.2-14.6-3.7-21.6
						c-5.8-21.2-11.5-42.4-17-63.7c-10.3-39.9-20.1-80-29.3-120.2c-8.9-38.9-17.3-78-25.2-117.2c-3.4-16.8-6.6-33.6-9.9-50.4
						c-1.8-9.4-3.7-18.7-5.8-28c-2.3-10.8-4.4-21.6-6.1-32.4c-6.9-39.7-13.2-79.6-18.9-119.5c-4.6-32-8.5-64.2-13-96.2
						c-1.1-7.7-2.2-15.3-3.3-23c-1.1-6.9-2.1-13.9-3.2-20.8c-0.7-6.2-1.3-12.4-2-18.6c-1-9.3-2-18.7-2.9-28
						c-2.3-22.7-4.4-45.4-6.2-68.1c-0.8-9.9-1.4-19.8-1.7-29.8c0.6-8.1,0.2-16.1-1.1-24.1c0.2-2.6-1-3.5-3.5-2.9
						c-4.5,2.4-8.2,5.7-11.2,9.9c-6.3,7.1-12.3,14.4-18.1,21.9C87.7,45,85.2,49.2,83.7,54.1z"/>
					<path class="st0" d="M89,35.9c0,9.3,0.5,18.7,1.3,27.9C91.1,74,92,84.2,93,94.4c1.6,17,3.4,33.9,5.2,50.8
						c2.2,20.3,4.5,40.5,7.1,60.8c1.6,12.1,3.4,24.2,5.1,36.3c9.5,67.6,19.6,135.1,31.7,202.3c3.6,20.1,7.3,40.1,11.3,60.1
						c2.9,14,5.7,28.1,8.6,42.1c7.3,35.5,15,70.9,23.1,106.1c18.8,81.7,40,162.9,63.1,243.5c-0.1-1.2-0.2-2.3-0.3-3.5
						c-7.2,35.1-12,70.8-16.3,106.4c-4.8,39-9.4,78-14.7,116.9c-5.5,40.7-12,81.3-18.6,121.9c-5.9,36.3-11.5,72.6-17.3,109
						c-7.5,46.8-15.3,93.6-26.8,139.7c-3.4,13.5-6.5,27.1-10.1,40.6c-5,18.7-10.3,37.3-15.9,55.9c-13.5,44.9-28.9,89.1-45.4,132.9
						c-0.3,2.1,0.6,3.3,2.7,3.6c3.7-0.4,7.1-2,9.9-4.6c5.7-3.9,11.1-8,16.4-12.4c3.3-2.1,5.7-4.8,7.1-8.3
						c16-44.3,30.8-88.9,43.8-134.2c4.1-14.3,8-28.6,11.8-43c2.3-8.7,4.5-17.4,6.6-26.2c1.9-8.3,3.7-16.6,5.2-25
						c4-18.7,8-37.3,11.6-56c4.4-23.2,8.5-46.5,12.2-69.9c5.9-37.2,11.1-74.6,17-111.8c5.6-35.8,11.1-71.7,15.7-107.6
						c5-38.6,9.3-77.4,13.3-116.1c2.2-21.3,4.2-42.6,6.3-63.9c1.5-15.7,3.2-31.4,4.5-47.2c0.7-6.1,0.8-12.2,0.4-18.3
						c0-3.9-0.2-7.8-0.5-11.7c-3.5-12.3-6.9-24.7-10.2-37c-3.3-12.1-6.5-24.2-9.7-36.3c-10.6-40.1-20.6-80.3-30-120.7
						c-8.6-36.7-16.7-73.5-24.4-110.3c-4-19.3-7.8-38.7-11.7-58.1c-3.4-17.1-7.2-34.1-10.3-51.2c-7.8-43.1-14.9-86.2-21.4-129.5
						c-4.8-32.2-9-64.5-13.4-96.7c-1.1-7.7-2.1-15.3-3.2-23c-1-7-2.1-13.9-3.1-20.9c-2-15.6-3.5-31.3-5.2-46.9
						c-2.4-22.8-4.6-45.7-6.6-68.5c-0.9-10.1-1.7-20.1-2.3-30.2c-0.6-9-0.5-18,0.3-27.1c-0.4-2-1.6-2.9-3.6-2.6
						c-3.3,1.3-5.9,3.5-7.7,6.7c-4,5-7.7,10.1-11.2,15.5C90.5,29.2,89.2,32.3,89,35.9z"/>
					<path class="st0" d="M95.5,49.3c1.2,8.9,2,17.8,2.3,26.8c0.8,10.2,1.7,20.4,2.6,30.5c1.6,16.9,3.3,33.9,5.2,50.8
						c2.2,20.3,4.5,40.5,7.1,60.7c1.5,12.1,3.3,24.2,5,36.2c9.5,67.6,19.6,135,31.7,202.2c3.6,20,7.2,40.1,11.3,60
						c2.8,14,5.7,28.1,8.6,42.1c7.3,35.4,15,70.8,23.1,106.1c18.8,81.7,40,162.8,63,243.4c0.2-1.6,0.5-3.1,0.7-4.7
						c-3.6,16.6-6.6,33.3-9.2,50.1c-2.9,19.3-5.3,38.7-7.6,58.1c-4.7,39.1-9.3,78.1-14.6,117.1c-5.5,40.8-12,81.4-18.5,122
						c-5.9,36.3-11.5,72.7-17.3,109c-7.4,46.8-15.3,93.7-26.8,139.7c-3.4,13.6-6.5,27.2-10.1,40.7c-5,18.7-10.3,37.4-15.9,55.9
						c-13.5,44.9-28.9,89.1-45.4,133c-0.9,2.3-0.2,3.6,2.2,3.9c4.6-0.4,8.8-2,12.7-4.6c7.5-4,14.9-8.3,22.1-12.8
						c4.2-2,7.7-4.9,10.3-8.7c16.2-44.7,31.3-89.7,44.4-135.4c4.1-14.4,8.1-28.8,11.9-43.3c2.3-8.8,4.5-17.6,6.6-26.5
						c1.9-8.5,3.7-17,5.2-25.6c1.7-7.8,3.5-15.5,5.1-23.3c2.3-11,4.6-22.1,6.7-33.2c4.5-23.3,8.7-46.6,12.3-70.1
						c5-32,9.4-64.2,14.4-96.2c6.4-41.5,13-83,18.3-124.7c5-39.1,9.2-78.4,13.2-117.6c1.7-16.6,3.3-33.2,4.8-49.8
						c1.8-19.5,3.8-39.1,4.8-58.7c0.7-9.1,0.5-18.2-0.4-27.2c0.4-7.6-0.8-14.9-3.4-22c-5.9-21.2-11.6-42.4-17.1-63.6
						c-10.4-39.9-20.3-79.9-29.6-120c-9-38.9-17.5-77.9-25.5-117.1c-3.4-16.8-6.7-33.6-10-50.4c-1.8-9.4-3.8-18.7-5.9-28
						c-2.4-10.8-4.4-21.6-6.2-32.5c-7-39.7-13.4-79.5-19.2-119.3c-4.7-32-8.7-64.1-13.2-96.1c-1.1-7.7-2.2-15.3-3.3-23
						c-1.1-7-2.2-13.9-3.2-20.9c-0.7-6.2-1.4-12.4-2.1-18.6c-1-9.3-2-18.7-3-28c-2.3-22.7-4.5-45.3-6.3-68.1
						c-0.9-9.9-1.5-19.8-1.9-29.8c0.2-8.2,0-16.4-0.7-24.7c0.2-2.4-0.9-3.5-3.3-3c-4.3,1.8-7.9,4.6-10.8,8.4
						c-6.1,6.1-12,12.5-17.6,19.1C99.5,41,97,44.8,95.5,49.3z"/>
					<path class="st0" d="M101.9,68.6c-0.6,9.3-0.3,18.6,0.9,27.9c0.9,10.2,1.8,20.4,2.8,30.6c1.6,16.9,3.4,33.9,5.3,50.8
						c2.2,20.3,4.5,40.5,7.2,60.7c1.6,12.1,3.4,24.2,5.1,36.3c9.5,67.6,19.9,135,32.1,202.2c6.2,34.2,13.1,68.2,20.1,102.2
						c7.4,35.5,15.1,70.8,23.3,106.1c19,81.7,40.3,162.8,63.5,243.4c0-0.9,0-1.8,0-2.7c-3.6,15.1-7.1,30.3-9.9,45.6
						c-2.7,14.9-4.9,29.8-6.9,44.8c-6,44.1-11.2,88.3-17.4,132.4c-5,35.5-10.7,70.9-16.5,106.3c-6.5,39.4-12.7,78.9-19.1,118.3
						c-7.6,47.5-15.5,95.2-27.2,141.9c-3.7,14.8-7.4,29.6-11.4,44.3c-5.1,18.7-10.5,37.3-16.1,55.8c-13.7,44.8-29.3,88.9-46.1,132.6
						c-0.1,1.6,0.5,3,1.7,4.2c1.6,1.1,3.3,1.3,5.1,0.4c2.9-0.8,5.6-1.9,8.2-3.3c1.9-0.7,3.1-2,3.4-3.9c15-39.1,29.1-78.5,41.8-118.4
						c10.1-31.9,19.6-64,27.7-96.5c1.5-6.8,3.1-13.5,4.9-20.2c1.3-5.1,2.5-10.3,3.7-15.4c1.9-8.1,3.7-16.2,5.4-24.4
						c5.1-24.1,9.4-48.4,13.4-72.7c5.2-31.2,10-62.4,15-93.6c5.8-36.3,12-72.4,17.7-108.7c5.9-37.6,11.1-75.3,15.9-113
						c5.2-39.8,9.9-79.7,16.5-119.4c-0.1,0.8-0.3,1.6-0.4,2.4c1.6-8.7,3.3-17.4,5.3-26.1c1.8-8.7,3.1-17.5,4-26.3
						c0.2-7.3-1.6-14.4-5.3-21.2c-3.5-12.1-6.9-24.3-10.2-36.4c-11.1-40.3-21.7-80.8-31.8-121.5c-10.4-42-20.1-84.1-29.3-126.3
						c-3.1-14.5-6.2-29.1-9.3-43.7c-1.9-9.3-3.8-18.6-5.7-28c-2-9.3-4-18.6-5.9-28c-4.9-24.1-9-48.3-13.3-72.5
						c-2.9-16.7-5.7-33.3-8.4-50c-6.1-37.3-11.4-74.6-16.8-112c-1.6-11.2-3.2-22.4-4.9-33.6c-2.9-19-5.1-38-7.3-57.1
						c-2.6-22.7-5-45.5-7.2-68.3c-1-10.1-1.9-20.2-2.7-30.3c-1.7-9.1-1.2-18.2,1.3-27.1c-0.2-1.7-1.1-2.9-2.7-3.6
						c-2.4-0.4-4.5,0.3-6.4,2c-3.4,2.2-6.6,4.6-9.6,7.3C103.4,64.3,102.2,66.2,101.9,68.6z"/>
					<path class="st0" d="M105.7,53.2c-1.1,9.4-1,18.9,0.3,28.3c0.8,10.2,1.7,20.4,2.7,30.6c1.6,16.9,3.4,33.9,5.2,50.8
						c2.2,20.3,4.5,40.5,7.1,60.7c1.6,12.1,3.4,24.2,5.1,36.4c9.5,67.6,19.8,135,31.9,202.1c3.6,20.1,7.3,40.1,11.4,60.1
						c2.9,14,5.8,28.1,8.7,42.1c7.3,35.4,15.1,70.8,23.2,106.1c18.9,81.7,40.2,162.8,63.4,243.3c0-1,0-2,0-3
						c-3.4,16.1-6.9,32.2-9.7,48.4c-3.3,19.2-5.8,38.5-8.3,57.8c-5,39-9.7,78-15.1,116.9c-5.7,40.7-12.2,81.3-18.9,121.8
						c-5.9,36.3-11.6,72.7-17.4,109c-7.5,46.7-15.4,93.5-27,139.5c-3.4,13.6-6.6,27.1-10.3,40.6c-5,18.7-10.4,37.3-16,55.8
						c-13.6,44.8-29.1,88.9-45.8,132.6c-0.1,1.8,0.6,3.1,2.1,4c2.4,0.8,4.6,0.5,6.8-0.9c3.8-1.6,7.5-3.6,11.1-5.8
						c2.4-1,4-2.7,4.7-5.1c16.6-44.1,32.1-88.6,45.7-133.8c4.9-16.4,9.7-32.9,14.2-49.5c1.8-6.5,3.5-12.9,5.2-19.4
						c2.2-8.3,4.1-16.7,5.8-25.2c2.4-10.3,5-20.6,7.2-30.9c2.5-11.3,4.8-22.6,6.9-33.9c4.6-24.2,8.8-48.5,12.7-72.9
						c5.3-33.3,10.3-66.7,15.7-100c6.7-41,13.3-82,19.1-123.2c5.5-39.2,10.1-78.6,14.9-117.9c2.5-20.7,5-41.3,7.9-61.9
						c1.8-12.9,4.2-25.7,6.2-38.6c1.2-7.8,2.2-16.7,2.3-24.6c0.3-7.4-1.5-14.6-5.3-21.5c-3.4-12.1-6.8-24.3-10.2-36.5
						c-11.1-40.4-21.6-80.9-31.5-121.5c-10.3-42-19.9-84.1-29-126.4c-3.1-14.6-6.2-29.1-9.1-43.7c-1.9-9.3-3.8-18.7-5.7-28
						c-2-9.3-4-18.7-6-28c-4.8-24.1-8.9-48.3-13.1-72.5c-2.9-16.7-5.6-33.3-8.3-50c-5.9-37.3-11.1-74.7-16.5-112
						c-1.6-11.2-3.2-22.5-4.9-33.7c-2.9-19-5-38-7.1-57.1c-2.5-22.7-4.9-45.5-7-68.3c-1-10.1-1.8-20.1-2.5-30.2
						c-1.5-9.4-0.8-18.6,2-27.7c-0.2-1.8-1.2-2.9-3-3.3c-2.8,0.1-5.2,1.2-7.2,3.4c-3.8,3-7.4,6.3-10.8,9.8
						C107.4,48.1,106.1,50.4,105.7,53.2z"/>
					<path class="st0" d="M69.6,36.9c-0.8,9.8-0.5,19.5,0.9,29.2c0.9,10.3,1.8,20.5,2.8,30.7c1.6,17,3.4,34,5.2,50.9
						c2.2,20.3,4.5,40.6,7.2,60.9c1.6,12.1,3.3,24.2,5,36.4c9.3,67.8,19.8,135.4,31.9,202.8c12.6,70,27.2,139.6,43.2,208.9
						c18.9,81.9,40.2,163.3,63.4,244.1c0.2-2.2,0.5-4.5,0.7-6.7c-3.5,16.5-7.5,32.9-10.3,49.5c-3.2,18.9-5.5,37.9-7.8,56.9
						c-4.8,38.7-9.3,77.5-14.6,116.2c-5.6,40.6-12,81-18.6,121.4c-5.9,36.2-11.5,72.5-17.3,108.8c-7.5,46.6-15.2,93.3-26.6,139.2
						c-3.3,13.5-6.6,26.9-10.1,40.3c-5,18.6-10.2,37.2-15.8,55.6c-13.4,44.7-28.7,88.7-45.2,132.3c-0.7,1.7-0.5,3.2,0.7,4.5
						c1.3,1.3,2.8,1.6,4.5,1c2.9-1.6,5.5-3.6,7.8-6c2.5-2.2,4.6-4.7,6.4-7.4c16.1-43.8,31-87.9,44.1-132.7
						c4.1-14.1,8.1-28.3,11.9-42.5c2.3-8.6,4.5-17.2,6.7-25.8c2.1-8.1,4-16.3,5.7-24.5c4.2-18.4,8.2-36.8,11.8-55.3
						c4.4-23.1,8.4-46.4,12.1-69.6c6-37.1,11.5-74.2,17.4-111.3c5.6-35.5,11.2-71.1,16.2-106.7c5.3-38.1,9.8-76.3,14.1-114.6
						c2.3-20.8,4.5-41.7,7-62.5c1.7-14.4,3.3-28.9,5.9-43.2c0.9-4.9,1.8-9.8,2.8-14.7c1.1-4.4,1.6-8.8,1.4-13.3
						c-3.5-12.4-7-24.8-10.5-37.2c-3.4-12.1-6.7-24.3-10-36.4c-10.8-40.3-21.1-80.7-30.8-121.3c-8.8-36.9-17.2-73.9-25.1-111
						c-4.1-19.4-8.2-38.9-12.1-58.4c-3.4-17.1-6.9-34.2-10.1-51.4c-14.1-75.5-25.9-151.4-36.3-227.5c-2-14.6-4.1-29.3-6-43.9
						c-2-15.7-3.8-31.5-5.5-47.3c-2.5-22.9-4.9-45.9-7.1-68.9c-1-10.2-1.9-20.4-2.7-30.6c-1.8-10-1.7-20,0.4-30
						c0-1.7-0.8-2.9-2.3-3.7c-1.5-0.8-3-0.8-4.4,0.1c-2,2-3.6,4.2-4.8,6.8C71.2,31.5,70.2,34.1,69.6,36.9z"/>
					<path class="st0" d="M73.2,51.2c2,19.1,3.2,38.4,5,57.5c1.6,17,3.4,33.9,5.2,50.8c2.2,20.3,4.5,40.6,7.1,60.8
						c1.6,12.1,3.3,24.1,5,36.2c9.5,67.6,19.7,135.1,31.8,202.3c12.6,69.8,27.2,139.2,43.1,208.3c18.8,81.8,40.1,162.9,63.2,243.5
						c0.5-3.9,0.9-7.9,1.4-11.8c-2.4,9.3-4.4,18.8-5.8,28.3c-1.6,9.4-3.2,18.9-4.7,28.4c-3,19.3-5.4,38.6-7.8,57.9
						c-4.8,39-9.4,78-14.8,117c-5.6,40.7-12.1,81.3-18.6,121.9c-5.9,36.3-11.5,72.6-17.4,108.9c-7.5,46.8-15.3,93.6-26.8,139.7
						c-3.4,13.5-6.6,27.1-10.2,40.5c-5,18.7-10.3,37.3-15.9,55.9c-13.5,44.8-28.9,89-45.5,132.8c-0.6,2.3,0.3,3.5,2.7,3.6
						c4.4-0.8,8.3-2.8,11.8-5.8c6.9-4.7,13.6-9.6,20-14.8c3.9-2.4,6.9-5.6,9-9.5c15.9-44.5,30.7-89.5,43.5-135
						c4-14.4,8-28.8,11.7-43.2c2.3-8.8,4.4-17.6,6.5-26.4c1.9-8.4,3.5-16.9,5-25.4c3.8-18.8,7.9-37.5,11.4-56.3
						c4.4-23.3,8.5-46.6,12.1-70c4.9-32,9.3-64,14.2-95.9c6.3-41.4,12.7-82.7,17.8-124.2c4.8-38.8,8.8-77.7,12.5-116.7
						c1.6-16.4,3-32.8,4.3-49.2c1.5-18.9,3.2-37.8,3.8-56.7c0.5-8.3,0.3-16.6-0.8-24.8c0-7.1-1.2-14-3.7-20.7
						c-5.9-21.3-11.6-42.6-17.1-64c-10.4-40.1-20.3-80.3-29.6-120.7c-9-39.1-17.5-78.4-25.4-117.8c-3.4-16.9-6.7-33.8-10-50.7
						c-1.8-9.4-3.7-18.7-5.7-28c-2.3-10.8-4.4-21.7-6.1-32.6c-7-39.9-13.4-79.9-19.2-120.1c-4.7-32.2-8.6-64.4-13.1-96.6
						c-1.1-7.7-2.2-15.3-3.3-23c-1-7-2.1-13.9-3.1-20.8c-0.7-6.2-1.4-12.5-2-18.7c-1-9.4-2-18.8-3-28.2c-2.3-22.8-4.5-45.6-6.3-68.4
						c-0.9-10-1.5-20-1.9-30.1c0.2-8.3,0-16.5-0.7-24.8c-0.3-2.3-1.5-3.1-3.7-2.5c-3.6,2-6.5,4.9-8.5,8.6C86.1,27,81.8,33.4,77.9,40
						C75.2,43.3,73.7,47,73.2,51.2z"/>
					<path class="st0" d="M85,71.1c1.8,19.2,3.1,38.5,4.9,57.8c1.6,17,3.4,33.9,5.2,50.8c2.2,20.3,4.5,40.6,7.1,60.8
						c1.6,12.1,3.3,24.1,5,36.2c9.5,67.6,19.8,135.1,31.9,202.3c12.6,69.8,27.2,139.3,43.2,208.3c18.9,81.8,40.2,162.9,63.3,243.6
						c0.1-1.2,0.2-2.5,0.2-3.7c-8.5,35-13.3,70.6-17.8,106.3c-4.9,39-9.5,78-14.9,116.9c-5.6,40.7-12.1,81.3-18.7,121.8
						c-5.9,36.3-11.6,72.6-17.4,108.9c-7.5,46.8-15.4,93.6-26.9,139.6c-3.4,13.5-6.6,27.1-10.2,40.6c-5,18.7-10.3,37.3-16,55.8
						c-13.6,44.8-29,89-45.7,132.7c-0.6,1.9,0,3.3,1.8,4.1c3.2,0.6,6.2,0.1,9.1-1.5c5.4-2,10.6-4.3,15.8-7c3.2-1.1,5.6-3,7.2-5.8
						c16.7-44.5,32.2-89.3,45.7-134.8c4.3-14.4,8.4-28.7,12.4-43.2c2.4-8.8,4.7-17.5,6.9-26.4c2.1-8.5,4-17,5.6-25.6
						c1.8-7.8,3.7-15.5,5.4-23.2c2.5-11,4.8-22.1,6.9-33.1c4.6-23.2,8.8-46.6,12.5-69.9c5.1-32,9.7-64.2,14.7-96.2
						c6.5-41.5,13.4-82.9,19.1-124.5c5.3-39.1,9.9-78.2,14.3-117.4c1.9-16.6,3.7-33.1,5.5-49.7c2.1-19.5,4.5-38.9,6.5-58.4
						c1.2-9,1.6-18.1,1.3-27.1c1.1-7.7,0.2-15-2.7-22.1c-5.9-21.2-11.7-42.4-17.3-63.6c-10.5-39.9-20.5-79.9-30-120
						c-9.2-38.9-17.8-77.9-25.9-117.1c-3.5-16.8-6.8-33.6-10.2-50.3c-1.8-9.3-3.8-18.7-5.9-28c-2.4-10.8-4.5-21.6-6.3-32.5
						c-7.1-39.7-13.7-79.5-19.7-119.4c-4.8-32-9-64.1-13.5-96.1c-1.1-7.7-2.2-15.3-3.4-23c-1.1-7-2.2-14-3.3-21
						c-2.1-15.5-3.6-31.1-5.2-46.6c-2.4-22.7-4.7-45.4-6.6-68.1c-0.9-9.9-1.6-19.9-2.1-29.8c0.1-8.1-0.2-16.3-0.9-24.4
						c0-2.1-1-3.2-3-3.3c-3.5,0.6-6.4,2.3-8.8,5c-4.9,4-9.5,8.3-13.9,12.9C87.8,64.9,85.9,67.7,85,71.1z"/>
					<path class="st0" d="M99.8,35.2c-4,10.4-4.7,20.9-2.1,31.6c0.9,10.2,1.8,20.5,2.8,30.7c1.6,17,3.4,33.9,5.3,50.8
						c2.2,20.3,4.5,40.6,7.2,60.8c1.6,12.1,3.4,24.3,5.1,36.4c9.5,67.7,19.8,135.2,32,202.4c6.2,34.2,13.1,68.3,20.1,102.3
						c7.4,35.5,15.1,70.9,23.3,106.2c19,81.8,40.3,163,63.6,243.6c0.2-1,0.4-2,0.6-3c-3.7,15.7-7.9,31.3-10.8,47.2
						c-3.4,19-5.9,38.2-8.3,57.3c-5,38.8-9.7,77.7-15.1,116.4c-5.7,40.6-12.2,81.1-18.8,121.5c-5.9,36.3-11.6,72.6-17.4,108.9
						c-7.5,46.6-15.3,93.4-26.9,139.2c-3.4,13.5-6.6,27-10.3,40.5c-5,18.6-10.3,37.2-15.9,55.6c-13.5,44.6-28.9,88.6-45.5,132.2
						c-1.1,2.9,1.2,6.3,4.4,6.2c2.4-0.7,4.6-1.9,6.6-3.4c2.1-1.4,4-3.1,5.4-5.1c16.5-43.8,31.8-87.9,45.2-132.7
						c4.2-14.1,8.3-28.3,12.2-42.6c2.4-8.6,4.7-17.2,6.9-25.9c2.1-8.2,4.1-16.4,6-24.6c4.4-18.4,8.6-36.9,12.2-55.5
						c4.5-23.1,8.6-46.4,12.4-69.6c5.2-31.8,10-63.6,15.1-95.4c6.5-41,13.4-82,19.4-123.1c5.6-38.3,10.4-76.8,15.1-115.2
						c2-16.1,3.9-32.2,5.9-48.4c2.3-18.4,4.7-36.8,8.3-55c1.7-7.7,3.4-15.4,5-23.2c2.5-7.2,2.1-14.2-1.2-21
						c-6.1-21.3-12.1-42.6-17.9-64c-10.9-40.1-21.2-80.4-31-120.8c-9.5-39.2-18.5-78.5-26.9-117.9c-3.6-16.9-7.2-33.8-10.6-50.7
						c-4.1-20.2-8.3-40.4-12.1-60.7C155.6,395.4,144.2,323,134,250.4c-2.1-14.6-4.2-29.3-6.2-43.9c-2.2-15.7-3.9-31.4-5.7-47.1
						c-2.6-22.9-5-45.8-7.2-68.7c-1-10.2-1.9-20.4-2.8-30.6c-3.1-11-1.9-21.6,3.6-32c0.9-3.3-3-5.8-5.8-4.9
						c-2.3,1.4-4.2,3.2-5.9,5.3C102.3,30.5,100.9,32.7,99.8,35.2z"/>
					<path class="st0" d="M75.9,64.6c1.4,8.9,2.2,17.8,2.5,26.8c0.8,10.2,1.7,20.4,2.7,30.6c1.6,17,3.4,33.9,5.2,50.9
						c2.2,20.3,4.5,40.6,7.1,60.8c1.6,12.1,3.3,24.1,5,36.2c9.5,67.6,19.8,135.1,31.9,202.4c12.6,69.8,27.2,139.2,43.1,208.3
						c18.9,81.8,40.1,162.9,63.3,243.6c0-1.4,0-2.8,0-4.3c-2.2,8.1-3.9,16.4-5.1,24.7c0.3-1.4,0.5-2.8,0.8-4.2
						c-3.5,18.6-6.6,37.1-9.1,55.9c-2.8,21.1-5.3,42.2-7.9,63.3c-4.7,38.3-9.6,76.6-15.2,114.8c-5.3,35.7-11.1,71.3-16.8,106.9
						c-5.7,35-11.1,70.1-16.7,105.1c-4.1,25.3-8.4,50.6-13.4,75.8c-3.7,18.6-7.9,37-12.4,55.4c-4.1,16.7-8.2,33.4-12.8,50
						c-3.9,14.2-8,28.5-12.3,42.6c-13.5,44.8-28.9,89-45.5,132.7c-0.8,2.2,0,3.5,2.2,3.9c4.2-0.2,8.1-1.5,11.6-3.9
						c6.9-3.5,13.6-7.3,20.2-11.4c3.9-1.8,7-4.4,9.4-7.9c16.3-44.7,31.4-89.7,44.5-135.4c4.1-14.4,8.2-28.8,12-43.3
						c2.3-8.8,4.6-17.7,6.6-26.5c2-8.5,3.7-17.1,5.2-25.7c1.6-7.8,3.5-15.5,5.1-23.3c2.4-11,4.6-22.1,6.7-33.2
						c4.5-23.3,8.7-46.6,12.3-70c5-32.1,9.4-64.2,14.3-96.2c6.4-41.5,13-83,18.3-124.7c4.9-39.1,9.1-78.3,13-117.4
						c1.7-16.5,3.2-33.1,4.6-49.7c1.7-19.3,3.5-38.8,4.3-58.2c0.6-8.8,0.3-17.6-0.7-26.4c0.3-7.4-0.9-14.5-3.4-21.4
						c-5.8-21.2-11.6-42.5-17.1-63.8c-10.4-40-20.2-80.1-29.5-120.3c-9-39-17.5-78.1-25.4-117.4c-3.4-16.8-6.6-33.7-10-50.5
						c-1.8-9.4-3.7-18.7-5.8-28c-2.4-10.8-4.4-21.6-6.2-32.5c-7-39.8-13.3-79.6-19.1-119.6c-4.7-32.1-8.6-64.2-13.1-96.3
						c-1.1-7.7-2.2-15.3-3.3-23c-1.1-7-2.1-13.9-3.2-20.9c-0.7-6.2-1.4-12.4-2-18.6c-1-9.3-2-18.7-3-28.1
						c-2.3-22.7-4.5-45.4-6.3-68.1c-0.9-9.9-1.5-19.9-1.8-29.8c0.5-8,0.2-16-1.1-23.9c0-2.3-1.2-3.2-3.4-2.9c-3.9,1.6-7,4.2-9.5,7.7
						c-5.2,5.7-10.1,11.6-14.8,17.7C78.7,56.9,76.8,60.5,75.9,64.6z"/>
					<path class="st0" d="M90.5,29.4c-4.2,11.2-4.8,22.5-1.8,33.8c0.9,10.3,1.9,20.5,2.9,30.8c1.7,17,3.5,34,5.4,51
						c3.6,32.4,7.7,64.7,12.2,97c9.4,67.8,20.1,135.4,32.4,202.7c27.9,152.6,64.3,303.4,107.3,452.4c0.1-0.7,0.1-1.3,0.2-2
						c-2.3,6.5-4.5,13.1-6.3,19.8c-1.9,8.6-3.7,17.2-5.2,25.8c-3.4,19-5.8,38.2-8.3,57.4c-5,38.8-9.7,77.7-15.2,116.5
						c-5.8,40.6-12.4,81-19,121.5c-5.9,36.2-11.6,72.5-17.5,108.7c-7.6,46.7-15.3,93.5-27,139.4c-8.2,32.1-16.7,64.1-26.4,95.9
						c-13.6,44.7-29.1,88.8-45.8,132.4c-0.9,2.4,2.2,6,4.5,6.2c1.8-0.3,3.4-1.1,4.8-2.3c1.5-1,2.7-2.3,3.6-3.9
						c16.6-43.9,32.1-88.1,45.6-133c9.2-30.6,17.5-61.5,25.3-92.6c10.4-41.4,17.9-83.5,24.9-125.6c6.1-36.9,11.8-73.9,17.8-110.9
						c5.7-35.6,11.6-71.2,16.9-106.9c5.7-38.2,10.6-76.5,15.3-114.9c2.6-21.1,5.1-42.3,7.9-63.4c2-15.1,4.3-30.2,7.3-45.1
						c0.9-5.3,2.3-10.4,4.1-15.5c2-3.8,3.2-7.9,3.4-12.1c-3.6-12.4-7.1-24.7-10.6-37.1c-3.4-12.1-6.8-24.2-10.1-36.4
						c-11-40.2-21.4-80.6-31.3-121.2c-17.8-72.9-33.9-146.2-48-220c-14.4-75.6-26.8-151.5-37.5-227.7c-4.2-30.1-8.2-60.2-11.7-90.3
						c-2.7-23-5.2-46-7.4-69.1c-1-10.3-1.9-20.5-2.8-30.8c-3.6-11.9-2.7-23.6,2.8-35.2c-0.2-1.5-1-2.6-2.3-3.4c-1.2-0.9-2.5-1.3-4-1
						c-1.7,1-3,2.3-4.1,4C91.7,25.8,90.9,27.6,90.5,29.4z"/>
					<path class="st0" d="M65.5,42.7c-0.4,9.7,0,19.3,1.1,29c0.9,10.2,1.8,20.5,2.8,30.7c1.6,17,3.4,34,5.2,50.9
						c2.2,20.3,4.5,40.6,7.1,60.9c1.6,12.1,3.3,24.2,5,36.3c9.4,67.8,19.7,135.3,31.8,202.7c12.6,69.9,27.1,139.5,43.1,208.7
						c18.9,81.9,40.1,163.2,63.3,244c0.4-3,0.8-6.1,1.1-9.1c-3.4,17.4-7.4,34.8-10.3,52.3c-3.1,19-5.4,38.1-7.7,57.2
						c-4.7,38.8-9.3,77.7-14.6,116.4c-5.5,40.6-12,81.1-18.5,121.5c-5.9,36.3-11.5,72.6-17.3,108.8c-7.5,46.7-15.3,93.5-26.7,139.4
						c-3.3,13.5-6.5,27-10.1,40.4c-5,18.7-10.2,37.2-15.8,55.7c-13.4,44.7-28.8,88.8-45.3,132.5c-1.1,1.7-1.1,3.4,0.1,5.1
						c1.5,1.3,3.2,1.5,5,0.6c3.6-2.2,7-4.7,10-7.7c3.2-2.7,6.1-5.8,8.7-9.2c16.1-44,30.9-88.3,44-133.3c4.1-14.2,8-28.4,11.8-42.7
						c2.3-8.6,4.5-17.3,6.6-26c2-8.2,3.8-16.4,5.5-24.7c4.1-18.5,8.1-37,11.6-55.6c4.4-23.2,8.4-46.4,12.1-69.7
						c6-37.1,11.4-74.3,17.2-111.4c5.6-35.6,11.1-71.2,16-107c5.2-38.2,9.6-76.6,13.7-114.9c2.2-20.9,4.3-41.9,6.5-62.8
						c1.6-15,3.2-30.1,5.4-45c1.3-8.9,2.6-18,2.5-27c-3.5-12.4-7-24.8-10.4-37.2c-3.3-12.1-6.6-24.3-9.9-36.4
						c-10.7-40.3-20.9-80.7-30.6-121.3c-8.7-36.9-17-73.8-24.8-110.9c-4.1-19.4-8.1-38.9-11.9-58.4c-3.4-17.1-7-34.2-10.1-51.4
						c-8-43.3-15.3-86.7-21.9-130.2c-5-32.3-9.4-64.8-13.8-97.2c-2-14.6-4.2-29.2-6.1-43.9c-2-15.7-3.7-31.5-5.4-47.2
						c-2.5-22.9-4.8-45.9-6.9-68.8c-1-10.2-1.8-20.4-2.6-30.5c-1.2-9.7-1.1-19.5,0.3-29.2c0.2-1.9-0.4-3.3-2-4.3
						c-1.7-0.8-3.3-0.5-4.7,0.7c-2.4,2.7-4.3,5.7-5.9,9C67.9,35.9,66.5,39.2,65.5,42.7z"/>
				</g>
			</g>
		</g>
	</g>
	<g>
		<g>
			<g>
				<g>
					<path class="st0" d="M241.9,45.8c0.7,5.2,1.3,10.3,1.7,15.5c0.5,5.8,1,11.7,1.6,17.5c1.5,15.6,3.1,31.3,4.7,46.9
						c3.7,35.3,7.7,70.5,11.9,105.7c7.8,64.6,16.9,129,26.6,193.3c6.9,45.7,13.8,91.3,19.5,137.2c7.2,58.8,12.5,117.9,16.2,177
						c2.3,36.6,4,73.2,5.1,109.8c1,34,1.6,68,1.2,102.1c-0.6,47.8-2,95.7-5,143.4c-1.1,17-2.1,34.1-3.2,51.1
						c-2,30.6-4.5,61.1-7.2,91.6c-4,45.7-8.6,91.3-14,136.9c-5.4,46.3-10.8,92.6-15.5,139c-6.4,63.3-12.1,126.7-17.3,190.1
						c-0.5,6.6,10.3-3.7,10.1-3.6c4.6-4.2,9.1-8.5,13.4-13c2.6-2.2,4.6-4.8,5.9-7.9c2.3-23.4,4.3-46.8,6.3-70.2
						c1.2-13.9,2.4-27.8,3.7-41.7c1.6-17.2,3.6-34.4,5.4-51.7c4.9-45.6,9.2-91.3,14.4-136.9c1.9-16.3,3.7-32.7,5.6-49
						c2.5-22.3,5.1-44.6,6.8-67c2.1-28.8,5-57.5,7.3-86.3c2.2-26.8,3.8-53.7,4.7-80.6c0.3-7.9,0.4-15.9,1.1-23.8
						c0.3-3.9,0.7-7.8,0.7-11.7c0-2.5,0-5,0.1-7.5c0.1-1.7,0.3-3.3,0.4-5c0.5-5.9,0.5-11.9,0.8-17.7c0.7-17.7,1.2-35.4,1.6-53.1
						c0.3-15.5,0.7-31,0.6-46.6c-0.1-11.7-0.7-23.3-1-35c-0.5-18.8-0.7-37.7-1.3-56.5c-0.8-23.6-1.7-47.3-3-70.9
						c-3.4-64.6-8.5-129.2-15.8-193.5c-5.3-47.3-12.4-94.4-19.2-141.5c-9.5-65.1-19.2-130.2-27.4-195.6
						c-4.9-39.4-9.1-78.8-13.1-118.3c-1.9-18.7-3.7-37.4-5.4-56.2c-0.6-6.1-1.2-12.3-1.7-18.4c-0.4-3.7-0.6-7.4-0.6-11.2
						c0-4.8-0.3-9.6-0.8-14.4c-0.5-6.5-9.5,4.7-9.5,4.7c-4,4.7-7.9,9.5-11.6,14.5C244.4,39.8,242.8,42.6,241.9,45.8z"/>
					<path class="st0" d="M244.8,34.6c1.9,26.8,4.8,53.5,7.6,80.2c3.7,35.3,7.7,70.5,11.9,105.7c7.8,64.6,16.9,129,26.6,193.4
						c6.9,45.7,13.8,91.3,19.5,137.2c7.2,58.8,12.5,117.8,16.2,176.9c2.3,36.6,4,73.2,5.1,109.8c1,34,1.7,68,1.3,102.1
						c-0.4,29.7-1.2,59.5-2.3,89.2c-0.7,18-1.5,36.1-2.7,54.1c-1.1,17-2,34.1-3.2,51.1c-2,30.6-4.5,61.1-7.2,91.6
						c-4,45.7-8.6,91.3-14,136.8c-5.4,46.3-10.8,92.6-15.5,139c-3.3,33.1-6.6,66.2-9.6,99.3c-2.7,30.3-5.2,60.5-7.8,90.8
						c0.1,1.4,0.8,2,2.2,1.9c2.3-0.7,4.1-2,5.5-4c3-3.1,5.8-6.3,8.4-9.6c1.8-1.7,2.8-3.7,3.2-6c2.2-23.5,4.2-46.9,6.3-70.4
						c2.7-31.2,5.7-62.4,9-93.6c4.8-45.6,9.3-91.2,14.5-136.7c1.9-16.3,3.8-32.6,5.6-48.9c2.5-22.2,5.1-44.5,6.9-66.8
						c4.5-55.4,10-110.6,12.4-166.2c0.3-7.9,0.5-15.8,1.2-23.7c0.3-3.9,0.7-7.7,0.8-11.6c0.1-2.5,0-4.9,0.2-7.4
						c0.1-1.6,0.3-3.3,0.4-4.9c0.5-5.9,0.5-11.8,0.8-17.7c0.7-17.6,1.2-35.3,1.6-52.9c0.4-15.4,0.7-30.9,0.8-46.3
						c0-11.5-0.3-23-0.5-34.5c-0.8-42.3-1.9-84.6-4-126.9c-3.2-64.4-8.3-128.7-15.3-192.8c-5.2-47.2-12.1-94.2-19-141.2
						c-9.6-65.2-19.3-130.4-27.6-195.9c-5-39.5-9.3-79-13.4-118.6c-1.9-18.8-3.8-37.5-5.6-56.3c-0.6-6.2-1.2-12.4-1.8-18.5
						c-0.9-8.9-1.1-17.8-1.2-26.8c-0.3-1.3-1.1-1.9-2.4-1.7c-2.1,0.9-3.8,2.3-5,4.4c-2.6,3.3-5,6.6-7.2,10.2
						C245.7,30.3,244.9,32.3,244.8,34.6z"/>
					<path class="st0" d="M249.4,42.9c1.1,11,1.9,22,3,33.1c1.5,15.6,3.1,31.2,4.7,46.9c3.7,35.2,7.6,70.5,11.9,105.6
						c7.8,64.6,16.9,129,26.6,193.3c6.8,45.7,13.8,91.3,19.5,137.2c7.3,58.8,12.5,117.9,16.2,177c2.3,36.6,4,73.2,5.1,109.8
						c1,34,1.7,68.1,1.3,102.1c-0.3,29.8-1.2,59.5-2.3,89.2c-0.7,18.1-1.6,36.1-2.7,54.1c-1.1,17-2,34.1-3.2,51.1
						c-2,30.6-4.5,61.1-7.2,91.6c-4,45.7-8.6,91.3-14,136.9c-5.5,46.3-10.8,92.6-15.4,139.1c-3.3,33.1-6.6,66.1-9.6,99.3
						c-2.7,30.3-5.2,60.5-7.7,90.8c-0.5,6.2,9.3-2.4,9.5-2.5c4.3-3.6,8.5-7.3,12.6-11.3c2.5-1.9,4.3-4.2,5.5-7
						c2.3-23.4,4.3-46.8,6.3-70.2c1.2-13.9,2.4-27.8,3.7-41.8c1.6-17.2,3.5-34.5,5.3-51.7c4.8-45.6,9.2-91.3,14.4-136.9
						c1.9-16.3,3.8-32.7,5.6-49c2.5-22.3,5.2-44.6,6.9-67c2.2-28.8,5-57.5,7.4-86.3c2.2-26.8,3.9-53.7,4.9-80.6
						c0.3-7.9,0.5-15.9,1.1-23.8c0.3-3.9,0.7-7.8,0.8-11.7c0.1-2.5,0-5,0.2-7.5c0.1-1.7,0.3-3.3,0.4-4.9c0.5-5.9,0.6-11.9,0.8-17.7
						c0.7-17.7,1.2-35.4,1.7-53.1c0.4-15.5,0.8-31,0.8-46.5c0-11.7-0.5-23.4-0.8-35c-0.9-42.5-1.9-84.9-4.1-127.4
						c-3.3-64.6-8.3-129.2-15.4-193.5c-5.2-47.3-12.3-94.4-19.1-141.5c-9.5-65.1-19.4-130.2-27.6-195.6c-5-39.3-9.2-78.8-13.2-118.2
						c-1.9-18.7-3.7-37.4-5.5-56.1c-0.6-6.1-1.2-12.3-1.7-18.4c-0.7-8.5-0.8-17.1-1.3-25.6c-0.3-6.1-8.9,3.3-9.2,3.6
						c-3.9,4.1-7.7,8.3-11.3,12.6C251.9,37.4,250.3,40,249.4,42.9z"/>
					<path class="st0" d="M252.6,56.3c1.2,11,2.1,22,3.2,33c1.6,15.6,3.1,31.2,4.8,46.9c3.7,35.2,7.7,70.5,12,105.6
						c7.8,64.6,17,129,26.7,193.4c6.9,45.7,13.9,91.3,19.5,137.2c7.2,58.8,12.3,117.8,15.9,176.9c2.3,36.6,3.9,73.2,5,109.8
						c1,34,1.6,68.1,1,102.1c-0.5,29.7-1.3,59.5-2.5,89.2c-0.7,18-1.6,36-2.9,54c-1.2,17.1-2.1,34.1-3.3,51.2
						c-2.1,30.5-4.6,61.1-7.4,91.5c-4.1,45.7-8.8,91.3-14.2,136.8c-5.5,46.3-10.9,92.6-15.5,139c-6.4,63.3-12,126.7-17.2,190.1
						c0.1,1.1,0.7,1.9,1.6,2.4c1.3,0.5,2.5,0.3,3.7-0.6c2-1,3.8-2.3,5.5-3.7c1.3-0.7,1.9-1.8,2-3.2c4.6-54.7,9.2-109.4,14.6-164
						c4.5-45.6,9.3-91.2,14.7-136.7c4.6-38.5,9.4-77,13.1-115.6c5.3-55.4,10.3-110.8,13.6-166.3c0.5-8,0.8-15.9,1.4-23.9
						c0.3-3.8,0.7-7.6,0.9-11.5c0.1-2.5,0.2-5.1,0.4-7.6c0.1-1.6,0.3-3.2,0.5-4.8c0.6-5.8,0.6-11.8,0.9-17.7c0.8-17.6,1.4-35.3,2-53
						c0.8-27,1.5-54.1,1.4-81.1c-0.1-42.4-1.4-84.8-3.2-127.1c-2.8-64.5-7.5-129-14.2-193.2c-4.9-47.3-11.5-94.4-18.6-141.4
						c-9.8-65.2-19.7-130.3-28.1-195.6c-5.1-39.4-9.6-78.9-13.9-118.4c-2-18.7-3.9-37.5-5.8-56.2c-0.6-6.2-1.2-12.4-1.8-18.5
						c-0.9-8.8-1.5-17.5-1.7-26.3c-0.2-1.1-0.8-1.9-1.8-2.3c-1.5-0.3-2.9,0.1-4,1.2c-2.1,1.4-4.1,3-6,4.7
						C253.5,53.5,252.7,54.8,252.6,56.3z"/>
					<path class="st0" d="M254.8,46.7c1.2,11,2,21.9,3.1,32.9c1.5,15.6,3.1,31.2,4.8,46.8c3.7,35.2,7.7,70.4,11.9,105.6
						c7.8,64.6,17,129,26.7,193.4c6.9,45.7,13.9,91.3,19.5,137.2c7.2,58.8,12.3,117.8,16,176.9c2.3,36.6,3.9,73.2,5,109.8
						c1,34,1.7,68.1,1.2,102.2c-0.5,29.7-1.3,59.4-2.4,89.1c-0.7,18-1.6,36-2.8,54c-1.2,17.1-2.1,34.1-3.2,51.2
						c-2.1,30.5-4.6,61.1-7.3,91.5c-4.1,45.7-8.7,91.3-14.1,136.8c-5.5,46.3-10.8,92.7-15.5,139.1c-3.3,33.1-6.6,66.1-9.5,99.3
						c-2.7,30.3-5.2,60.5-7.7,90.8c0.1,1.2,0.7,1.9,1.8,2.3c1.7,0.2,3.2-0.4,4.4-1.6c2.4-1.6,4.6-3.4,6.7-5.3c1.5-1,2.3-2.3,2.5-4
						c4.8-54.7,9.3-109.3,14.8-163.9c4.6-45.6,9.3-91.2,14.6-136.8c4.5-38.5,9.5-77,12.9-115.6c5-55.4,10.3-110.8,13.2-166.4
						c0.4-8,0.7-15.9,1.3-23.9c0.3-3.8,0.7-7.7,0.9-11.5c0.1-2.5,0.1-5.1,0.3-7.6c0.1-1.6,0.3-3.2,0.5-4.8
						c0.6-5.8,0.6-11.8,0.9-17.7c0.8-17.6,1.4-35.3,1.9-52.9c0.4-15.4,0.9-30.9,1.1-46.3c0.2-11.6,0.1-23.2-0.1-34.8
						c-0.4-42.4-1.5-84.7-3.5-127.1c-2.9-64.5-7.7-128.9-14.5-193.1c-5-47.3-11.7-94.4-18.7-141.4c-9.7-65.2-19.6-130.3-28-195.7
						c-5.1-39.4-9.5-78.9-13.7-118.4c-2-18.7-3.9-37.5-5.7-56.2c-0.6-6.2-1.2-12.4-1.8-18.5c-0.4-3.8-0.8-7.5-0.9-11.3
						c-0.4-5-0.6-10-0.4-15c-0.2-1.2-0.8-1.9-2-2.1c-1.8,0.1-3.3,0.8-4.6,2.2c-2.4,2-4.7,4.1-6.8,6.4
						C255.8,43.4,255,44.9,254.8,46.7z"/>
					<path class="st0" d="M232.6,34.5c0,2-0.1,4-0.1,6.1c-0.3,3.9-0.1,7.7,0.5,11.6c0.6,5.8,1.2,11.6,1.7,17.5
						c1.5,15.6,3.1,31.3,4.8,46.9c3.7,35.3,7.7,70.5,11.9,105.8c7.8,64.7,16.9,129.2,26.6,193.6c6.9,45.7,13.9,91.3,19.5,137.2
						c7.2,58.7,12.4,117.6,16.1,176.6c2.3,36.5,4,73,5.1,109.6c1,33.9,1.7,67.9,1.2,101.8c-0.5,29.7-1.2,59.3-2.3,89
						c-0.7,18-1.5,35.9-2.7,53.9c-1.2,17-2,34-3.2,51c-2.1,30.5-4.6,61-7.2,91.4c-4,45.6-8.6,91.2-14,136.6
						c-5.4,46.3-10.8,92.6-15.5,139c-6.4,63.4-12.1,126.8-17.3,190.3c-0.2,2.3,2.1,3.7,4.1,2.8c1.4-1.2,2.6-2.6,3.6-4.1
						c1.1-1.5,1.9-3.1,2.5-4.9c4.7-54.8,9.4-109.7,15-164.4c4.6-45.6,9.5-91.1,14.8-136.6c4.5-38.4,9-76.8,12.5-115.3
						c5.1-55.1,9.8-110.2,13-165.5c0.4-7.9,0.8-15.7,1.3-23.6c0.4-6.3,0.7-12.6,1-18.9c1.4-25,2.2-50.1,2.8-75.1
						c0.7-26.7,1.2-53.3,1-80c-0.3-42.1-1.7-84.3-3.7-126.4c-3.1-64.1-8-128.2-14.9-192c-5.1-47.1-11.7-94-18.7-140.9
						c-9.8-65.3-19.4-130.7-27.7-196.2c-5-39.6-9.6-79.2-13.8-118.9c-2-18.8-4-37.6-5.8-56.5c-0.6-6.2-1.2-12.4-1.8-18.6
						c-0.4-3.8-0.8-7.6-1.1-11.4c-0.9-6.1-0.8-12.3,0.5-18.4c0.2-2.3-2.7-3.3-4.4-2.3c-1.3,1.3-2.3,2.8-3.1,4.5
						C233.6,31,233,32.7,232.6,34.5z"/>
					<path class="st0" d="M234.9,44.1c1.1,11.1,1.9,22.1,3,33.2c1.5,15.6,3.1,31.3,4.8,46.9c3.7,35.3,7.7,70.5,11.9,105.7
						c7.8,64.6,16.9,129,26.6,193.3c6.9,45.7,13.8,91.3,19.5,137.2c7.2,58.8,12.4,117.8,16.2,176.9c2.3,36.6,4,73.2,5.1,109.8
						c1,34,1.6,68,1.2,102c-0.6,47.8-2,95.6-5.1,143.3c-1.1,17-2.1,34.1-3.2,51.1c-2.1,30.6-4.5,61.1-7.2,91.6
						c-4,45.7-8.6,91.3-14,136.8c-5.5,46.3-10.8,92.6-15.5,139c-6.4,63.3-12,126.7-17.3,190.1c0,1.5,0.7,2.2,2.2,1.9
						c2.6-1.1,4.7-2.9,6.4-5.3c3.5-3.9,6.9-7.9,10.1-12c2.1-2.1,3.4-4.5,4.1-7.2c2.3-23.4,4.3-46.9,6.3-70.3
						c1.2-13.9,2.4-27.8,3.7-41.8c1.6-17.3,3.5-34.5,5.4-51.8c4.8-45.6,9.3-91.2,14.4-136.8c1.8-16.3,3.7-32.6,5.5-48.9
						c2.5-22.3,5.1-44.5,6.8-66.8c2.2-28.7,4.9-57.4,7.3-86.2c2.2-26.7,3.8-53.5,4.8-80.3c0.3-7.9,0.5-15.8,1.1-23.7
						c0.3-3.9,0.7-7.7,0.7-11.6c0-2.5,0-5,0.1-7.4c0.1-1.6,0.3-3.3,0.4-4.9c0.5-5.9,0.5-11.8,0.7-17.7c0.6-17.6,1.1-35.3,1.5-52.9
						c0.3-15.4,0.7-30.9,0.6-46.4c0-11.5-0.6-23.1-0.9-34.6c-0.5-18.8-0.7-37.5-1.3-56.3c-0.8-23.6-1.7-47.1-3-70.7
						c-3.4-64.4-8.5-128.8-15.7-192.9c-5.3-47.2-12.4-94.2-19.2-141.2c-9.5-65.2-19.2-130.4-27.4-195.9c-4.9-39.4-9.2-79-13.2-118.5
						c-1.9-18.8-3.7-37.5-5.5-56.3c-0.6-6.2-1.2-12.3-1.7-18.5c-0.7-8.6-0.9-17.3-1.3-25.9c-0.2-1.5-1-2-2.5-1.6
						c-2.4,1.3-4.2,3.2-5.5,5.7c-2.9,4.1-5.6,8.3-8.1,12.6C236.1,38.9,235.1,41.4,234.9,44.1z"/>
					<path class="st0" d="M242.6,57.1c1,11.1,1.9,22.2,3,33.3c1.5,15.6,3.1,31.3,4.8,46.9c3.7,35.3,7.7,70.5,11.9,105.7
						c7.8,64.6,16.9,129,26.6,193.4c6.9,45.7,13.8,91.3,19.5,137.2c7.2,58.8,12.4,117.8,16.1,176.9c2.3,36.6,4,73.2,5.1,109.8
						c1,34,1.6,68,1.2,102c-0.6,47.8-1.9,95.6-5.2,143.3c-1.2,17-2.1,34.1-3.2,51.1c-2.1,30.5-4.6,61.1-7.3,91.6
						c-4.1,45.7-8.7,91.3-14.1,136.8c-5.5,46.3-10.8,92.6-15.5,139c-6.4,63.3-12,126.7-17.3,190.1c-0.1,1.3,0.5,2.1,1.8,2.3
						c2.2-0.2,4.2-1,5.9-2.6c3.3-2.3,6.5-4.7,9.6-7.3c2-1.2,3.3-2.9,4.1-5c2.2-23.4,4.1-46.8,6.1-70.2c2.6-31.2,5.6-62.3,8.9-93.5
						c4.7-45.7,9.2-91.3,14.5-136.9c1.9-16.3,3.9-32.7,5.7-49c2.6-22.3,5.2-44.5,7.1-66.9c2.4-28.8,5.2-57.5,7.6-86.3
						c2.2-26.8,4-53.7,5.3-80.6c0.4-8,0.6-16,1.2-23.9c0.3-3.9,0.7-7.7,0.8-11.6c0.1-2.5,0-5.1,0.2-7.6c0.1-1.6,0.3-3.3,0.5-4.9
						c0.6-5.8,0.6-11.8,0.8-17.7c0.7-17.7,1.3-35.3,1.8-53c0.4-15.5,0.8-31,0.9-46.5c0.1-11.7-0.3-23.4-0.4-35.1
						c-0.6-42.5-1.7-84.9-3.7-127.3c-3.1-64.6-8-129.1-14.9-193.4c-5.1-47.3-12-94.4-18.9-141.5c-9.6-65.2-19.5-130.3-27.8-195.6
						c-5-39.3-9.3-78.8-13.4-118.3c-1.9-18.7-3.8-37.4-5.6-56.1c-0.6-6.2-1.2-12.3-1.8-18.5c-0.8-8.5-1-17-1.5-25.6
						c0-1.4-0.7-2.1-2-2.1c-2.3,0.4-4.2,1.6-5.7,3.4c-3.1,2.7-6.1,5.6-9,8.6C244.3,53.1,243.1,54.9,242.6,57.1z"/>
					<path class="st0" d="M250.8,35.5c-0.1,2-0.2,3.9-0.3,5.9c-0.5,3.8-0.4,7.6,0.3,11.3c0.6,5.8,1.2,11.6,1.8,17.4
						c1.6,15.6,3.1,31.2,4.8,46.9c3.7,35.3,7.7,70.5,12,105.7c7.8,64.7,17,129.1,26.7,193.5c6.9,45.7,13.9,91.3,19.5,137.2
						c7.2,58.7,12.3,117.7,16,176.7c2.3,36.5,3.9,73.1,5,109.7c1,34,1.7,68,1.1,102c-0.5,29.7-1.3,59.4-2.4,89
						c-0.7,18-1.5,35.9-2.8,53.9c-1.3,17-2.1,34.1-3.2,51.2c-2.1,30.5-4.6,61-7.3,91.5c-4.1,45.6-8.7,91.2-14.1,136.7
						c-5.5,46.3-10.8,92.6-15.5,139c-6.4,63.3-12,126.7-17.3,190.2c-0.2,2,1.5,3.9,3.6,3.5c1.4-0.7,2.6-1.7,3.7-2.8
						c1.2-1.1,2.1-2.3,2.8-3.8c4.6-54.8,9.3-109.6,14.7-164.3c4.6-45.6,9.4-91.1,14.8-136.6c4.5-38.4,9.1-76.8,12.8-115.4
						c5.3-55.2,10-110.4,13.3-165.7c0.5-7.9,0.8-15.8,1.4-23.7c0.5-6.3,0.7-12.6,1.1-18.9c1.6-25,2.4-50.1,3.1-75.2
						c0.8-26.8,1.4-53.6,1.3-80.4c-0.2-42.2-1.5-84.5-3.4-126.7c-2.9-64.3-7.7-128.5-14.5-192.5c-5-47.2-11.5-94.2-18.6-141.1
						c-9.8-65.3-19.6-130.5-28-196c-5.1-39.5-9.6-79.1-13.9-118.7c-2-18.8-4-37.6-5.8-56.4c-0.6-6.2-1.2-12.4-1.8-18.6
						c-0.4-3.8-0.8-7.6-1.2-11.3c-1.1-5.9-0.8-11.8,1-17.6c0.3-2.1-1.8-3.8-3.8-3.2c-1.5,0.9-2.7,2.1-3.8,3.5
						C252.4,32.4,251.4,33.9,250.8,35.5z"/>
					<path class="st0" d="M236.7,52.8c1.2,11.1,2,22.1,3.1,33.2c1.5,15.6,3.1,31.3,4.8,46.9c3.7,35.3,7.7,70.5,11.9,105.7
						c7.8,64.6,16.9,129,26.6,193.3c6.9,45.7,13.8,91.3,19.5,137.2c7.2,58.8,12.4,117.8,16.1,176.9c2.3,36.6,4,73.2,5.1,109.8
						c1,34,1.6,68,1.2,102c-0.6,47.8-2,95.6-5.1,143.3c-1.1,17-2.1,34-3.2,51.1c-2.1,30.6-4.5,61.1-7.2,91.6
						c-4,45.7-8.7,91.3-14,136.8c-5.5,46.3-10.8,92.6-15.5,139c-6.4,63.3-12,126.7-17.3,190.2c-0.2,1.5,0.5,2.2,2,2.1
						c2.7-0.8,4.9-2.3,6.8-4.4c3.9-3.4,7.6-6.9,11.1-10.6c2.2-1.8,3.8-4,4.7-6.6c2.3-23.4,4.3-46.8,6.3-70.2
						c1.2-13.9,2.4-27.8,3.7-41.8c1.6-17.2,3.5-34.5,5.3-51.7c4.8-45.6,9.2-91.3,14.4-136.9c1.9-16.3,3.8-32.7,5.6-49
						c2.5-22.3,5.2-44.6,6.9-66.9c2.2-28.8,5-57.5,7.4-86.3c2.2-26.8,3.8-53.7,4.8-80.6c0.3-8,0.5-15.9,1.1-23.9
						c0.3-3.9,0.7-7.8,0.8-11.6c0-2.5,0-5,0.1-7.5c0.1-1.6,0.3-3.3,0.4-4.9c0.5-5.8,0.6-11.8,0.8-17.7c0.7-17.7,1.2-35.3,1.6-53
						c0.4-15.5,0.8-31,0.7-46.5c0-11.7-0.6-23.3-0.8-35c-0.4-18.8-0.7-37.6-1.3-56.4c-0.7-23.6-1.7-47.2-2.9-70.8
						c-3.3-64.6-8.4-129.1-15.5-193.3c-5.3-47.3-12.3-94.4-19.2-141.4c-9.5-65.2-19.3-130.3-27.5-195.7c-5-39.4-9.2-78.9-13.2-118.3
						c-1.9-18.7-3.7-37.4-5.5-56.2c-0.6-6.1-1.2-12.3-1.7-18.4c-0.4-3.7-0.6-7.4-0.6-11.2c0-4.8-0.3-9.5-0.7-14.3
						c0-1.5-0.8-2.1-2.3-1.8c-2.5,1.1-4.6,2.8-6.1,5.1c-3.3,3.8-6.5,7.7-9.5,11.7C238.5,47.7,237.2,50.1,236.7,52.8z"/>
					<path class="st0" d="M243.7,33.5c0,2-0.1,4.1-0.1,6.1c-0.5,3.8-0.2,7.5,0.8,11.2c0.3,1.7,0.6,3.4,0.9,5c0.4,4,0.8,8,1.2,11.9
						c1.6,15.6,3.2,31.3,4.9,46.9c3.8,35.3,7.8,70.6,12.1,105.8c7.9,64.6,16.9,129,26.6,193.3c6.9,45.7,13.9,91.3,19.4,137.2
						c7.1,58.8,12.3,117.7,15.9,176.8c2.3,36.5,3.9,73.1,5,109.7c0.5,18.4,0.9,36.8,1.2,55.2c0.2,15.5,0,31-0.3,46.6
						c-0.5,29.7-1.3,59.4-2.4,89.1c-0.4,11.6-0.8,23.3-1.6,34.9c-0.5,6.4-0.9,12.8-1.2,19.2c-5.6,93.2-13.8,186.3-24.8,279.1
						c-5.5,46.3-10.9,92.5-15.6,138.8c-6.4,63.4-12.1,126.8-17.1,190.3c-0.1,1.6,2.1,3.6,3.6,3.4c1.7-0.2,4.2-3,4.4-4.7
						c8-100.5,17.5-200.8,29.4-300.9c4.6-38.5,9-77.1,12.8-115.7c5.4-55,9.9-110.1,13.5-165.3c0.9-14.1,1.7-28.1,2.6-42.2
						c1.6-25.2,2.3-50.5,3-75.8c0.7-26.6,1.4-53.2,1.6-79.8c0.1-18.7-0.5-37.5-0.9-56.2c-0.6-23.5-1.4-47-2.5-70.5
						c-2.9-64.4-7.6-128.6-14.4-192.7c-5-47.1-11.4-94.1-18.4-140.9c-9.8-65.2-19.6-130.3-27.9-195.7c-5-39.6-9.7-79.3-14.1-119
						c-2.1-18.9-4-37.7-6-56.6c-0.6-6.2-1.3-12.3-1.9-18.5c-0.1-3.7-0.6-7.3-1.7-10.8c-1.8-5.9-1.9-11.9-0.2-18.1
						c0.1-1.7-2.7-3.2-4.1-2.8C245.8,28.4,243.8,31.7,243.7,33.5z"/>
					<path class="st0" d="M229.5,39.2c0.2,5.5,0.5,11,1,16.5c0.5,5.8,1.1,11.7,1.7,17.5c1.5,15.6,3.1,31.3,4.8,46.9
						c3.7,35.3,7.7,70.5,11.9,105.8c7.8,64.6,16.9,129.1,26.5,193.5c6.9,45.7,13.8,91.3,19.5,137.2c7.2,58.7,12.5,117.7,16.2,176.7
						c2.3,36.5,4,73.1,5.1,109.6c1,33.9,1.7,67.9,1.2,101.8c-0.4,29.7-1.2,59.4-2.3,89.1c-0.7,18-1.5,36-2.7,54c-1.2,17-2,34-3.2,51
						c-2.1,30.5-4.5,61-7.2,91.5c-4,45.6-8.6,91.2-13.9,136.7c-5.4,46.3-10.8,92.6-15.5,138.9c-6.4,63.4-12.1,126.8-17.3,190.2
						c-0.3,1.2,0,2.2,1,3c1.1,0.6,2.1,0.6,3.1-0.2c1.8-1.7,3.4-3.6,4.7-5.7c1.5-2,2.7-4.1,3.6-6.4c4.8-54.8,9.5-109.6,15.1-164.3
						c4.7-45.6,9.4-91.1,14.7-136.6c4.4-38.4,9.1-76.9,12.5-115.4c4.9-55.2,9.8-110.3,12.7-165.6c0.4-7.9,0.7-15.8,1.2-23.6
						c0.3-3.8,0.6-7.7,0.7-11.5c0.1-2.5,0.1-4.9,0.2-7.4c1.4-25.1,2.1-50.1,2.7-75.2c0.6-26.7,1-53.4,0.7-80.1
						c-0.5-42.2-1.8-84.4-3.9-126.5c-3.2-64.2-8.2-128.3-15.1-192.2c-5.2-47.1-11.9-94.1-18.8-140.9
						c-9.7-65.3-19.3-130.7-27.6-196.2c-5-39.6-9.5-79.2-13.7-118.9c-2-18.8-3.9-37.6-5.7-56.5c-0.6-6.2-1.2-12.4-1.8-18.6
						c-0.4-3.8-0.8-7.6-1-11.5c-0.6-5.5-0.7-11-0.3-16.5c0-2.6-2.3-3.8-4.4-2.3c-1.5,1.7-2.7,3.7-3.7,5.7
						C230.9,34.9,230.1,37,229.5,39.2z"/>
				</g>
			</g>
		</g>
	</g>
</g>
</svg>
