<?xml version="1.0" encoding="utf-8"?>
<!-- Generator: Adobe Illustrator 27.9.2, SVG Export Plug-In . SVG Version: 6.00 Build 0)  -->
<svg version="1.1" id="Layer_1" xmlns="http://www.w3.org/2000/svg" xmlns:xlink="http://www.w3.org/1999/xlink" x="0px" y="0px"
	 viewBox="0 0 785.73 183.46" style="enable-background:new 0 0 785.73 183.46;" xml:space="preserve">
<style type="text/css">
	.st0{fill:#FFFFFF;stroke:#020203;stroke-miterlimit:10;}
	.st1{fill:#020203;stroke:#020203;stroke-miterlimit:10;}
	.st2{fill:#020203;}
</style>
<path class="st0" d="M313.02-207.66"/>
<g>
	<path class="st1" d="M20.19,183.46c-18.92-78.2-9.49-103.4,3.35-111.39c11.47-7.17,33.33-6.9,33.46-6.15
		c0.14,0.61-13.18,6.42-19.6,1.5c-7.99-6.08-5.19-28.62,6.97-42.07c12.43-13.73,31.14-14.21,42.55-14.48
		c11.34-0.27,35.24-0.82,48.08,15.71c9.83,12.7,11.34,33.19,3,39.68c-7.72,6.01-23.56,0.14-23.43-1.16c0.14-1.5,23.02-4.23,35.31,3
		c13.18,7.79,21.17,34.15,2.32,112.28C108.08,181.48,64.17,182.44,20.19,183.46z"/>
	<path class="st1" d="M151.52,183.46H20.19H151.52z"/>
	<line class="st1" x1="152.2" y1="180.39" x2="151.52" y2="183.46"/>
	<g>
		<g>
			<path class="st2" d="M147.58,180.61c0.01,0.47,0.03,0.93,0.04,1.4c0.83-0.83,1.67-1.67,2.5-2.5c-5.22-0.38-10.46-0.6-15.69-0.66
				c-1.35-0.02-2.5,1.16-2.5,2.5c0,1.45,1.15,2.38,2.5,2.5c0.57,0.05,1.12,0.21,1.67,0.38c0.22-1.64,0.44-3.27,0.66-4.91
				c-1.57-0.12-3.14-0.24-4.71-0.36c-1.35-0.1-2.5,1.22-2.5,2.5c0,1.44,1.15,2.4,2.5,2.5c1.57,0.12,3.14,0.24,4.71,0.36
				c1.22,0.09,2.32-1.02,2.46-2.17c0.15-1.25-0.58-2.36-1.79-2.74c-0.98-0.31-1.98-0.47-3-0.56c0,1.67,0,3.33,0,5
				c5.24,0.06,10.47,0.28,15.69,0.66c1.32,0.1,2.54-1.22,2.5-2.5c-0.01-0.47-0.03-0.93-0.04-1.4c-0.04-1.35-1.12-2.5-2.5-2.5
				C148.76,178.11,147.54,179.25,147.58,180.61L147.58,180.61z"/>
		</g>
	</g>
	<g>
		<g>
			<path class="st2" d="M133.06,179.2c-0.66,0.04-1.32,0.02-1.98-0.07c0.22,0.03,0.44,0.06,0.66,0.09
				c-0.49-0.07-0.98-0.17-1.45-0.31c-0.85-0.25-1.81,0.02-2.43,0.64c-0.65,0.65-0.85,1.55-0.64,2.43c0.02,0.11,0.05,0.21,0.07,0.32
				c1.03-1.03,2.05-2.05,3.08-3.08c-1.27-0.33-2.62-0.48-3.92-0.37c-0.64,0.06-1.31,0.23-1.77,0.73c-0.38,0.41-0.61,0.88-0.69,1.44
				c-0.16,1.19,0.58,2.44,1.79,2.74c0.57,0.14,1.14,0.28,1.71,0.43c0.64,0.16,1.35,0.08,1.93-0.25c0.52-0.3,1.01-0.9,1.15-1.49
				c0.3-1.3-0.39-2.74-1.75-3.08c-0.57-0.14-1.14-0.28-1.71-0.43c-0.22,1.64-0.44,3.27-0.66,4.91c0.72-0.06,1.43-0.04,2.14,0.05
				c-0.22-0.03-0.44-0.06-0.66-0.09c0.38,0.06,0.75,0.13,1.11,0.23c0.87,0.23,1.8-0.01,2.43-0.64c0.65-0.65,0.85-1.55,0.64-2.43
				c-0.02-0.11-0.05-0.21-0.07-0.32c-1.03,1.03-2.05,2.05-3.08,3.08c1.32,0.38,2.73,0.55,4.1,0.47c0.66-0.04,1.29-0.25,1.77-0.73
				c0.43-0.43,0.76-1.15,0.73-1.77c-0.03-0.65-0.24-1.32-0.73-1.77C134.36,179.5,133.72,179.16,133.06,179.2L133.06,179.2z"/>
		</g>
	</g>
	<g>
		<g>
			<path class="st2" d="M126.52,178.95c-2.02,0.05-4.03-0.01-6.04-0.18c-0.58-0.05-1.38,0.31-1.77,0.73
				c-0.38,0.41-0.61,0.88-0.69,1.44c-0.07,0.53,0,1.13,0.3,1.59c0.33,0.51,0.86,1.05,1.49,1.15c0.62,0.1,1.24,0.2,1.86,0.31
				c0.68,0.11,1.31,0.11,1.93-0.25c0.52-0.3,1.01-0.9,1.15-1.49c0.15-0.64,0.11-1.36-0.25-1.93c-0.33-0.51-0.86-1.05-1.49-1.15
				c-0.62-0.1-1.24-0.2-1.86-0.31c-0.22,1.64-0.44,3.27-0.66,4.91c2.01,0.17,4.03,0.23,6.04,0.18c0.65-0.02,1.3-0.27,1.77-0.73
				c0.43-0.43,0.76-1.15,0.73-1.77C128.96,180.12,127.92,178.91,126.52,178.95L126.52,178.95z"/>
		</g>
	</g>
	<g>
		<g>
			<path class="st2" d="M120.38,179.19c-1.33-0.11-2.66-0.22-3.99-0.33c-0.34-0.01-0.67,0.06-0.96,0.22
				c-0.31,0.1-0.58,0.27-0.8,0.52c-0.43,0.43-0.76,1.15-0.73,1.77c0.03,0.65,0.24,1.32,0.73,1.77c0.17,0.13,0.34,0.26,0.51,0.39
				c0.39,0.23,0.81,0.34,1.26,0.34c0.81,0.08,1.63,0.16,2.44,0.24c0.34,0.01,0.67-0.06,0.96-0.22c0.31-0.1,0.58-0.27,0.8-0.52
				c0.43-0.43,0.76-1.15,0.73-1.77c-0.03-0.65-0.24-1.32-0.73-1.77c-0.17-0.13-0.34-0.26-0.51-0.39c-0.39-0.23-0.81-0.34-1.26-0.34
				c-0.81-0.08-1.63-0.16-2.44-0.24c0,1.67,0,3.33,0,5c1.33,0.11,2.66,0.22,3.99,0.33c0.34,0.01,0.67-0.06,0.96-0.22
				c0.31-0.1,0.58-0.27,0.8-0.52c0.43-0.43,0.76-1.15,0.73-1.77c-0.03-0.65-0.24-1.32-0.73-1.77c-0.17-0.13-0.34-0.26-0.51-0.39
				C121.25,179.31,120.83,179.19,120.38,179.19L120.38,179.19z"/>
		</g>
	</g>
	<g>
		<g>
			<path class="st2" d="M116.49,178.91c-0.28,0.03-0.55,0.06-0.83,0.09c-0.34-0.01-0.67,0.06-0.96,0.22
				c-0.31,0.1-0.58,0.27-0.8,0.52c-0.24,0.23-0.42,0.49-0.52,0.8c-0.16,0.3-0.23,0.62-0.22,0.96c0.03,0.22,0.06,0.44,0.09,0.66
				c0.12,0.42,0.33,0.79,0.64,1.1c0.17,0.13,0.34,0.26,0.51,0.39c0.39,0.23,0.81,0.34,1.26,0.34c0.64,0.01,1.28,0.03,1.92,0.04
				c0.34,0.01,0.67-0.06,0.96-0.22c0.31-0.1,0.58-0.27,0.8-0.52c0.24-0.23,0.42-0.49,0.52-0.8c0.16-0.3,0.23-0.62,0.22-0.96
				c-0.03-0.22-0.06-0.44-0.09-0.66c-0.12-0.42-0.33-0.79-0.64-1.1c-0.17-0.13-0.34-0.26-0.51-0.39c-0.39-0.23-0.81-0.34-1.26-0.34
				c-0.64-0.01-1.28-0.03-1.92-0.04c0,1.67,0,3.33,0,5c0.28-0.03,0.55-0.06,0.83-0.09c0.34,0.01,0.67-0.06,0.96-0.22
				c0.31-0.1,0.58-0.27,0.8-0.52c0.24-0.23,0.42-0.49,0.52-0.8c0.16-0.3,0.23-0.62,0.22-0.96c-0.03-0.22-0.06-0.44-0.09-0.66
				c-0.12-0.42-0.33-0.79-0.64-1.1c-0.17-0.13-0.34-0.26-0.51-0.39C117.36,179.02,116.94,178.91,116.49,178.91L116.49,178.91z"/>
		</g>
	</g>
	<g>
		<g>
			<path class="st2" d="M114.99,179.11c-2.39-0.09-4.79-0.17-7.18-0.26c0,1.67,0,3.33,0,5c0.73,0.02,1,0.07,1.71,0.26
				c0.22-1.64,0.44-3.27,0.66-4.91c-3.86-0.12-7.72-0.23-11.59-0.35c-1.31-0.04-2.56,1.18-2.5,2.5c0.06,1.41,1.1,2.43,2.5,2.5
				c0.97,0.05,1.94,0.1,2.92,0.15c1.31,0.07,2.56-1.2,2.5-2.5c-0.06-1.41-1.1-2.43-2.5-2.5c-0.97-0.05-1.94-0.1-2.92-0.15
				c0,1.67,0,3.33,0,5c3.86,0.11,7.72,0.23,11.59,0.35c2.84,0.08,3.36-4.16,0.66-4.91c-0.99-0.27-2.02-0.42-3.04-0.44
				c-1.31-0.03-2.56,1.17-2.5,2.5c0.06,1.39,1.1,2.45,2.5,2.5c2.39,0.09,4.79,0.17,7.18,0.26c1.31,0.05,2.56-1.18,2.5-2.5
				C117.43,180.22,116.39,179.16,114.99,179.11L114.99,179.11z"/>
		</g>
	</g>
	<g>
		<g>
			<path class="st2" d="M94.81,183.92c1.71,0.11,3.42,0.22,5.13,0.33c0-1.67,0-3.33,0-5c-4.19-0.12-8.38-0.25-12.57-0.37
				c-1.35-0.04-2.5,1.18-2.5,2.5c0,1.45,1.15,2.38,2.5,2.5c0.62,0.06,1.24,0.11,1.87,0.17c0-1.67,0-3.33,0-5
				c-2.99,0.14-5.97,0.06-8.94-0.24c-1.08-0.11-2.14,0.85-2.41,1.84c-0.3,1.08,0.2,2.24,1.15,2.82c0.99,0.61,2.05,0.89,3.2,0.94
				c1.35,0.07,2.5-1.2,2.5-2.5c0-1.41-1.15-2.43-2.5-2.5c0.26,0.01-0.26-0.04-0.35-0.07c-0.37-0.14,0.26,0.18-0.33-0.19
				c-0.42,1.55-0.84,3.11-1.26,4.66c2.97,0.3,5.96,0.38,8.94,0.24c1.35-0.06,2.5-1.1,2.5-2.5c0-1.45-1.15-2.38-2.5-2.5
				c-0.62-0.06-1.24-0.11-1.87-0.17c0,1.67,0,3.33,0,5c4.19,0.12,8.38,0.25,12.57,0.37c1.35,0.04,2.5-1.18,2.5-2.5
				c0-1.43-1.15-2.41-2.5-2.5c-1.71-0.11-3.42-0.22-5.13-0.33c-1.35-0.09-2.5,1.21-2.5,2.5C92.31,182.84,93.46,183.83,94.81,183.92
				L94.81,183.92z"/>
		</g>
	</g>
	<g>
		<g>
			<path class="st2" d="M79.95,179.2c-2.76-0.1-5.52-0.2-8.27-0.3c-1.23-0.04-2.31,0.98-2.46,2.17c-0.16,1.33,0.61,2.25,1.79,2.74
				c1.1,0.46,2.23,0.43,3.38,0.23c1.21-0.21,1.96-1.62,1.79-2.74c-0.18-1.2-1.19-2.19-2.46-2.17c-3.9,0.07-7.81-0.03-11.7-0.3
				c-2.85-0.2-3.34,4.19-0.66,4.91c0.58,0.16,1.15,0.31,1.73,0.47c3.11,0.84,4.44-3.98,1.33-4.82c-0.58-0.16-1.15-0.31-1.73-0.47
				c-0.22,1.64-0.44,3.27-0.66,4.91c3.9,0.27,7.8,0.37,11.7,0.3c-0.22-1.64-0.44-3.27-0.66-4.91c0.25-0.04-0.38-0.06-0.2-0.02
				c0.01,0-0.46-0.18-0.53-0.21c-0.22,1.64-0.44,3.27-0.66,4.91c2.76,0.1,5.52,0.2,8.27,0.3c1.35,0.05,2.5-1.18,2.5-2.5
				C82.45,180.3,81.31,179.25,79.95,179.2L79.95,179.2z"/>
		</g>
	</g>
	<g>
		<g>
			<path class="st2" d="M61.51,179.1c-2.88-0.06-5.75-0.12-8.63-0.18c0,1.67,0,3.33,0,5c0.79,0,1.58,0.01,2.37,0.01
				c0-1.67,0-3.33,0-5c-1.79,0.01-3.58,0.02-5.37,0.03c-1.31,0.01-2.56,1.14-2.5,2.5c0.06,1.35,1.1,2.51,2.5,2.5
				c1.79-0.01,3.58-0.02,5.37-0.03c1.31-0.01,2.56-1.14,2.5-2.5c-0.06-1.36-1.1-2.49-2.5-2.5c-0.79,0-1.58-0.01-2.37-0.01
				c-1.31-0.01-2.56,1.16-2.5,2.5c0.06,1.38,1.1,2.47,2.5,2.5c2.88,0.06,5.75,0.12,8.63,0.18c1.31,0.03,2.56-1.17,2.5-2.5
				C63.95,180.22,62.92,179.13,61.51,179.1L61.51,179.1z"/>
		</g>
	</g>
</g>
<g>
	<path class="st1" d="M174.05,183.46c-18.92-78.2-9.49-103.4,3.35-111.39c11.47-7.17,33.33-6.9,33.46-6.15
		c0.14,0.61-13.18,6.42-19.6,1.5c-7.99-6.08-5.19-28.62,6.97-42.07c12.43-13.73,31.14-14.21,42.55-14.48
		c11.34-0.27,35.24-0.82,48.08,15.71c9.83,12.7,11.34,33.19,3,39.68c-7.72,6.01-23.56,0.14-23.43-1.16c0.14-1.5,23.02-4.23,35.31,3
		c13.18,7.79,21.17,34.15,2.32,112.28C261.94,181.48,218.03,182.44,174.05,183.46z"/>
	<path class="st1" d="M305.38,183.46H174.05H305.38z"/>
	<line class="st1" x1="306.06" y1="180.39" x2="305.38" y2="183.46"/>
	<g>
		<g>
			<path class="st2" d="M301.44,180.61c0.01,0.47,0.03,0.93,0.04,1.4c0.83-0.83,1.67-1.67,2.5-2.5c-5.22-0.38-10.46-0.6-15.69-0.66
				c-1.35-0.02-2.5,1.16-2.5,2.5c0,1.45,1.15,2.38,2.5,2.5c0.57,0.05,1.12,0.21,1.67,0.38c0.22-1.64,0.44-3.27,0.66-4.91
				c-1.57-0.12-3.14-0.24-4.71-0.36c-1.35-0.1-2.5,1.22-2.5,2.5c0,1.44,1.15,2.4,2.5,2.5c1.57,0.12,3.14,0.24,4.71,0.36
				c1.22,0.09,2.32-1.02,2.46-2.17c0.15-1.25-0.58-2.36-1.79-2.74c-0.98-0.31-1.98-0.47-3-0.56c0,1.67,0,3.33,0,5
				c5.24,0.06,10.47,0.28,15.69,0.66c1.32,0.1,2.54-1.22,2.5-2.5c-0.01-0.47-0.03-0.93-0.04-1.4c-0.04-1.35-1.12-2.5-2.5-2.5
				C302.62,178.11,301.4,179.25,301.44,180.61L301.44,180.61z"/>
		</g>
	</g>
	<g>
		<g>
			<path class="st2" d="M286.92,179.2c-0.66,0.04-1.32,0.02-1.98-0.07c0.22,0.03,0.44,0.06,0.66,0.09
				c-0.49-0.07-0.98-0.17-1.45-0.31c-0.85-0.25-1.81,0.02-2.43,0.64c-0.65,0.65-0.85,1.55-0.64,2.43c0.02,0.11,0.05,0.21,0.07,0.32
				c1.03-1.03,2.05-2.05,3.08-3.08c-1.27-0.33-2.62-0.48-3.92-0.37c-0.64,0.06-1.31,0.23-1.77,0.73c-0.38,0.41-0.61,0.88-0.69,1.44
				c-0.16,1.19,0.58,2.44,1.79,2.74c0.57,0.14,1.14,0.28,1.71,0.43c0.64,0.16,1.35,0.08,1.93-0.25c0.52-0.3,1.01-0.9,1.15-1.49
				c0.3-1.3-0.39-2.74-1.75-3.08c-0.57-0.14-1.14-0.28-1.71-0.43c-0.22,1.64-0.44,3.27-0.66,4.91c0.72-0.06,1.43-0.04,2.14,0.05
				c-0.22-0.03-0.44-0.06-0.66-0.09c0.38,0.06,0.75,0.13,1.11,0.23c0.87,0.23,1.8-0.01,2.43-0.64c0.65-0.65,0.85-1.55,0.64-2.43
				c-0.02-0.11-0.05-0.21-0.07-0.32c-1.03,1.03-2.05,2.05-3.08,3.08c1.32,0.38,2.73,0.55,4.1,0.47c0.66-0.04,1.29-0.25,1.77-0.73
				c0.43-0.43,0.76-1.15,0.73-1.77c-0.03-0.65-0.24-1.32-0.73-1.77C288.21,179.5,287.58,179.16,286.92,179.2L286.92,179.2z"/>
		</g>
	</g>
	<g>
		<g>
			<path class="st2" d="M280.38,178.95c-2.02,0.05-4.03-0.01-6.04-0.18c-0.58-0.05-1.38,0.31-1.77,0.73
				c-0.38,0.41-0.61,0.88-0.69,1.44c-0.07,0.53,0,1.13,0.3,1.59c0.33,0.51,0.86,1.05,1.49,1.15c0.62,0.1,1.24,0.2,1.86,0.31
				c0.68,0.11,1.31,0.11,1.93-0.25c0.52-0.3,1.01-0.9,1.15-1.49c0.15-0.64,0.11-1.36-0.25-1.93c-0.33-0.51-0.86-1.05-1.49-1.15
				c-0.62-0.1-1.24-0.2-1.86-0.31c-0.22,1.64-0.44,3.27-0.66,4.91c2.01,0.17,4.03,0.23,6.04,0.18c0.65-0.02,1.3-0.27,1.77-0.73
				c0.43-0.43,0.76-1.15,0.73-1.77C282.82,180.12,281.78,178.91,280.38,178.95L280.38,178.95z"/>
		</g>
	</g>
	<g>
		<g>
			<path class="st2" d="M274.24,179.19c-1.33-0.11-2.66-0.22-3.99-0.33c-0.34-0.01-0.67,0.06-0.96,0.22
				c-0.31,0.1-0.58,0.27-0.8,0.52c-0.43,0.43-0.76,1.15-0.73,1.77c0.03,0.65,0.24,1.32,0.73,1.77c0.17,0.13,0.34,0.26,0.51,0.39
				c0.39,0.23,0.81,0.34,1.26,0.34c0.81,0.08,1.63,0.16,2.44,0.24c0.34,0.01,0.67-0.06,0.96-0.22c0.31-0.1,0.58-0.27,0.8-0.52
				c0.43-0.43,0.76-1.15,0.73-1.77c-0.03-0.65-0.24-1.32-0.73-1.77c-0.17-0.13-0.34-0.26-0.51-0.39c-0.39-0.23-0.81-0.34-1.26-0.34
				c-0.81-0.08-1.63-0.16-2.44-0.24c0,1.67,0,3.33,0,5c1.33,0.11,2.66,0.22,3.99,0.33c0.34,0.01,0.67-0.06,0.96-0.22
				c0.31-0.1,0.58-0.27,0.8-0.52c0.43-0.43,0.76-1.15,0.73-1.77c-0.03-0.65-0.24-1.32-0.73-1.77c-0.17-0.13-0.34-0.26-0.51-0.39
				C275.11,179.31,274.69,179.19,274.24,179.19L274.24,179.19z"/>
		</g>
	</g>
	<g>
		<g>
			<path class="st2" d="M270.35,178.91c-0.28,0.03-0.55,0.06-0.83,0.09c-0.34-0.01-0.67,0.06-0.96,0.22
				c-0.31,0.1-0.58,0.27-0.8,0.52c-0.24,0.23-0.42,0.49-0.52,0.8c-0.16,0.3-0.23,0.62-0.22,0.96c0.03,0.22,0.06,0.44,0.09,0.66
				c0.12,0.42,0.33,0.79,0.64,1.1c0.17,0.13,0.34,0.26,0.51,0.39c0.39,0.23,0.81,0.34,1.26,0.34c0.64,0.01,1.28,0.03,1.92,0.04
				c0.34,0.01,0.67-0.06,0.96-0.22c0.31-0.1,0.58-0.27,0.8-0.52c0.24-0.23,0.42-0.49,0.52-0.8c0.16-0.3,0.23-0.62,0.22-0.96
				c-0.03-0.22-0.06-0.44-0.09-0.66c-0.12-0.42-0.33-0.79-0.64-1.1c-0.17-0.13-0.34-0.26-0.51-0.39c-0.39-0.23-0.81-0.34-1.26-0.34
				c-0.64-0.01-1.28-0.03-1.92-0.04c0,1.67,0,3.33,0,5c0.28-0.03,0.55-0.06,0.83-0.09c0.34,0.01,0.67-0.06,0.96-0.22
				c0.31-0.1,0.58-0.27,0.8-0.52c0.24-0.23,0.42-0.49,0.52-0.8c0.16-0.3,0.23-0.62,0.22-0.96c-0.03-0.22-0.06-0.44-0.09-0.66
				c-0.12-0.42-0.33-0.79-0.64-1.1c-0.17-0.13-0.34-0.26-0.51-0.39C271.22,179.02,270.8,178.91,270.35,178.91L270.35,178.91z"/>
		</g>
	</g>
	<g>
		<g>
			<path class="st2" d="M268.85,179.11c-2.39-0.09-4.79-0.17-7.18-0.26c0,1.67,0,3.33,0,5c0.73,0.02,1,0.07,1.71,0.26
				c0.22-1.64,0.44-3.27,0.66-4.91c-3.86-0.12-7.72-0.23-11.59-0.35c-1.31-0.04-2.56,1.18-2.5,2.5c0.06,1.41,1.1,2.43,2.5,2.5
				c0.97,0.05,1.94,0.1,2.92,0.15c1.31,0.07,2.56-1.2,2.5-2.5c-0.06-1.41-1.1-2.43-2.5-2.5c-0.97-0.05-1.94-0.1-2.92-0.15
				c0,1.67,0,3.33,0,5c3.86,0.11,7.72,0.23,11.59,0.35c2.84,0.08,3.36-4.16,0.66-4.91c-0.99-0.27-2.02-0.42-3.04-0.44
				c-1.31-0.03-2.56,1.17-2.5,2.5c0.06,1.39,1.1,2.45,2.5,2.5c2.39,0.09,4.79,0.17,7.18,0.26c1.31,0.05,2.56-1.18,2.5-2.5
				C271.29,180.22,270.25,179.16,268.85,179.11L268.85,179.11z"/>
		</g>
	</g>
	<g>
		<g>
			<path class="st2" d="M248.67,183.92c1.71,0.11,3.42,0.22,5.13,0.33c0-1.67,0-3.33,0-5c-4.19-0.12-8.38-0.25-12.57-0.37
				c-1.35-0.04-2.5,1.18-2.5,2.5c0,1.45,1.15,2.38,2.5,2.5c0.62,0.06,1.24,0.11,1.87,0.17c0-1.67,0-3.33,0-5
				c-2.99,0.14-5.97,0.06-8.94-0.24c-1.08-0.11-2.14,0.85-2.41,1.84c-0.3,1.08,0.2,2.24,1.15,2.82c0.99,0.61,2.05,0.89,3.2,0.94
				c1.35,0.07,2.5-1.2,2.5-2.5c0-1.41-1.15-2.43-2.5-2.5c0.26,0.01-0.26-0.04-0.35-0.07c-0.37-0.14,0.26,0.18-0.33-0.19
				c-0.42,1.55-0.84,3.11-1.26,4.66c2.97,0.3,5.96,0.38,8.94,0.24c1.35-0.06,2.5-1.1,2.5-2.5c0-1.45-1.15-2.38-2.5-2.5
				c-0.62-0.06-1.24-0.11-1.87-0.17c0,1.67,0,3.33,0,5c4.19,0.12,8.38,0.25,12.57,0.37c1.35,0.04,2.5-1.18,2.5-2.5
				c0-1.43-1.15-2.41-2.5-2.5c-1.71-0.11-3.42-0.22-5.13-0.33c-1.35-0.09-2.5,1.21-2.5,2.5
				C246.17,182.84,247.32,183.83,248.67,183.92L248.67,183.92z"/>
		</g>
	</g>
	<g>
		<g>
			<path class="st2" d="M233.81,179.2c-2.76-0.1-5.52-0.2-8.27-0.3c-1.23-0.04-2.31,0.98-2.46,2.17c-0.16,1.33,0.61,2.25,1.79,2.74
				c1.1,0.46,2.23,0.43,3.38,0.23c1.21-0.21,1.96-1.62,1.79-2.74c-0.18-1.2-1.19-2.19-2.46-2.17c-3.9,0.07-7.81-0.03-11.7-0.3
				c-2.85-0.2-3.34,4.19-0.66,4.91c0.58,0.16,1.15,0.31,1.73,0.47c3.11,0.84,4.44-3.98,1.33-4.82c-0.58-0.16-1.15-0.31-1.73-0.47
				c-0.22,1.64-0.44,3.27-0.66,4.91c3.9,0.27,7.8,0.37,11.7,0.3c-0.22-1.64-0.44-3.27-0.66-4.91c0.25-0.04-0.38-0.06-0.2-0.02
				c0.01,0-0.46-0.18-0.53-0.21c-0.22,1.64-0.44,3.27-0.66,4.91c2.76,0.1,5.52,0.2,8.27,0.3c1.35,0.05,2.5-1.18,2.5-2.5
				C236.31,180.3,235.17,179.25,233.81,179.2L233.81,179.2z"/>
		</g>
	</g>
	<g>
		<g>
			<path class="st2" d="M215.37,179.1c-2.88-0.06-5.75-0.12-8.63-0.18c0,1.67,0,3.33,0,5c0.79,0,1.58,0.01,2.37,0.01
				c0-1.67,0-3.33,0-5c-1.79,0.01-3.58,0.02-5.37,0.03c-1.31,0.01-2.56,1.14-2.5,2.5c0.06,1.35,1.1,2.51,2.5,2.5
				c1.79-0.01,3.58-0.02,5.37-0.03c1.31-0.01,2.56-1.14,2.5-2.5c-0.06-1.36-1.1-2.49-2.5-2.5c-0.79,0-1.58-0.01-2.37-0.01
				c-1.31-0.01-2.56,1.16-2.5,2.5c0.06,1.38,1.1,2.47,2.5,2.5c2.88,0.06,5.75,0.12,8.63,0.18c1.31,0.03,2.56-1.17,2.5-2.5
				C217.81,180.22,216.77,179.13,215.37,179.1L215.37,179.1z"/>
		</g>
	</g>
</g>
<g>
	<path class="st1" d="M326.69,183.46c-18.92-78.2-9.49-103.4,3.35-111.39c11.47-7.17,33.33-6.9,33.46-6.15
		c0.14,0.61-13.18,6.42-19.6,1.5c-7.99-6.08-5.19-28.62,6.97-42.07c12.43-13.73,31.14-14.21,42.55-14.48
		c11.34-0.27,35.24-0.82,48.08,15.71c9.83,12.7,11.34,33.19,3,39.68c-7.72,6.01-23.56,0.14-23.43-1.16c0.14-1.5,23.02-4.23,35.31,3
		c13.18,7.79,21.17,34.15,2.32,112.28C414.59,181.48,370.67,182.44,326.69,183.46z"/>
	<path class="st1" d="M458.02,183.46H326.69H458.02z"/>
	<line class="st1" x1="458.7" y1="180.39" x2="458.02" y2="183.46"/>
	<g>
		<g>
			<path class="st2" d="M454.08,180.61c0.01,0.47,0.03,0.93,0.04,1.4c0.83-0.83,1.67-1.67,2.5-2.5c-5.22-0.38-10.46-0.6-15.69-0.66
				c-1.35-0.02-2.5,1.16-2.5,2.5c0,1.45,1.15,2.38,2.5,2.5c0.57,0.05,1.12,0.21,1.67,0.38c0.22-1.64,0.44-3.27,0.66-4.91
				c-1.57-0.12-3.14-0.24-4.71-0.36c-1.35-0.1-2.5,1.22-2.5,2.5c0,1.44,1.15,2.4,2.5,2.5c1.57,0.12,3.14,0.24,4.71,0.36
				c1.22,0.09,2.32-1.02,2.46-2.17c0.15-1.25-0.58-2.36-1.79-2.74c-0.98-0.31-1.98-0.47-3-0.56c0,1.67,0,3.33,0,5
				c5.24,0.06,10.47,0.28,15.69,0.66c1.32,0.1,2.54-1.22,2.5-2.5c-0.01-0.47-0.03-0.93-0.04-1.4c-0.04-1.35-1.12-2.5-2.5-2.5
				C455.26,178.11,454.04,179.25,454.08,180.61L454.08,180.61z"/>
		</g>
	</g>
	<g>
		<g>
			<path class="st2" d="M439.56,179.2c-0.66,0.04-1.32,0.02-1.98-0.07c0.22,0.03,0.44,0.06,0.66,0.09
				c-0.49-0.07-0.98-0.17-1.45-0.31c-0.85-0.25-1.81,0.02-2.43,0.64c-0.65,0.65-0.85,1.55-0.64,2.43c0.02,0.11,0.05,0.21,0.07,0.32
				c1.03-1.03,2.05-2.05,3.08-3.08c-1.27-0.33-2.62-0.48-3.92-0.37c-0.64,0.06-1.31,0.23-1.77,0.73c-0.38,0.41-0.61,0.88-0.69,1.44
				c-0.16,1.19,0.58,2.44,1.79,2.74c0.57,0.14,1.14,0.28,1.71,0.43c0.64,0.16,1.35,0.08,1.93-0.25c0.52-0.3,1.01-0.9,1.15-1.49
				c0.3-1.3-0.39-2.74-1.75-3.08c-0.57-0.14-1.14-0.28-1.71-0.43c-0.22,1.64-0.44,3.27-0.66,4.91c0.72-0.06,1.43-0.04,2.14,0.05
				c-0.22-0.03-0.44-0.06-0.66-0.09c0.38,0.06,0.75,0.13,1.11,0.23c0.87,0.23,1.8-0.01,2.43-0.64c0.65-0.65,0.85-1.55,0.64-2.43
				c-0.02-0.11-0.05-0.21-0.07-0.32c-1.03,1.03-2.05,2.05-3.08,3.08c1.32,0.38,2.73,0.55,4.1,0.47c0.66-0.04,1.29-0.25,1.77-0.73
				c0.43-0.43,0.76-1.15,0.73-1.77c-0.03-0.65-0.24-1.32-0.73-1.77C440.86,179.5,440.22,179.16,439.56,179.2L439.56,179.2z"/>
		</g>
	</g>
	<g>
		<g>
			<path class="st2" d="M433.02,178.95c-2.02,0.05-4.03-0.01-6.04-0.18c-0.58-0.05-1.38,0.31-1.77,0.73
				c-0.38,0.41-0.61,0.88-0.69,1.44c-0.07,0.53,0,1.13,0.3,1.59c0.33,0.51,0.86,1.05,1.49,1.15c0.62,0.1,1.24,0.2,1.86,0.31
				c0.68,0.11,1.31,0.11,1.93-0.25c0.52-0.3,1.01-0.9,1.15-1.49c0.15-0.64,0.11-1.36-0.25-1.93c-0.33-0.51-0.86-1.05-1.49-1.15
				c-0.62-0.1-1.24-0.2-1.86-0.31c-0.22,1.64-0.44,3.27-0.66,4.91c2.01,0.17,4.03,0.23,6.04,0.18c0.65-0.02,1.3-0.27,1.77-0.73
				c0.43-0.43,0.76-1.15,0.73-1.77C435.47,180.12,434.43,178.91,433.02,178.95L433.02,178.95z"/>
		</g>
	</g>
	<g>
		<g>
			<path class="st2" d="M426.88,179.19c-1.33-0.11-2.66-0.22-3.99-0.33c-0.34-0.01-0.67,0.06-0.96,0.22
				c-0.31,0.1-0.58,0.27-0.8,0.52c-0.43,0.43-0.76,1.15-0.73,1.77c0.03,0.65,0.24,1.32,0.73,1.77c0.17,0.13,0.34,0.26,0.51,0.39
				c0.39,0.23,0.81,0.34,1.26,0.34c0.81,0.08,1.63,0.16,2.44,0.24c0.34,0.01,0.67-0.06,0.96-0.22c0.31-0.1,0.58-0.27,0.8-0.52
				c0.43-0.43,0.76-1.15,0.73-1.77c-0.03-0.65-0.24-1.32-0.73-1.77c-0.17-0.13-0.34-0.26-0.51-0.39c-0.39-0.23-0.81-0.34-1.26-0.34
				c-0.81-0.08-1.63-0.16-2.44-0.24c0,1.67,0,3.33,0,5c1.33,0.11,2.66,0.22,3.99,0.33c0.34,0.01,0.67-0.06,0.96-0.22
				c0.31-0.1,0.58-0.27,0.8-0.52c0.43-0.43,0.76-1.15,0.73-1.77c-0.03-0.65-0.24-1.32-0.73-1.77c-0.17-0.13-0.34-0.26-0.51-0.39
				C427.76,179.31,427.33,179.19,426.88,179.19L426.88,179.19z"/>
		</g>
	</g>
	<g>
		<g>
			<path class="st2" d="M422.99,178.91c-0.28,0.03-0.55,0.06-0.83,0.09c-0.34-0.01-0.67,0.06-0.96,0.22
				c-0.31,0.1-0.58,0.27-0.8,0.52c-0.24,0.23-0.42,0.49-0.52,0.8c-0.16,0.3-0.23,0.62-0.22,0.96c0.03,0.22,0.06,0.44,0.09,0.66
				c0.12,0.42,0.33,0.79,0.64,1.1c0.17,0.13,0.34,0.26,0.51,0.39c0.39,0.23,0.81,0.34,1.26,0.34c0.64,0.01,1.28,0.03,1.92,0.04
				c0.34,0.01,0.67-0.06,0.96-0.22c0.31-0.1,0.58-0.27,0.8-0.52c0.24-0.23,0.42-0.49,0.52-0.8c0.16-0.3,0.23-0.62,0.22-0.96
				c-0.03-0.22-0.06-0.44-0.09-0.66c-0.12-0.42-0.33-0.79-0.64-1.1c-0.17-0.13-0.34-0.26-0.51-0.39c-0.39-0.23-0.81-0.34-1.26-0.34
				c-0.64-0.01-1.28-0.03-1.92-0.04c0,1.67,0,3.33,0,5c0.28-0.03,0.55-0.06,0.83-0.09c0.34,0.01,0.67-0.06,0.96-0.22
				c0.31-0.1,0.58-0.27,0.8-0.52c0.24-0.23,0.42-0.49,0.52-0.8c0.16-0.3,0.23-0.62,0.22-0.96c-0.03-0.22-0.06-0.44-0.09-0.66
				c-0.12-0.42-0.33-0.79-0.64-1.1c-0.17-0.13-0.34-0.26-0.51-0.39C423.87,179.02,423.44,178.91,422.99,178.91L422.99,178.91z"/>
		</g>
	</g>
	<g>
		<g>
			<path class="st2" d="M421.49,179.11c-2.39-0.09-4.79-0.17-7.18-0.26c0,1.67,0,3.33,0,5c0.73,0.02,1,0.07,1.71,0.26
				c0.22-1.64,0.44-3.27,0.66-4.91c-3.86-0.12-7.72-0.23-11.59-0.35c-1.31-0.04-2.56,1.18-2.5,2.5c0.06,1.41,1.1,2.43,2.5,2.5
				c0.97,0.05,1.94,0.1,2.92,0.15c1.31,0.07,2.56-1.2,2.5-2.5c-0.06-1.41-1.1-2.43-2.5-2.5c-0.97-0.05-1.94-0.1-2.92-0.15
				c0,1.67,0,3.33,0,5c3.86,0.11,7.72,0.23,11.59,0.35c2.84,0.08,3.36-4.16,0.66-4.91c-0.99-0.27-2.02-0.42-3.04-0.44
				c-1.31-0.03-2.56,1.17-2.5,2.5c0.06,1.39,1.1,2.45,2.5,2.5c2.39,0.09,4.79,0.17,7.18,0.26c1.31,0.05,2.56-1.18,2.5-2.5
				C423.93,180.22,422.89,179.16,421.49,179.11L421.49,179.11z"/>
		</g>
	</g>
	<g>
		<g>
			<path class="st2" d="M401.32,183.92c1.71,0.11,3.42,0.22,5.13,0.33c0-1.67,0-3.33,0-5c-4.19-0.12-8.38-0.25-12.57-0.37
				c-1.35-0.04-2.5,1.18-2.5,2.5c0,1.45,1.15,2.38,2.5,2.5c0.62,0.06,1.24,0.11,1.87,0.17c0-1.67,0-3.33,0-5
				c-2.99,0.14-5.97,0.06-8.94-0.24c-1.08-0.11-2.14,0.85-2.41,1.84c-0.3,1.08,0.2,2.24,1.15,2.82c0.99,0.61,2.05,0.89,3.2,0.94
				c1.35,0.07,2.5-1.2,2.5-2.5c0-1.41-1.15-2.43-2.5-2.5c0.26,0.01-0.26-0.04-0.35-0.07c-0.37-0.14,0.26,0.18-0.33-0.19
				c-0.42,1.55-0.84,3.11-1.26,4.66c2.97,0.3,5.96,0.38,8.94,0.24c1.35-0.06,2.5-1.1,2.5-2.5c0-1.45-1.15-2.38-2.5-2.5
				c-0.62-0.06-1.24-0.11-1.87-0.17c0,1.67,0,3.33,0,5c4.19,0.12,8.38,0.25,12.57,0.37c1.35,0.04,2.5-1.18,2.5-2.5
				c0-1.43-1.15-2.41-2.5-2.5c-1.71-0.11-3.42-0.22-5.13-0.33c-1.35-0.09-2.5,1.21-2.5,2.5
				C398.82,182.84,399.96,183.83,401.32,183.92L401.32,183.92z"/>
		</g>
	</g>
	<g>
		<g>
			<path class="st2" d="M386.45,179.2c-2.76-0.1-5.52-0.2-8.27-0.3c-1.23-0.04-2.31,0.98-2.46,2.17c-0.16,1.33,0.61,2.25,1.79,2.74
				c1.1,0.46,2.23,0.43,3.38,0.23c1.21-0.21,1.96-1.62,1.79-2.74c-0.18-1.2-1.19-2.19-2.46-2.17c-3.9,0.07-7.81-0.03-11.7-0.3
				c-2.85-0.2-3.34,4.19-0.66,4.91c0.58,0.16,1.15,0.31,1.73,0.47c3.11,0.84,4.44-3.98,1.33-4.82c-0.58-0.16-1.15-0.31-1.73-0.47
				c-0.22,1.64-0.44,3.27-0.66,4.91c3.9,0.27,7.8,0.37,11.7,0.3c-0.22-1.64-0.44-3.27-0.66-4.91c0.25-0.04-0.38-0.06-0.2-0.02
				c0.01,0-0.46-0.18-0.53-0.21c-0.22,1.64-0.44,3.27-0.66,4.91c2.76,0.1,5.52,0.2,8.27,0.3c1.35,0.05,2.5-1.18,2.5-2.5
				C388.95,180.3,387.81,179.25,386.45,179.2L386.45,179.2z"/>
		</g>
	</g>
	<g>
		<g>
			<path class="st2" d="M368.02,179.1c-2.88-0.06-5.75-0.12-8.63-0.18c0,1.67,0,3.33,0,5c0.79,0,1.58,0.01,2.37,0.01
				c0-1.67,0-3.33,0-5c-1.79,0.01-3.58,0.02-5.37,0.03c-1.31,0.01-2.56,1.14-2.5,2.5c0.06,1.35,1.1,2.51,2.5,2.5
				c1.79-0.01,3.58-0.02,5.37-0.03c1.31-0.01,2.56-1.14,2.5-2.5c-0.06-1.36-1.1-2.49-2.5-2.5c-0.79,0-1.58-0.01-2.37-0.01
				c-1.31-0.01-2.56,1.16-2.5,2.5c0.06,1.38,1.1,2.47,2.5,2.5c2.88,0.06,5.75,0.12,8.63,0.18c1.31,0.03,2.56-1.17,2.5-2.5
				C370.45,180.22,369.42,179.13,368.02,179.1L368.02,179.1z"/>
		</g>
	</g>
</g>
<g>
	<path class="st1" d="M480.55,183.46c-18.92-78.2-9.49-103.4,3.35-111.39c11.47-7.17,33.33-6.9,33.46-6.15
		c0.14,0.61-13.18,6.42-19.6,1.5c-7.99-6.08-5.19-28.62,6.97-42.07c12.43-13.73,31.14-14.21,42.55-14.48
		c11.34-0.27,35.24-0.82,48.08,15.71c9.83,12.7,11.34,33.19,3.01,39.68c-7.72,6.01-23.56,0.14-23.43-1.16
		c0.14-1.5,23.02-4.23,35.31,3c13.18,7.79,21.17,34.15,2.32,112.28C568.44,181.48,524.53,182.44,480.55,183.46z"/>
	<path class="st1" d="M611.88,183.46H480.55H611.88z"/>
	<line class="st1" x1="612.56" y1="180.39" x2="611.88" y2="183.46"/>
	<g>
		<g>
			<path class="st2" d="M607.94,180.61c0.01,0.47,0.03,0.93,0.04,1.4c0.83-0.83,1.67-1.67,2.5-2.5c-5.22-0.38-10.46-0.6-15.69-0.66
				c-1.35-0.02-2.5,1.16-2.5,2.5c0,1.45,1.15,2.38,2.5,2.5c0.57,0.05,1.12,0.21,1.67,0.38c0.22-1.64,0.44-3.27,0.66-4.91
				c-1.57-0.12-3.14-0.24-4.71-0.36c-1.35-0.1-2.5,1.22-2.5,2.5c0,1.44,1.15,2.4,2.5,2.5c1.57,0.12,3.14,0.24,4.71,0.36
				c1.22,0.09,2.32-1.02,2.46-2.17c0.15-1.25-0.58-2.36-1.79-2.74c-0.98-0.31-1.98-0.47-3-0.56c0,1.67,0,3.33,0,5
				c5.24,0.06,10.47,0.28,15.69,0.66c1.32,0.1,2.54-1.22,2.5-2.5c-0.01-0.47-0.03-0.93-0.04-1.4c-0.04-1.35-1.12-2.5-2.5-2.5
				C609.12,178.11,607.9,179.25,607.94,180.61L607.94,180.61z"/>
		</g>
	</g>
	<g>
		<g>
			<path class="st2" d="M593.42,179.2c-0.66,0.04-1.32,0.02-1.98-0.07c0.22,0.03,0.44,0.06,0.66,0.09
				c-0.49-0.07-0.98-0.17-1.45-0.31c-0.85-0.25-1.81,0.02-2.43,0.64c-0.65,0.65-0.85,1.55-0.64,2.43c0.02,0.11,0.05,0.21,0.07,0.32
				c1.03-1.03,2.05-2.05,3.08-3.08c-1.27-0.33-2.62-0.48-3.92-0.37c-0.64,0.06-1.31,0.23-1.77,0.73c-0.38,0.41-0.61,0.88-0.69,1.44
				c-0.16,1.19,0.58,2.44,1.79,2.74c0.57,0.14,1.14,0.28,1.71,0.43c0.64,0.16,1.35,0.08,1.93-0.25c0.52-0.3,1.01-0.9,1.15-1.49
				c0.3-1.3-0.39-2.74-1.75-3.08c-0.57-0.14-1.14-0.28-1.71-0.43c-0.22,1.64-0.44,3.27-0.66,4.91c0.72-0.06,1.43-0.04,2.14,0.05
				c-0.22-0.03-0.44-0.06-0.66-0.09c0.38,0.06,0.75,0.13,1.11,0.23c0.87,0.23,1.8-0.01,2.43-0.64c0.65-0.65,0.85-1.55,0.64-2.43
				c-0.02-0.11-0.05-0.21-0.07-0.32c-1.03,1.03-2.05,2.05-3.08,3.08c1.32,0.38,2.73,0.55,4.1,0.47c0.66-0.04,1.29-0.25,1.77-0.73
				c0.43-0.43,0.76-1.15,0.73-1.77c-0.03-0.65-0.24-1.32-0.73-1.77C594.72,179.5,594.08,179.16,593.42,179.2L593.42,179.2z"/>
		</g>
	</g>
	<g>
		<g>
			<path class="st2" d="M586.88,178.95c-2.02,0.05-4.03-0.01-6.04-0.18c-0.58-0.05-1.38,0.31-1.77,0.73
				c-0.38,0.41-0.61,0.88-0.69,1.44c-0.07,0.53,0,1.13,0.3,1.59c0.33,0.51,0.86,1.05,1.49,1.15c0.62,0.1,1.24,0.2,1.86,0.31
				c0.68,0.11,1.31,0.11,1.93-0.25c0.52-0.3,1.01-0.9,1.15-1.49c0.15-0.64,0.11-1.36-0.25-1.93c-0.33-0.51-0.86-1.05-1.49-1.15
				c-0.62-0.1-1.24-0.2-1.86-0.31c-0.22,1.64-0.44,3.27-0.66,4.91c2.01,0.17,4.03,0.23,6.04,0.18c0.65-0.02,1.3-0.27,1.77-0.73
				c0.43-0.43,0.76-1.15,0.73-1.77C589.32,180.12,588.28,178.91,586.88,178.95L586.88,178.95z"/>
		</g>
	</g>
	<g>
		<g>
			<path class="st2" d="M580.74,179.19c-1.33-0.11-2.66-0.22-3.99-0.33c-0.34-0.01-0.67,0.06-0.96,0.22
				c-0.31,0.1-0.58,0.27-0.8,0.52c-0.43,0.43-0.76,1.15-0.73,1.77c0.03,0.65,0.24,1.32,0.73,1.77c0.17,0.13,0.34,0.26,0.51,0.39
				c0.39,0.23,0.81,0.34,1.26,0.34c0.81,0.08,1.63,0.16,2.44,0.24c0.34,0.01,0.67-0.06,0.96-0.22c0.31-0.1,0.58-0.27,0.8-0.52
				c0.43-0.43,0.76-1.15,0.73-1.77c-0.03-0.65-0.24-1.32-0.73-1.77c-0.17-0.13-0.34-0.26-0.51-0.39c-0.39-0.23-0.81-0.34-1.26-0.34
				c-0.81-0.08-1.63-0.16-2.44-0.24c0,1.67,0,3.33,0,5c1.33,0.11,2.66,0.22,3.99,0.33c0.34,0.01,0.67-0.06,0.96-0.22
				c0.31-0.1,0.58-0.27,0.8-0.52c0.43-0.43,0.76-1.15,0.73-1.77c-0.03-0.65-0.24-1.32-0.73-1.77c-0.17-0.13-0.34-0.26-0.51-0.39
				C581.61,179.31,581.19,179.19,580.74,179.19L580.74,179.19z"/>
		</g>
	</g>
	<g>
		<g>
			<path class="st2" d="M576.85,178.91c-0.28,0.03-0.55,0.06-0.83,0.09c-0.34-0.01-0.67,0.06-0.96,0.22
				c-0.31,0.1-0.58,0.27-0.8,0.52c-0.24,0.23-0.42,0.49-0.52,0.8c-0.16,0.3-0.23,0.62-0.22,0.96c0.03,0.22,0.06,0.44,0.09,0.66
				c0.12,0.42,0.33,0.79,0.64,1.1c0.17,0.13,0.34,0.26,0.51,0.39c0.39,0.23,0.81,0.34,1.26,0.34c0.64,0.01,1.28,0.03,1.92,0.04
				c0.34,0.01,0.67-0.06,0.96-0.22c0.31-0.1,0.58-0.27,0.8-0.52c0.24-0.23,0.42-0.49,0.52-0.8c0.16-0.3,0.23-0.62,0.22-0.96
				c-0.03-0.22-0.06-0.44-0.09-0.66c-0.12-0.42-0.33-0.79-0.64-1.1c-0.17-0.13-0.34-0.26-0.51-0.39c-0.39-0.23-0.81-0.34-1.26-0.34
				c-0.64-0.01-1.28-0.03-1.92-0.04c0,1.67,0,3.33,0,5c0.28-0.03,0.55-0.06,0.83-0.09c0.34,0.01,0.67-0.06,0.96-0.22
				c0.31-0.1,0.58-0.27,0.8-0.52c0.24-0.23,0.42-0.49,0.52-0.8c0.16-0.3,0.23-0.62,0.22-0.96c-0.03-0.22-0.06-0.44-0.09-0.66
				c-0.12-0.42-0.33-0.79-0.64-1.1c-0.17-0.13-0.34-0.26-0.51-0.39C577.72,179.02,577.3,178.91,576.85,178.91L576.85,178.91z"/>
		</g>
	</g>
	<g>
		<g>
			<path class="st2" d="M575.35,179.11c-2.39-0.09-4.79-0.17-7.18-0.26c0,1.67,0,3.33,0,5c0.73,0.02,1,0.07,1.71,0.26
				c0.22-1.64,0.44-3.27,0.66-4.91c-3.86-0.12-7.72-0.23-11.59-0.35c-1.31-0.04-2.56,1.18-2.5,2.5c0.06,1.41,1.1,2.43,2.5,2.5
				c0.97,0.05,1.94,0.1,2.92,0.15c1.31,0.07,2.56-1.2,2.5-2.5c-0.06-1.41-1.1-2.43-2.5-2.5c-0.97-0.05-1.94-0.1-2.92-0.15
				c0,1.67,0,3.33,0,5c3.86,0.11,7.72,0.23,11.59,0.35c2.84,0.08,3.36-4.16,0.66-4.91c-0.99-0.27-2.02-0.42-3.04-0.44
				c-1.31-0.03-2.56,1.17-2.5,2.5c0.06,1.39,1.1,2.45,2.5,2.5c2.39,0.09,4.79,0.17,7.18,0.26c1.31,0.05,2.56-1.18,2.5-2.5
				C577.79,180.22,576.75,179.16,575.35,179.11L575.35,179.11z"/>
		</g>
	</g>
	<g>
		<g>
			<path class="st2" d="M555.18,183.92c1.71,0.11,3.42,0.22,5.13,0.33c0-1.67,0-3.33,0-5c-4.19-0.12-8.38-0.25-12.57-0.37
				c-1.35-0.04-2.5,1.18-2.5,2.5c0,1.45,1.15,2.38,2.5,2.5c0.62,0.06,1.24,0.11,1.87,0.17c0-1.67,0-3.33,0-5
				c-2.99,0.14-5.97,0.06-8.94-0.24c-1.08-0.11-2.14,0.85-2.41,1.84c-0.3,1.08,0.2,2.24,1.15,2.82c0.99,0.61,2.05,0.89,3.2,0.94
				c1.35,0.07,2.5-1.2,2.5-2.5c0-1.41-1.15-2.43-2.5-2.5c0.26,0.01-0.26-0.04-0.35-0.07c-0.37-0.14,0.26,0.18-0.33-0.19
				c-0.42,1.55-0.84,3.11-1.26,4.66c2.97,0.3,5.96,0.38,8.94,0.24c1.35-0.06,2.5-1.1,2.5-2.5c0-1.45-1.15-2.38-2.5-2.5
				c-0.62-0.06-1.24-0.11-1.87-0.17c0,1.67,0,3.33,0,5c4.19,0.12,8.38,0.25,12.57,0.37c1.35,0.04,2.5-1.18,2.5-2.5
				c0-1.43-1.15-2.41-2.5-2.5c-1.71-0.11-3.42-0.22-5.13-0.33c-1.35-0.09-2.5,1.21-2.5,2.5
				C552.68,182.84,553.82,183.83,555.18,183.92L555.18,183.92z"/>
		</g>
	</g>
	<g>
		<g>
			<path class="st2" d="M540.31,179.2c-2.76-0.1-5.52-0.2-8.27-0.3c-1.23-0.04-2.31,0.98-2.46,2.17c-0.16,1.33,0.61,2.25,1.79,2.74
				c1.1,0.46,2.23,0.43,3.38,0.23c1.21-0.21,1.96-1.62,1.79-2.74c-0.18-1.2-1.19-2.19-2.46-2.17c-3.9,0.07-7.81-0.03-11.7-0.3
				c-2.85-0.2-3.34,4.19-0.66,4.91c0.58,0.16,1.15,0.31,1.73,0.47c3.11,0.84,4.44-3.98,1.33-4.82c-0.58-0.16-1.15-0.31-1.73-0.47
				c-0.22,1.64-0.44,3.27-0.66,4.91c3.9,0.27,7.8,0.37,11.7,0.3c-0.22-1.64-0.44-3.27-0.66-4.91c0.25-0.04-0.38-0.06-0.2-0.02
				c0.01,0-0.46-0.18-0.53-0.21c-0.22,1.64-0.44,3.27-0.66,4.91c2.76,0.1,5.52,0.2,8.27,0.3c1.35,0.05,2.5-1.18,2.5-2.5
				C542.81,180.3,541.67,179.25,540.31,179.2L540.31,179.2z"/>
		</g>
	</g>
	<g>
		<g>
			<path class="st2" d="M521.88,179.1c-2.88-0.06-5.75-0.12-8.63-0.18c0,1.67,0,3.33,0,5c0.79,0,1.58,0.01,2.37,0.01
				c0-1.67,0-3.33,0-5c-1.79,0.01-3.58,0.02-5.37,0.03c-1.31,0.01-2.56,1.14-2.5,2.5c0.06,1.35,1.1,2.51,2.5,2.5
				c1.79-0.01,3.58-0.02,5.37-0.03c1.31-0.01,2.56-1.14,2.5-2.5c-0.06-1.36-1.1-2.49-2.5-2.5c-0.79,0-1.58-0.01-2.37-0.01
				c-1.31-0.01-2.56,1.16-2.5,2.5c0.06,1.38,1.1,2.47,2.5,2.5c2.88,0.06,5.75,0.12,8.63,0.18c1.31,0.03,2.56-1.17,2.5-2.5
				C524.31,180.22,523.28,179.13,521.88,179.1L521.88,179.1z"/>
		</g>
	</g>
</g>
<g>
	<path class="st1" d="M634.41,183.46c-18.92-78.2-9.49-103.4,3.35-111.39c11.47-7.17,33.33-6.9,33.46-6.15
		c0.14,0.61-13.18,6.42-19.6,1.5c-7.99-6.08-5.19-28.62,6.97-42.07c12.43-13.73,31.14-14.21,42.55-14.48
		c11.34-0.27,35.24-0.82,48.08,15.71c9.83,12.7,11.34,33.19,3.01,39.68c-7.72,6.01-23.56,0.14-23.43-1.16
		c0.14-1.5,23.02-4.23,35.31,3c13.18,7.79,21.17,34.15,2.32,112.28C722.3,181.48,678.39,182.44,634.41,183.46z"/>
	<path class="st1" d="M765.74,183.46H634.41H765.74z"/>
	<line class="st1" x1="766.42" y1="180.39" x2="765.74" y2="183.46"/>
	<g>
		<g>
			<path class="st2" d="M761.8,180.61c0.01,0.47,0.03,0.93,0.04,1.4c0.83-0.83,1.67-1.67,2.5-2.5c-5.22-0.38-10.46-0.6-15.69-0.66
				c-1.35-0.02-2.5,1.16-2.5,2.5c0,1.45,1.15,2.38,2.5,2.5c0.57,0.05,1.12,0.21,1.67,0.38c0.22-1.64,0.44-3.27,0.66-4.91
				c-1.57-0.12-3.14-0.24-4.71-0.36c-1.35-0.1-2.5,1.22-2.5,2.5c0,1.44,1.15,2.4,2.5,2.5c1.57,0.12,3.14,0.24,4.71,0.36
				c1.22,0.09,2.32-1.02,2.46-2.17c0.15-1.25-0.58-2.36-1.79-2.74c-0.98-0.31-1.98-0.47-3-0.56c0,1.67,0,3.33,0,5
				c5.24,0.06,10.47,0.28,15.69,0.66c1.32,0.1,2.54-1.22,2.5-2.5c-0.01-0.47-0.03-0.93-0.04-1.4c-0.04-1.35-1.12-2.5-2.5-2.5
				C762.98,178.11,761.76,179.25,761.8,180.61L761.8,180.61z"/>
		</g>
	</g>
	<g>
		<g>
			<path class="st2" d="M747.28,179.2c-0.66,0.04-1.32,0.02-1.98-0.07c0.22,0.03,0.44,0.06,0.66,0.09
				c-0.49-0.07-0.98-0.17-1.45-0.31c-0.85-0.25-1.81,0.02-2.43,0.64c-0.65,0.65-0.85,1.55-0.64,2.43c0.02,0.11,0.05,0.21,0.07,0.32
				c1.03-1.03,2.05-2.05,3.08-3.08c-1.27-0.33-2.62-0.48-3.92-0.37c-0.64,0.06-1.31,0.23-1.77,0.73c-0.38,0.41-0.61,0.88-0.69,1.44
				c-0.16,1.19,0.58,2.44,1.79,2.74c0.57,0.14,1.14,0.28,1.71,0.43c0.64,0.16,1.35,0.08,1.93-0.25c0.52-0.3,1.01-0.9,1.15-1.49
				c0.3-1.3-0.39-2.74-1.75-3.08c-0.57-0.14-1.14-0.28-1.71-0.43c-0.22,1.64-0.44,3.27-0.66,4.91c0.72-0.06,1.43-0.04,2.14,0.05
				c-0.22-0.03-0.44-0.06-0.66-0.09c0.38,0.06,0.75,0.13,1.11,0.23c0.87,0.23,1.8-0.01,2.43-0.64c0.65-0.65,0.85-1.55,0.64-2.43
				c-0.02-0.11-0.05-0.21-0.07-0.32c-1.03,1.03-2.05,2.05-3.08,3.08c1.32,0.38,2.73,0.55,4.1,0.47c0.66-0.04,1.29-0.25,1.77-0.73
				c0.43-0.43,0.76-1.15,0.73-1.77c-0.03-0.65-0.24-1.32-0.73-1.77C748.58,179.5,747.94,179.16,747.28,179.2L747.28,179.2z"/>
		</g>
	</g>
	<g>
		<g>
			<path class="st2" d="M740.74,178.95c-2.02,0.05-4.03-0.01-6.04-0.18c-0.58-0.05-1.38,0.31-1.77,0.73
				c-0.38,0.41-0.61,0.88-0.69,1.44c-0.07,0.53,0,1.13,0.3,1.59c0.33,0.51,0.86,1.05,1.49,1.15c0.62,0.1,1.24,0.2,1.86,0.31
				c0.68,0.11,1.31,0.11,1.93-0.25c0.52-0.3,1.01-0.9,1.15-1.49c0.15-0.64,0.11-1.36-0.25-1.93c-0.33-0.51-0.86-1.05-1.49-1.15
				c-0.62-0.1-1.24-0.2-1.86-0.31c-0.22,1.64-0.44,3.27-0.66,4.91c2.01,0.17,4.03,0.23,6.04,0.18c0.65-0.02,1.3-0.27,1.77-0.73
				c0.43-0.43,0.76-1.15,0.73-1.77C743.18,180.12,742.14,178.91,740.74,178.95L740.74,178.95z"/>
		</g>
	</g>
	<g>
		<g>
			<path class="st2" d="M734.6,179.19c-1.33-0.11-2.66-0.22-3.99-0.33c-0.34-0.01-0.67,0.06-0.96,0.22c-0.31,0.1-0.58,0.27-0.8,0.52
				c-0.43,0.43-0.76,1.15-0.73,1.77c0.03,0.65,0.24,1.32,0.73,1.77c0.17,0.13,0.34,0.26,0.51,0.39c0.39,0.23,0.81,0.34,1.26,0.34
				c0.81,0.08,1.63,0.16,2.44,0.24c0.34,0.01,0.67-0.06,0.96-0.22c0.31-0.1,0.58-0.27,0.8-0.52c0.43-0.43,0.76-1.15,0.73-1.77
				c-0.03-0.65-0.24-1.32-0.73-1.77c-0.17-0.13-0.34-0.26-0.51-0.39c-0.39-0.23-0.81-0.34-1.26-0.34c-0.81-0.08-1.63-0.16-2.44-0.24
				c0,1.67,0,3.33,0,5c1.33,0.11,2.66,0.22,3.99,0.33c0.34,0.01,0.67-0.06,0.96-0.22c0.31-0.1,0.58-0.27,0.8-0.52
				c0.43-0.43,0.76-1.15,0.73-1.77c-0.03-0.65-0.24-1.32-0.73-1.77c-0.17-0.13-0.34-0.26-0.51-0.39
				C735.47,179.31,735.05,179.19,734.6,179.19L734.6,179.19z"/>
		</g>
	</g>
	<g>
		<g>
			<path class="st2" d="M730.71,178.91c-0.28,0.03-0.55,0.06-0.83,0.09c-0.34-0.01-0.67,0.06-0.96,0.22
				c-0.31,0.1-0.58,0.27-0.8,0.52c-0.24,0.23-0.42,0.49-0.52,0.8c-0.16,0.3-0.23,0.62-0.22,0.96c0.03,0.22,0.06,0.44,0.09,0.66
				c0.12,0.42,0.33,0.79,0.64,1.1c0.17,0.13,0.34,0.26,0.51,0.39c0.39,0.23,0.81,0.34,1.26,0.34c0.64,0.01,1.28,0.03,1.92,0.04
				c0.34,0.01,0.67-0.06,0.96-0.22c0.31-0.1,0.58-0.27,0.8-0.52c0.24-0.23,0.42-0.49,0.52-0.8c0.16-0.3,0.23-0.62,0.22-0.96
				c-0.03-0.22-0.06-0.44-0.09-0.66c-0.12-0.42-0.33-0.79-0.64-1.1c-0.17-0.13-0.34-0.26-0.51-0.39c-0.39-0.23-0.81-0.34-1.26-0.34
				c-0.64-0.01-1.28-0.03-1.92-0.04c0,1.67,0,3.33,0,5c0.28-0.03,0.55-0.06,0.83-0.09c0.34,0.01,0.67-0.06,0.96-0.22
				c0.31-0.1,0.58-0.27,0.8-0.52c0.24-0.23,0.42-0.49,0.52-0.8c0.16-0.3,0.23-0.62,0.22-0.96c-0.03-0.22-0.06-0.44-0.09-0.66
				c-0.12-0.42-0.33-0.79-0.64-1.1c-0.17-0.13-0.34-0.26-0.51-0.39C731.58,179.02,731.16,178.91,730.71,178.91L730.71,178.91z"/>
		</g>
	</g>
	<g>
		<g>
			<path class="st2" d="M729.21,179.11c-2.39-0.09-4.79-0.17-7.18-0.26c0,1.67,0,3.33,0,5c0.73,0.02,1,0.07,1.71,0.26
				c0.22-1.64,0.44-3.27,0.66-4.91c-3.86-0.12-7.72-0.23-11.59-0.35c-1.31-0.04-2.56,1.18-2.5,2.5c0.06,1.41,1.1,2.43,2.5,2.5
				c0.97,0.05,1.94,0.1,2.92,0.15c1.31,0.07,2.56-1.2,2.5-2.5c-0.06-1.41-1.1-2.43-2.5-2.5c-0.97-0.05-1.94-0.1-2.92-0.15
				c0,1.67,0,3.33,0,5c3.86,0.11,7.72,0.23,11.59,0.35c2.84,0.08,3.36-4.16,0.66-4.91c-0.99-0.27-2.02-0.42-3.04-0.44
				c-1.31-0.03-2.56,1.17-2.5,2.5c0.06,1.39,1.1,2.45,2.5,2.5c2.39,0.09,4.79,0.17,7.18,0.26c1.31,0.05,2.56-1.18,2.5-2.5
				C731.65,180.22,730.61,179.16,729.21,179.11L729.21,179.11z"/>
		</g>
	</g>
	<g>
		<g>
			<path class="st2" d="M709.04,183.92c1.71,0.11,3.42,0.22,5.13,0.33c0-1.67,0-3.33,0-5c-4.19-0.12-8.38-0.25-12.57-0.37
				c-1.35-0.04-2.5,1.18-2.5,2.5c0,1.45,1.15,2.38,2.5,2.5c0.62,0.06,1.24,0.11,1.87,0.17c0-1.67,0-3.33,0-5
				c-2.99,0.14-5.97,0.06-8.94-0.24c-1.08-0.11-2.14,0.85-2.41,1.84c-0.3,1.08,0.2,2.24,1.15,2.82c0.99,0.61,2.05,0.89,3.2,0.94
				c1.35,0.07,2.5-1.2,2.5-2.5c0-1.41-1.15-2.43-2.5-2.5c0.26,0.01-0.26-0.04-0.35-0.07c-0.37-0.14,0.26,0.18-0.33-0.19
				c-0.42,1.55-0.84,3.11-1.26,4.66c2.97,0.3,5.96,0.38,8.94,0.24c1.35-0.06,2.5-1.1,2.5-2.5c0-1.45-1.15-2.38-2.5-2.5
				c-0.62-0.06-1.24-0.11-1.87-0.17c0,1.67,0,3.33,0,5c4.19,0.12,8.38,0.25,12.57,0.37c1.35,0.04,2.5-1.18,2.5-2.5
				c0-1.43-1.15-2.41-2.5-2.5c-1.71-0.11-3.42-0.22-5.13-0.33c-1.35-0.09-2.5,1.21-2.5,2.5
				C706.54,182.84,707.68,183.83,709.04,183.92L709.04,183.92z"/>
		</g>
	</g>
	<g>
		<g>
			<path class="st2" d="M694.17,179.2c-2.76-0.1-5.52-0.2-8.27-0.3c-1.23-0.04-2.31,0.98-2.46,2.17c-0.16,1.33,0.61,2.25,1.79,2.74
				c1.1,0.46,2.23,0.43,3.38,0.23c1.21-0.21,1.96-1.62,1.79-2.74c-0.18-1.2-1.19-2.19-2.46-2.17c-3.9,0.07-7.81-0.03-11.7-0.3
				c-2.85-0.2-3.34,4.19-0.66,4.91c0.58,0.16,1.15,0.31,1.73,0.47c3.11,0.84,4.44-3.98,1.33-4.82c-0.58-0.16-1.15-0.31-1.73-0.47
				c-0.22,1.64-0.44,3.27-0.66,4.91c3.9,0.27,7.8,0.37,11.7,0.3c-0.22-1.64-0.44-3.27-0.66-4.91c0.25-0.04-0.38-0.06-0.2-0.02
				c0.01,0-0.46-0.18-0.53-0.21c-0.22,1.64-0.44,3.27-0.66,4.91c2.76,0.1,5.52,0.2,8.27,0.3c1.35,0.05,2.5-1.18,2.5-2.5
				C696.67,180.3,695.53,179.25,694.17,179.2L694.17,179.2z"/>
		</g>
	</g>
	<g>
		<g>
			<path class="st2" d="M675.73,179.1c-2.88-0.06-5.75-0.12-8.63-0.18c0,1.67,0,3.33,0,5c0.79,0,1.58,0.01,2.37,0.01
				c0-1.67,0-3.33,0-5c-1.79,0.01-3.58,0.02-5.37,0.03c-1.31,0.01-2.56,1.14-2.5,2.5c0.06,1.35,1.1,2.51,2.5,2.5
				c1.79-0.01,3.58-0.02,5.37-0.03c1.31-0.01,2.56-1.14,2.5-2.5c-0.06-1.36-1.1-2.49-2.5-2.5c-0.79,0-1.58-0.01-2.37-0.01
				c-1.31-0.01-2.56,1.16-2.5,2.5c0.06,1.38,1.1,2.47,2.5,2.5c2.88,0.06,5.75,0.12,8.63,0.18c1.31,0.03,2.56-1.17,2.5-2.5
				C678.17,180.22,677.14,179.13,675.73,179.1L675.73,179.1z"/>
		</g>
	</g>
</g>
</svg>
